<svg width="36" height="40" viewBox="0 0 36 40" fill="none" xmlns="http://www.w3.org/2000/svg">
<path d="M35.9995 13.1943H30.582V14.8545H35.9995V13.1943Z" fill="white"/>
<path d="M32.5052 22.1066H26.3887V23.3299H33.1168C33.279 23.3299 33.4346 23.2655 33.5493 23.1507C33.664 23.036 33.7285 22.8805 33.7285 22.7182V15.4658H32.5052V22.1066Z" fill="white"/>
<path d="M5.41748 13.1943H0V14.8545H5.41748V13.1943Z" fill="white"/>
<path d="M9.52433 22.1066H3.23307V15.4658H2.00977V22.7182C2.00977 22.8805 2.07421 23.036 2.18891 23.1507C2.30362 23.2655 2.4592 23.3299 2.62142 23.3299H9.52433V22.1066Z" fill="white"/>
<path d="M19.7454 1.66019H20.7085V0H15.291V1.66019H16.2541H19.7454Z" fill="white"/>
<path d="M12.0349 17.5636H23.9656C24.1382 17.5613 24.3085 17.5234 24.4658 17.4522C24.6231 17.381 24.764 17.2781 24.8797 17.15C24.9975 17.0219 25.0879 16.8711 25.1452 16.7067C25.2026 16.5424 25.2256 16.3681 25.213 16.1945L24.4585 5.24316H11.542L10.7875 16.1998C10.7749 16.3735 10.798 16.5478 10.8553 16.7122C10.9127 16.8766 11.003 17.0275 11.1209 17.1557C11.2368 17.283 11.3779 17.385 11.5352 17.4552C11.6925 17.5254 11.8627 17.5623 12.0349 17.5636Z" fill="white"/>
<path d="M19.1361 2.88379H16.8643V4.01971H19.1361V2.88379Z" fill="white"/>
<path d="M19.748 20.3107V18.7861H16.2528V20.3107C17.3887 20.3637 18.612 20.3637 19.748 20.3107ZM24.2444 35.6472L24.0553 37.4742C24.0392 37.6234 23.9677 37.761 23.8551 37.8601C23.7425 37.9592 23.5968 38.0124 23.4469 38.0094H12.5539C12.4039 38.0124 12.2583 37.9592 12.1457 37.8601C12.033 37.761 11.9616 37.6234 11.9455 37.4742L11.7545 35.6347C8.96422 36.219 7.90527 37.054 7.90527 37.4718C7.90527 37.8528 8.74323 38.5008 10.583 39.023C12.5436 39.5795 15.1616 39.886 17.9538 39.886C20.746 39.886 23.3641 39.5795 25.3247 39.023C27.1645 38.5008 28.0024 37.8494 28.0024 37.4684C28.0024 37.0589 26.9691 36.2314 24.2444 35.6472ZM18.0004 26.4156C16.9211 26.4156 15.8434 26.3699 14.7674 26.2784V27.7861H21.0586V26.2931C20.0417 26.3746 19.0223 26.4155 18.0004 26.4156Z" fill="white"/>
<path d="M13.1057 36.7865H22.8949L23.6998 29.0098H12.3008L13.1057 36.7865Z" fill="white"/>
<path d="M25.777 24.366V20.7754C20.6474 21.8415 15.3533 21.8415 10.2236 20.7754V24.366C15.3494 25.4689 20.6512 25.4689 25.777 24.366Z" fill="white"/>
</svg>
