<svg width="615" height="620" viewBox="0 0 615 620" fill="none" xmlns="http://www.w3.org/2000/svg">
<path d="M194.159 221.27C188.7 218.331 183.136 222.127 177.466 232.657L175.219 236.831C172.526 241.832 171.134 246.148 171.042 249.778C170.969 253.373 172.341 255.929 175.158 257.446C179.033 259.532 184.619 257.679 191.917 251.886L192.868 252.398L186.155 263.98L185.574 263.667C185.571 263.166 185.52 262.798 185.419 262.562C185.338 262.291 185.121 262.061 184.769 261.871C184.452 261.7 183.033 261.299 180.51 260.668C178.007 260.002 175.611 259.052 173.322 257.82C167.581 254.729 163.96 250.78 162.459 245.974C160.993 241.187 161.929 235.695 165.267 229.496C168.623 223.262 172.849 219.336 177.945 217.719C183.076 216.12 188.424 216.819 193.989 219.815C196.137 220.972 198.081 222.382 199.82 224.046C201.614 225.693 202.687 226.611 203.039 226.801C203.391 226.99 203.693 227.062 203.945 227.016C204.216 226.935 204.561 226.757 204.981 226.484L205.562 226.797L199.812 238.488L198.862 237.976C199.192 233.566 199.014 229.972 198.329 227.195C197.698 224.402 196.308 222.427 194.159 221.27Z" fill="#212024"/>
<path d="M210.868 229.653L238.339 244.444L233.235 255.189L232.284 254.677C232.72 250.323 232.479 247.059 231.561 244.884C230.661 242.673 228.644 240.724 225.51 239.036L223.661 238.04L214.871 254.365L216.668 255.332C218.323 256.223 220.046 256.356 221.837 255.73C223.646 255.069 225.349 253.805 226.945 251.938L227.737 252.365L219.317 268.002L218.419 267.519C219.208 264.536 219.359 262.187 218.874 260.472C218.424 258.776 217.266 257.426 215.4 256.421L214.132 255.738L205.001 272.696L207.009 273.777C210.249 275.522 213.517 276.032 216.814 275.309C220.147 274.604 223.051 272.965 225.527 270.392L226.583 270.961L219.96 282.25L190.957 266.634L191.582 265.471L194.699 267.15L213.359 232.494L210.242 230.816L210.868 229.653Z" fill="#212024"/>
<path d="M250.211 274.415L247.411 272.907L237.882 290.605L241.316 292.454L240.776 293.458L223.606 284.213L224.147 283.209L227.581 285.058L246.411 250.085L242.977 248.236L243.517 247.233L259.472 255.823C264.05 258.288 267.158 260.279 268.794 261.796C270.485 263.297 271.537 264.591 271.952 265.677C272.903 267.961 272.572 270.6 270.96 273.593C269.349 276.587 267.452 278.337 265.271 278.844C263.109 279.315 260.448 278.859 257.286 277.475L257.201 277.633C259.845 279.556 261.38 281.473 261.805 283.383C262.231 285.293 261.618 287.78 259.969 290.844L258.461 293.644C257.475 295.475 256.899 296.756 256.734 297.484C256.604 298.232 256.856 298.777 257.49 299.118C258.124 299.459 258.769 299.443 259.424 299.069C260.134 298.679 261.15 297.636 262.472 295.94L263.313 296.529C261.314 299.314 259.546 300.952 258.01 301.442C256.509 301.952 254.315 301.429 251.427 299.874C248.539 298.319 246.839 296.54 246.327 294.538C245.869 292.52 246.645 289.644 248.655 285.911L250.731 282.055C251.793 280.082 252.307 278.496 252.272 277.296C252.271 276.115 251.585 275.154 250.211 274.415ZM256.713 255.632L247.952 271.903L249.642 272.814C251.65 273.895 253.461 274.075 255.075 273.354C256.725 272.652 258.299 270.91 259.797 268.128L260.622 266.596C262.12 263.814 262.631 261.726 262.154 260.334C261.731 258.925 260.499 257.671 258.456 256.571L256.713 255.632Z" fill="#212024"/>
<path d="M311.509 283.841L304.898 297.386L303.894 296.846C304.867 291.327 305.209 287.4 304.922 285.065C304.654 282.694 303.393 280.902 301.139 279.689L300.505 279.347L281.788 314.109L286.278 316.527L285.681 317.636L266.399 307.254L266.996 306.144L271.486 308.562L290.203 273.801L289.516 273.431C287.262 272.217 285.035 272.177 282.835 273.309C280.655 274.406 277.601 276.828 273.676 280.575L272.672 280.035L280.34 267.059L311.509 283.841Z" fill="#212024"/>
<path d="M315.293 285.879L331.406 294.554L330.865 295.558L327.96 293.993L309.129 328.966L312.035 330.531L311.494 331.534L295.381 322.859L295.922 321.855L298.827 323.42L317.658 288.447L314.752 286.882L315.293 285.879Z" fill="#212024"/>
<path d="M333.86 295.876L361.332 310.667L355.943 321.94L354.992 321.428C355.737 316.923 355.617 313.519 354.63 311.216C353.68 308.932 351.514 306.88 348.132 305.06L346.653 304.263L337.409 321.433L339.786 322.713C341.477 323.623 343.217 323.765 345.008 323.139C346.799 322.513 348.484 321.24 350.063 319.319L350.855 319.746L342.436 335.383L341.538 334.9C342.397 331.955 342.619 329.644 342.204 327.967C341.825 326.309 340.772 325.015 339.046 324.086L336.669 322.806L327.994 338.919L334.544 342.446L333.919 343.608L313.949 332.856L314.575 331.694L317.692 333.372L336.352 298.716L333.235 297.038L333.86 295.876Z" fill="#212024"/>
<path d="M365.336 312.823L381.449 321.499L380.908 322.503L378.003 320.938L359.172 355.911L362.078 357.475L361.537 358.479L345.425 349.803L345.965 348.8L348.871 350.364L367.701 315.391L364.795 313.827L365.336 312.823Z" fill="#212024"/>
<path d="M383.904 322.821L411.375 337.612L406.271 348.356L405.32 347.844C405.756 343.491 405.515 340.226 404.596 338.051C403.697 335.84 401.68 333.891 398.545 332.203L396.696 331.208L387.907 347.532L389.703 348.499C391.358 349.39 393.081 349.523 394.872 348.897C396.682 348.236 398.385 346.972 399.98 345.106L400.773 345.532L392.353 361.17L391.455 360.686C392.243 357.703 392.395 355.354 391.91 353.64C391.46 351.944 390.302 350.593 388.435 349.588L387.167 348.905L378.037 365.864L380.044 366.944C383.284 368.689 386.553 369.2 389.85 368.476C393.182 367.772 396.086 366.133 398.562 363.559L399.619 364.128L392.995 375.417L363.992 359.801L364.618 358.639L367.735 360.317L386.395 325.661L383.278 323.983L383.904 322.821Z" fill="#212024"/>
<path d="M443.866 378.139C439.96 385.394 435.196 389.348 429.574 390.001C424.384 390.614 418.495 389.147 411.909 385.601L396.959 377.551L397.499 376.547L400.986 378.425L419.816 343.452L416.33 341.574L416.87 340.571L433.194 349.36C439.956 353.001 444.279 357.123 446.162 361.726C448.064 366.293 447.299 371.764 443.866 378.139ZM411.288 383.971L413.295 385.052C416.852 386.967 420.061 387.083 422.922 385.397C425.837 383.696 428.887 379.887 432.073 373.97L433.723 370.906C437.99 362.982 439.045 357.394 436.888 354.143C435.861 352.591 434.027 351.103 431.386 349.681L430.118 348.998L411.288 383.971Z" fill="#212024"/>
<path d="M440.25 401.542C438.736 400.726 437.828 399.67 437.527 398.372C437.281 397.058 437.499 395.767 438.181 394.499C438.883 393.196 439.858 392.313 441.107 391.85C442.391 391.405 443.755 391.572 445.199 392.349C446.643 393.127 447.589 394.113 448.036 395.308C448.483 396.502 448.308 397.839 447.512 399.319C446.715 400.798 445.685 401.742 444.419 402.151C443.189 402.579 441.8 402.376 440.25 401.542Z" fill="#212024"/>
<rect x="486.163" y="389.818" width="4" height="12" rx="1" transform="rotate(118.299 486.163 389.818)" fill="#212024"/>
<rect x="480.196" y="400.373" width="4" height="12" rx="1" transform="rotate(121.836 480.196 400.373)" fill="#212024"/>
<rect x="473.66" y="410.432" width="4" height="12" rx="1" transform="rotate(125.365 473.66 410.432)" fill="#212024"/>
<rect x="466.565" y="420.002" width="4" height="12" rx="1" transform="rotate(128.879 466.565 420.002)" fill="#212024"/>
<rect x="458.554" y="429.498" width="4" height="12" rx="1" transform="rotate(132.592 458.554 429.498)" fill="#212024"/>
<rect x="450.023" y="438.379" width="4" height="12" rx="1" transform="rotate(136.28 450.023 438.379)" fill="#212024"/>
<rect x="441.353" y="446.336" width="4" height="12" rx="1" transform="rotate(139.726 441.353 446.336)" fill="#212024"/>
<rect x="431.852" y="454.025" width="4" height="12" rx="1" transform="rotate(143.361 431.852 454.025)" fill="#212024"/>
<rect x="421.914" y="461.074" width="4" height="12" rx="1" transform="rotate(146.97 421.914 461.074)" fill="#212024"/>
<rect x="411.569" y="467.471" width="4" height="12" rx="1" transform="rotate(150.556 411.569 467.471)" fill="#212024"/>
<rect x="400.581" y="473.34" width="4" height="12" rx="1" transform="rotate(154.332 400.581 473.34)" fill="#212024"/>
<rect x="389.553" y="478.357" width="4" height="12" rx="1" transform="rotate(157.883 389.553 478.357)" fill="#212024"/>
<rect x="378.229" y="482.678" width="4" height="12" rx="1" transform="rotate(161.426 378.229 482.678)" fill="#212024"/>
<rect x="366.65" y="486.287" width="4" height="12" rx="1" transform="rotate(164.965 366.65 486.287)" fill="#212024"/>
<rect x="354.858" y="489.172" width="4" height="12" rx="1" transform="rotate(168.507 354.858 489.172)" fill="#212024"/>
<rect x="342.897" y="491.316" width="4" height="12" rx="1" transform="rotate(172.057 342.897 491.316)" fill="#212024"/>
<rect x="330.686" y="492.729" width="4" height="12" rx="1" transform="rotate(175.832 330.686 492.729)" fill="#212024"/>
<rect x="318.551" y="493.352" width="4" height="12" rx="1" transform="rotate(179.417 318.551 493.352)" fill="#212024"/>
<rect x="306.391" y="493.213" width="4" height="12" rx="1" transform="rotate(-176.975 306.391 493.213)" fill="#212024"/>
<rect x="294.257" y="492.307" width="4" height="12" rx="1" transform="rotate(-173.342 294.257 492.307)" fill="#212024"/>
<rect x="282.259" y="490.639" width="4" height="12" rx="1" transform="rotate(-169.897 282.259 490.639)" fill="#212024"/>
<rect x="270.318" y="488.207" width="4" height="12" rx="1" transform="rotate(-166.211 270.318 488.207)" fill="#212024"/>
<rect x="258.56" y="485.025" width="4" height="12" rx="1" transform="rotate(-162.499 258.56 485.025)" fill="#212024"/>
<rect x="247.059" y="481.113" width="4" height="12" rx="1" transform="rotate(-158.986 247.059 481.113)" fill="#212024"/>
<rect x="235.82" y="476.486" width="4" height="12" rx="1" transform="rotate(-155.459 235.82 476.486)" fill="#212024"/>
<rect x="224.194" y="470.811" width="4" height="12" rx="1" transform="rotate(-151.48 224.194 470.811)" fill="#212024"/>
<rect x="213.64" y="464.789" width="4" height="12" rx="1" transform="rotate(-147.943 213.64 464.789)" fill="#212024"/>
<rect x="203.483" y="458.123" width="4" height="12" rx="1" transform="rotate(-144.415 203.483 458.123)" fill="#212024"/>
<rect x="193.771" y="450.838" width="4" height="12" rx="1" transform="rotate(-140.902 193.771 450.838)" fill="#212024"/>
<rect x="184.51" y="442.939" width="4" height="12" rx="1" transform="rotate(-137.191 184.51 442.939)" fill="#212024"/>
<rect x="175.768" y="434.471" width="4" height="12" rx="1" transform="rotate(-133.504 175.768 434.471)" fill="#212024"/>
<rect x="167.633" y="425.516" width="4" height="12" rx="1" transform="rotate(-130.06 167.633 425.516)" fill="#212024"/>
<rect x="160.042" y="416.029" width="4" height="12" rx="1" transform="rotate(-126.426 160.042 416.029)" fill="#212024"/>
<rect x="153.071" y="406.092" width="4" height="12" rx="1" transform="rotate(-122.818 153.071 406.092)" fill="#212024"/>
<rect x="146.675" y="395.637" width="4" height="12" rx="1" transform="rotate(-119.023 146.675 395.637)" fill="#212024"/>
<rect x="141.012" y="384.902" width="4" height="12" rx="1" transform="rotate(-115.459 141.012 384.902)" fill="#212024"/>
<rect x="136.035" y="373.846" width="4" height="12" rx="1" transform="rotate(-111.908 136.035 373.846)" fill="#212024"/>
<rect x="131.763" y="362.516" width="4" height="12" rx="1" transform="rotate(-108.366 131.763 362.516)" fill="#212024"/>
<rect x="128.206" y="350.953" width="4" height="12" rx="1" transform="rotate(-104.827 128.206 350.953)" fill="#212024"/>
<rect x="125.376" y="339.205" width="4" height="12" rx="1" transform="rotate(-101.285 125.376 339.205)" fill="#212024"/>
<rect x="123.234" y="327.008" width="4" height="12" rx="1" transform="rotate(-97.5243 123.234 327.008)" fill="#212024"/>
<rect x="121.9" y="314.969" width="4" height="12" rx="1" transform="rotate(-93.9577 121.9 314.969)" fill="#212024"/>
<rect x="121.322" y="302.859" width="4" height="12" rx="1" transform="rotate(-90.3717 121.322 302.859)" fill="#212024"/>
<rect x="121.504" y="290.719" width="4" height="12" rx="1" transform="rotate(-86.7624 121.504 290.719)" fill="#212024"/>
<rect x="122.454" y="278.576" width="4" height="12" rx="1" transform="rotate(-83.1273 122.454 278.576)" fill="#212024"/>
<rect x="124.181" y="266.463" width="4" height="12" rx="1" transform="rotate(-79.4649 124.181 266.463)" fill="#212024"/>
<rect x="126.565" y="254.947" width="4" height="12" rx="1" transform="rotate(-75.9933 126.565 254.947)" fill="#212024"/>
<rect x="129.829" y="243.008" width="4" height="12" rx="1" transform="rotate(-72.2804 129.829 243.008)" fill="#212024"/>
<rect x="133.674" y="231.781" width="4" height="12" rx="1" transform="rotate(-68.7662 133.674 231.781)" fill="#212024"/>
<rect x="138.233" y="220.732" width="4" height="12" rx="1" transform="rotate(-65.2377 138.233 220.732)" fill="#212024"/>
<rect x="144.234" y="208.525" width="4" height="12" rx="1" transform="rotate(-61.2584 144.234 208.525)" fill="#212024"/>
<rect x="150.27" y="198.039" width="4" height="12" rx="1" transform="rotate(-57.7221 150.27 198.039)" fill="#212024"/>
<rect x="156.843" y="188.086" width="4" height="12" rx="1" transform="rotate(-54.195 156.843 188.086)" fill="#212024"/>
<rect x="163.906" y="178.691" width="4" height="12" rx="1" transform="rotate(-50.683 163.906 178.691)" fill="#212024"/>
<rect x="172.024" y="169.203" width="4" height="12" rx="1" transform="rotate(-46.9729 172.024 169.203)" fill="#212024"/>
<rect x="180.67" y="160.332" width="4" height="12" rx="1" transform="rotate(-43.2883 180.67 160.332)" fill="#212024"/>
<rect x="189.798" y="152.096" width="4" height="12" rx="1" transform="rotate(-39.6307 189.798 152.096)" fill="#212024"/>
<rect x="198.548" y="145.117" width="4" height="12" rx="1" transform="rotate(-36.2131 198.548 145.117)" fill="#212024"/>
<rect x="208.443" y="138.162" width="4" height="12" rx="1" transform="rotate(-32.6067 208.443 138.162)" fill="#212024"/>
<rect x="219.64" y="131.346" width="4" height="12" rx="1" transform="rotate(-28.813 219.64 131.346)" fill="#212024"/>
<rect x="230.273" y="125.775" width="4" height="12" rx="1" transform="rotate(-25.2494 230.273 125.775)" fill="#212024"/>
<rect x="241.19" y="120.891" width="4" height="12" rx="1" transform="rotate(-21.6995 241.19 120.891)" fill="#212024"/>
<rect x="252.357" y="116.695" width="4" height="12" rx="1" transform="rotate(-18.158 252.357 116.695)" fill="#212024"/>
<rect x="263.745" y="113.197" width="4" height="12" rx="1" transform="rotate(-14.6188 263.745 113.197)" fill="#212024"/>
<rect x="275.324" y="110.402" width="4" height="12" rx="1" transform="rotate(-11.0762 275.324 110.402)" fill="#212024"/>
<rect x="288.325" y="108.146" width="4" height="12" rx="1" transform="rotate(-7.31496 288.325 108.146)" fill="#212024"/>
<rect x="300.249" y="106.861" width="4" height="12" rx="1" transform="rotate(-3.74734 300.249 106.861)" fill="#212024"/>
<rect x="312.289" y="106.316" width="4" height="12" rx="1" transform="rotate(-0.16005 312.289 106.316)" fill="#212024"/>
<rect x="324.422" y="106.525" width="4" height="12" rx="1" transform="rotate(3.45067 324.422 106.525)" fill="#212024"/>
<rect x="336.628" y="107.514" width="4" height="12" rx="1" transform="rotate(7.08742 336.628 107.514)" fill="#212024"/>
<rect x="348.888" y="109.301" width="4" height="12" rx="1" transform="rotate(10.7514 348.888 109.301)" fill="#212024"/>
<rect x="359.804" y="111.576" width="4" height="12" rx="1" transform="rotate(14.2245 359.804 111.576)" fill="#212024"/>
<rect x="372.105" y="114.961" width="4" height="12" rx="1" transform="rotate(17.9387 372.105 114.961)" fill="#212024"/>
<rect x="383.033" y="118.717" width="4" height="12" rx="1" transform="rotate(21.4539 383.033 118.717)" fill="#212024"/>
<rect x="393.95" y="123.225" width="4" height="12" rx="1" transform="rotate(24.9832 393.95 123.225)" fill="#212024"/>
<rect x="406.829" y="129.598" width="4" height="12" rx="1" transform="rotate(28.9628 406.829 129.598)" fill="#212024"/>
<rect x="417.237" y="135.639" width="4" height="12" rx="1" transform="rotate(32.4987 417.237 135.639)" fill="#212024"/>
<rect x="427.021" y="142.141" width="4" height="12" rx="1" transform="rotate(36.025 427.021 142.141)" fill="#212024"/>
<rect x="436.205" y="149.07" width="4" height="12" rx="1" transform="rotate(39.5359 436.205 149.07)" fill="#212024"/>
<rect x="445.851" y="157.361" width="4" height="12" rx="1" transform="rotate(43.2445 445.851 157.361)" fill="#212024"/>
<rect x="454.786" y="166.123" width="4" height="12" rx="1" transform="rotate(46.9276 454.786 166.123)" fill="#212024"/>
<rect x="463.027" y="175.318" width="4" height="12" rx="1" transform="rotate(50.5836 463.027 175.318)" fill="#212024"/>
<rect x="470.583" y="184.918" width="4" height="12" rx="1" transform="rotate(54.2125 470.583 184.918)" fill="#212024"/>
<rect x="477.46" y="194.893" width="4" height="12" rx="1" transform="rotate(57.816 477.46 194.893)" fill="#212024"/>
<rect x="483.661" y="205.211" width="4" height="12" rx="1" transform="rotate(61.3971 483.661 205.211)" fill="#212024"/>
<rect x="489.188" y="215.85" width="4" height="12" rx="1" transform="rotate(64.9597 489.188 215.85)" fill="#212024"/>
<rect x="494.037" y="226.781" width="4" height="12" rx="1" transform="rotate(68.509 494.037 226.781)" fill="#212024"/>
<rect x="498.202" y="237.982" width="4" height="12" rx="1" transform="rotate(72.0502 498.202 237.982)" fill="#212024"/>
<rect x="501.673" y="249.422" width="4" height="12" rx="1" transform="rotate(75.5894 501.673 249.422)" fill="#212024"/>
<rect x="504.659" y="262.197" width="4" height="12" rx="1" transform="rotate(79.3411 504.659 262.197)" fill="#212024"/>
<rect x="506.635" y="274.016" width="4" height="12" rx="1" transform="rotate(82.8944 506.635 274.016)" fill="#212024"/>
<rect x="507.88" y="285.982" width="4" height="12" rx="1" transform="rotate(86.4631 507.88 285.982)" fill="#212024"/>
<rect x="508.38" y="298.064" width="4" height="12" rx="1" transform="rotate(90.0517 508.38 298.064)" fill="#212024"/>
<rect x="508.119" y="310.227" width="4" height="12" rx="1" transform="rotate(93.6639 508.119 310.227)" fill="#212024"/>
<rect x="507.081" y="322.428" width="4" height="12" rx="1" transform="rotate(97.3022 507.081 322.428)" fill="#212024"/>
<rect x="505.252" y="334.625" width="4" height="12" rx="1" transform="rotate(100.968 505.252 334.625)" fill="#212024"/>
<rect x="502.84" y="345.902" width="4" height="12" rx="1" transform="rotate(104.442 502.84 345.902)" fill="#212024"/>
<rect x="499.442" y="358.004" width="4" height="12" rx="1" transform="rotate(108.158 499.442 358.004)" fill="#212024"/>
<rect x="495.526" y="369.18" width="4" height="12" rx="1" transform="rotate(111.674 495.526 369.18)" fill="#212024"/>
<rect x="490.862" y="380.256" width="4" height="12" rx="1" transform="rotate(115.204 490.862 380.256)" fill="#212024"/>
<rect x="168.609" y="179.075" width="372" height="87" transform="rotate(28.2993 168.609 179.075)" stroke="#212024" stroke-width="15"/>
<path d="M173.614 189.819C225.7 123.93 319.991 103.285 397.598 145.07C475.205 186.856 509.876 276.938 483.544 356.694M446.784 419.576C393.454 478.008 304.541 494.746 230.723 455.001C156.904 415.255 121.932 331.813 141.354 255.124" stroke="#212024" stroke-width="2"/>
<path d="M239.678 353.648L239.197 353.389L239.469 352.076C239.488 352.003 239.507 351.909 239.527 351.796C239.867 349.971 239.46 348.748 238.304 348.125L234.452 346.051L231.211 352.07L236.171 354.741L235.795 355.439L230.835 352.768L227.348 359.245L231.2 361.319C231.473 361.466 231.752 361.564 232.036 361.613C232.969 361.764 234.004 361.265 235.139 360.117L236.086 359.167L236.567 359.426L234.114 363.695L223.015 357.719L223.352 357.093L225.278 358.13L232.381 344.936L230.455 343.899L230.792 343.273L241.891 349.249L239.678 353.648Z" fill="black"/>
<path d="M249.174 366.928C248.647 367.907 247.848 368.564 246.777 368.898C245.23 369.349 243.534 369.078 241.688 368.084C240.115 367.237 238.931 366.071 238.136 364.587C237.955 364.924 237.813 365.149 237.712 365.26C237.527 365.45 237.242 365.441 236.856 365.234L239.54 360.25L240.262 360.639C238.936 363.755 239.492 365.99 241.931 367.345C242.557 367.682 243.187 367.876 243.822 367.928C245.181 368.018 246.163 367.502 246.768 366.378C247.001 365.945 247.113 365.487 247.103 365.006C247.072 364.14 246.507 362.998 245.409 361.578C244.215 360.065 243.52 359.163 243.325 358.872C242.274 357.209 242.112 355.703 242.838 354.355C243.322 353.456 244.066 352.843 245.071 352.514C246.553 352.07 248.16 352.314 249.894 353.248C251.322 354.017 252.438 355.021 253.24 356.261C253.344 356.068 253.442 355.924 253.535 355.829C253.729 355.623 254.018 355.624 254.403 355.831L252.135 360.044L251.413 359.655C251.913 358.765 252.098 357.882 251.97 357.005C251.756 355.71 250.975 354.699 249.627 353.974C249.081 353.68 248.536 353.5 247.992 353.435C246.724 353.29 245.8 353.756 245.221 354.831C245.005 355.232 244.899 355.661 244.901 356.118C244.924 356.959 245.486 358.069 246.586 359.448C247.788 360.985 248.498 361.916 248.716 362.241C249.79 363.937 249.943 365.499 249.174 366.928Z" fill="black"/>
<path d="M258.502 376.826L251.881 373.262L252.218 372.636L254.506 373.867L261.609 360.674L260.309 359.974C259.022 359.404 257.697 359.768 256.337 361.064L255.083 362.47L254.409 362.107L257.083 357.429L268.977 363.833L266.543 368.641L265.869 368.278L266.352 366.457C266.354 366.416 266.372 366.364 266.406 366.3C266.82 364.493 266.376 363.24 265.076 362.54L263.68 361.788L256.576 374.982L258.213 375.863C258.294 375.907 258.37 375.958 258.441 376.017C258.672 376.204 258.692 376.473 258.502 376.826Z" fill="black"/>
<path d="M266.418 379.66C266.323 379.836 266.187 379.991 266.012 380.125C265.537 380.469 265.042 380.503 264.529 380.226C264.352 380.131 264.197 379.996 264.064 379.821C263.719 379.346 263.685 378.851 263.962 378.337C264.057 378.161 264.192 378.006 264.367 377.873C264.835 377.503 265.334 377.461 265.864 377.747C266.04 377.842 266.187 377.973 266.305 378.139C266.665 378.623 266.703 379.13 266.418 379.66Z" fill="black"/>
<path d="M274.553 383.295L279.994 386.225C280.331 386.406 280.605 386.533 280.815 386.604C281.325 386.734 281.819 386.565 282.298 386.099L283.383 385.006L283.841 385.252L281.615 389.271L272.442 384.332L272.701 383.85C272.952 383.385 273.282 382.983 273.692 382.645C274.428 382.047 275.626 381.668 277.287 381.506C279.062 381.323 280.052 381.214 280.257 381.18C282.209 380.823 283.587 379.898 284.391 378.405C284.546 378.117 284.669 377.831 284.759 377.548C285.195 376.085 284.699 374.969 283.27 374.2C282.741 373.915 282.266 373.815 281.848 373.9C281.38 374 280.865 374.457 280.302 375.272C280.097 375.576 279.935 375.799 279.816 375.942C279.326 376.507 278.768 376.62 278.142 376.283C278.046 376.231 277.95 376.159 277.855 376.067C277.46 375.647 277.44 375.108 277.794 374.45C278.192 373.712 278.826 373.225 279.698 372.99C280.972 372.662 282.347 372.895 283.824 373.69C284.642 374.131 285.316 374.649 285.844 375.244C287.035 376.61 287.228 378.039 286.424 379.531C285.914 380.478 285.012 381.173 283.719 381.615C282.672 381.983 280.96 382.221 278.583 382.328C277.978 382.375 277.537 382.406 277.259 382.423C275.706 382.539 274.804 382.829 274.553 383.295Z" fill="black"/>
<path d="M296.367 380.444C297.346 380.971 298.092 381.683 298.603 382.579C299.718 384.546 299.506 386.958 297.968 389.815C297 391.613 295.795 392.889 294.353 393.645C292.596 394.562 290.859 394.559 289.141 393.634C288.066 393.055 287.275 392.236 286.769 391.176C285.834 389.183 286.097 386.829 287.558 384.117C288.517 382.335 289.721 381.079 291.171 380.348C292.918 379.487 294.65 379.519 296.367 380.444ZM289.551 393.047C289.807 393.185 290.065 393.283 290.325 393.339C292.082 393.768 293.928 392.184 295.864 388.589C296.797 386.856 297.354 385.437 297.534 384.333C297.768 382.823 297.25 381.727 295.982 381.044C295.597 380.837 295.209 380.711 294.819 380.666C293.154 380.453 291.426 382.007 289.637 385.33C288.903 386.694 288.406 387.886 288.147 388.906C287.638 390.889 288.106 392.269 289.551 393.047Z" fill="black"/>
<path d="M307.77 386.894L309.046 387.581L302.629 399.499L305.005 401.027C305.07 401.061 305.129 401.104 305.185 401.154C305.439 401.374 305.471 401.66 305.281 402.014L296.951 397.528L297.288 396.902L300.703 398.462L306.316 388.037L301.264 388.422L301.207 387.491L307.77 386.894Z" fill="black"/>
<path d="M319.151 403.767C318.511 404.955 317.614 405.776 316.458 406.23C314.939 406.82 313.37 406.679 311.748 405.806C310.721 405.253 309.985 404.525 309.539 403.623C308.53 401.651 308.86 399.116 310.528 396.019C311.522 394.173 312.694 392.765 314.045 391.794C316.171 390.268 318.333 390.097 320.532 391.281C321.399 391.748 322.095 392.319 322.621 392.996C323.421 394.048 323.583 395.015 323.108 395.898C323.056 395.994 322.996 396.086 322.928 396.174C322.488 396.723 321.946 396.825 321.304 396.48C321.064 396.35 320.881 396.189 320.756 395.998C320.57 395.691 320.609 395.194 320.875 394.509C320.982 394.194 321.059 393.956 321.104 393.794C321.284 392.96 320.901 392.287 319.954 391.777C319.184 391.363 318.416 391.27 317.65 391.5C316.398 391.902 314.945 393.449 313.289 396.139C314.551 395.949 315.772 396.161 316.952 396.776C317.899 397.286 318.637 397.973 319.165 398.837C320.089 400.39 320.084 402.034 319.151 403.767ZM311.148 399.769C310.794 400.427 310.558 401.076 310.441 401.717C310.189 403.3 310.721 404.446 312.037 405.154C312.262 405.275 312.492 405.368 312.726 405.432C314.376 405.906 315.844 404.947 317.132 402.556C317.521 401.834 317.766 401.148 317.867 400.498C318.066 399.053 317.547 397.997 316.311 397.332C315.926 397.124 315.518 396.998 315.087 396.952C313.542 396.824 312.229 397.763 311.148 399.769Z" fill="black"/>
<path d="M242.548 176.96L232.164 182.418L231.668 181.474L234.573 179.947L224.115 160.051L221.211 161.578L220.715 160.634L237.452 151.837L241.068 158.276L240.342 158.658L238.937 157.219C238.862 157.135 238.762 157.033 238.637 156.913C236.653 154.96 234.789 154.441 233.047 155.357L227.238 158.41L232.008 167.487L239.487 163.556L240.041 164.608L232.562 168.539L237.695 178.306L242.052 176.016L242.548 176.96Z" fill="#212024"/>
<path d="M260.081 169.432L250.717 173.077L250.33 172.083L253.388 170.893L245.236 149.947L242.178 151.137L241.791 150.143L251.156 146.498L251.542 147.492L248.523 148.667L256.675 169.613L258.701 168.825C258.828 168.775 258.961 168.738 259.098 168.714C259.535 168.632 259.863 168.871 260.081 169.432Z" fill="#212024"/>
<path d="M273.267 141.307L273.014 140.271L281.183 138.278L281.436 139.314L278.248 140.091L283.78 162.764L282.045 163.61L261.582 147.747L266.083 166.196L268.434 165.622C268.567 165.59 268.703 165.571 268.843 165.565C269.287 165.541 269.581 165.821 269.723 166.405L261.555 168.399L261.302 167.363L264.49 166.585L259.161 144.749L255.974 145.527L255.721 144.491L261.259 143.139L281.01 158.332L276.654 140.48L273.267 141.307Z" fill="#212024"/>
<path d="M285.986 137.618L297.405 136.88C300.189 136.7 302.673 137.196 304.859 138.37C308.438 140.331 310.38 143.658 310.683 148.351C310.918 151.98 309.935 155.003 307.735 157.42C305.51 159.865 302.555 161.207 298.871 161.446L287.574 162.176L287.506 161.112L290.78 160.9L289.329 138.471L286.055 138.683L285.986 137.618ZM297.351 137.952L292.849 138.243L294.3 160.673L298.925 160.374C299.471 160.338 300 160.263 300.513 160.147C305.106 159.138 307.183 155.236 306.743 148.442C306.615 146.45 306.299 144.744 305.796 143.324C304.477 139.464 301.663 137.673 297.351 137.952Z" fill="#212024"/>
<path d="M338.772 163.991L328.864 162.315L329.042 161.263L332.277 161.811L333.734 153.197L328.423 138.363L326.199 137.987L326.377 136.935L335.516 138.481L335.338 139.533L332.265 139.013L336.704 151.869L344.842 141.14L341.607 140.593L341.785 139.541L348.983 140.759C348.96 140.894 348.924 141.026 348.874 141.157C348.72 141.574 348.347 141.733 347.754 141.633C346.913 141.518 346.122 141.773 345.378 142.396L337.24 153.374L335.715 162.392L337.898 162.762C338.033 162.784 338.166 162.821 338.296 162.87C338.714 163.024 338.872 163.398 338.772 163.991Z" fill="#212024"/>
<path d="M366.107 145.699C368.742 146.613 370.803 148.181 372.289 150.404C374.49 153.656 374.851 157.414 373.373 161.677C372.11 165.319 369.853 167.865 366.601 169.313C363.689 170.618 360.708 170.742 357.66 169.685C354.947 168.745 352.831 167.085 351.312 164.706C349.232 161.438 348.918 157.712 350.369 153.526C351.624 149.909 353.855 147.398 357.062 145.993C359.992 144.722 363.007 144.624 366.107 145.699ZM358.152 168.641C359.185 168.999 360.209 169.137 361.221 169.054C364.822 168.768 367.599 165.81 369.552 160.178C371.998 153.038 370.686 148.561 365.614 146.744C364.891 146.493 364.18 146.333 363.48 146.264C359.419 145.956 356.323 148.876 354.191 155.025C353.546 156.885 353.158 158.588 353.027 160.135C352.698 164.506 354.406 167.342 358.152 168.641Z" fill="#212024"/>
<path d="M381.084 152.791L381.599 151.857L390.401 156.705L389.887 157.639L387.048 156.076L380.262 168.399C379.405 169.956 378.847 171.366 378.588 172.628C377.996 175.517 379.161 177.766 382.083 179.376C382.371 179.534 382.665 179.68 382.965 179.814C386.612 181.355 389.715 179.801 392.274 175.155L399.12 162.724L396.246 161.141L396.76 160.207L403.766 164.065L403.252 164.999L400.378 163.416L393.651 175.632C392.912 176.973 392.121 178.098 391.277 179.007C388.491 181.968 384.99 182.288 380.775 179.966C375.255 176.895 374.015 172.544 377.053 166.913L383.959 154.374L381.084 152.791Z" fill="#212024"/>
<path d="M400.191 192.262L392.317 186.018L392.98 185.183L395.551 187.221L409.516 169.61L406.945 167.571L407.608 166.736L417.121 174.279C418.792 175.604 419.889 177.102 420.413 178.774C421.041 180.843 420.718 182.68 419.444 184.287C418.917 184.951 418.26 185.494 417.472 185.916C415.431 186.95 413.197 186.906 410.771 185.785L409.37 198.18L410.591 199.148C410.741 199.267 410.861 199.38 410.952 199.486C411.158 199.754 411.074 200.124 410.7 200.595L405.847 196.747L407.713 183.832L404.66 181.411L398.315 189.413L400.854 191.426L400.191 192.262ZM415.494 174.35L412.28 171.801L405.399 180.479L408.71 183.104C409.674 183.868 410.749 184.25 411.936 184.249C413.687 184.242 415.174 183.466 416.398 181.924C416.941 181.238 417.32 180.474 417.534 179.632C418.017 177.572 417.336 175.811 415.494 174.35Z" fill="#212024"/>
<path d="M434.721 218.547C433.425 219.597 431.94 220.045 430.265 219.889C427.863 219.619 425.672 218.263 423.691 215.82C422.004 213.739 421.038 211.441 420.795 208.928C420.349 209.289 420.024 209.518 419.82 209.613C419.453 209.769 419.064 209.593 418.65 209.083L425.245 203.735L426.02 204.691C422.384 208.238 421.862 211.654 424.454 214.938C425.126 215.766 425.886 216.399 426.734 216.838C428.564 217.748 430.222 217.601 431.709 216.395C432.282 215.93 432.701 215.362 432.966 214.689C433.423 213.473 433.302 211.565 432.601 208.965C431.823 206.182 431.383 204.532 431.281 204.016C430.788 201.107 431.433 198.929 433.217 197.482C434.406 196.517 435.792 196.098 437.372 196.225C439.68 196.465 441.764 197.733 443.624 200.027C445.157 201.917 446.12 203.952 446.515 206.131C446.77 205.925 446.989 205.782 447.172 205.704C447.559 205.531 447.96 205.699 448.373 206.209L442.798 210.73L442.023 209.774C443.23 208.831 443.997 207.715 444.326 206.428C444.779 204.511 444.282 202.661 442.835 200.877C442.25 200.155 441.599 199.592 440.883 199.186C439.212 198.254 437.664 198.364 436.241 199.518C435.71 199.949 435.314 200.481 435.054 201.115C434.6 202.292 434.737 204.153 435.462 206.698C436.237 209.52 436.682 211.218 436.796 211.794C437.303 214.763 436.611 217.014 434.721 218.547Z" fill="#212024"/>
<path d="M439.375 238.261L433.622 228.56L434.539 228.016L436.526 231.367L455.859 219.901L454.729 217.996C453.514 216.269 451.531 215.713 448.779 216.327L446.081 217.165L445.495 216.177L452.55 212.231L462.885 229.659L456.04 233.957L455.454 232.969L457.483 231.003C457.516 230.951 457.58 230.898 457.674 230.842C459.602 228.84 460.001 226.887 458.872 224.982L457.658 222.935L438.326 234.401L439.748 236.8C439.818 236.917 439.876 237.042 439.922 237.174C440.075 237.592 439.893 237.954 439.375 238.261Z" fill="#212024"/>
<path d="M448.248 257.712L444.429 248.417L445.415 248.012L446.662 251.047L454.743 247.726L464.52 235.37L463.663 233.284L464.649 232.879L468.173 241.452L467.186 241.858L466.002 238.974L457.441 249.543L470.85 250.773L469.603 247.738L470.589 247.332L473.365 254.085C473.238 254.137 473.107 254.176 472.97 254.203C472.534 254.294 472.202 254.061 471.973 253.504C471.625 252.731 470.991 252.193 470.069 251.892L456.447 250.794L447.987 254.271L448.829 256.32C448.881 256.446 448.921 256.578 448.947 256.715C449.038 257.151 448.805 257.483 448.248 257.712Z" fill="#212024"/>
<path d="M454.968 280.717L450.438 263.333L451.47 263.064L452.298 266.239L474.048 260.572L473.221 257.397L474.252 257.128L476.838 267.05L475.806 267.319L474.937 263.985L453.187 269.653L454.604 275.09C454.68 275.381 454.786 275.679 454.921 275.983C455.651 277.375 457.316 278.071 459.916 278.072L462.751 278.054L462.958 278.847L454.968 280.717Z" fill="#212024"/>
<path d="M474.771 299.944L474.677 299.129L476.526 298.338C476.632 298.298 476.763 298.242 476.92 298.168C479.457 297.023 480.614 295.472 480.388 293.516L479.638 286.997L469.451 288.17L470.418 296.564L469.236 296.7L468.269 288.306L457.309 289.569L458.06 296.088C458.113 296.55 458.231 296.977 458.413 297.369C459.029 298.647 460.53 299.492 462.917 299.905L464.898 300.255L464.992 301.07L457.634 301.711L455.47 282.927L456.53 282.805L456.905 286.065L479.234 283.493L478.858 280.233L479.918 280.111L482.081 298.895L474.771 299.944Z" fill="#212024"/>
<path d="M180.121 281.243C169.279 337.267 195.302 396.177 248.196 424.656C301.09 453.136 364.596 442.432 405.398 402.539M218.047 210.804C258.849 170.911 322.355 160.207 375.249 188.687C428.143 217.167 454.167 276.076 443.324 332.1" stroke="#212024" stroke-width="2"/>
<path d="M151.587 316.595L151.104 309.629L151.763 309.584L151.93 311.99L165.81 311.027L165.715 309.659C165.524 308.366 164.582 307.506 162.89 307.081L161.164 306.793L161.115 306.084L166.114 305.864L166.982 318.377L162.001 318.85L161.952 318.141L163.621 317.618C163.653 317.599 163.703 317.587 163.771 317.582C165.394 317.011 166.158 316.042 166.063 314.674L165.962 313.205L152.081 314.168L152.2 315.891C152.206 315.975 152.204 316.06 152.193 316.146C152.161 316.419 151.959 316.569 151.587 316.595Z" fill="black"/>
<path d="M154.629 337.397L153.703 331.992L154.354 331.88L154.633 333.507L159.166 330.798L158.27 325.568L153.094 324.522L153.304 325.749C153.318 325.832 153.324 325.917 153.322 326.003C153.317 326.279 153.131 326.448 152.764 326.511L152.001 322.056L152.652 321.945L152.922 323.521L168.247 326.667L168.406 327.593L155.023 335.784L155.168 336.635C155.183 336.719 155.189 336.803 155.186 336.89C155.182 337.165 154.996 337.334 154.629 337.397ZM159.845 330.399L165.498 327.009L159.043 325.719L159.845 330.399Z" fill="black"/>
<path d="M157.499 348.075L155.867 342.073L156.504 341.899L157.037 343.86L162.256 342.441L169.211 335.603L168.845 334.255L169.482 334.082L170.987 339.619L170.35 339.793L169.844 337.931L163.773 343.765L171.916 345.55L171.383 343.59L172.02 343.417L173.206 347.778C173.124 347.801 173.04 347.815 172.954 347.82C172.679 347.843 172.493 347.674 172.395 347.315C172.241 346.813 171.893 346.434 171.35 346.178L163.067 344.457L157.603 345.942L157.963 347.265C157.985 347.347 157.999 347.431 158.005 347.517C158.027 347.792 157.858 347.978 157.499 348.075Z" fill="black"/>
<path d="M163.307 364.884L159.426 354.463L160.044 354.232L160.753 356.136L173.792 351.279L173.083 349.376L173.702 349.145L175.917 355.094L175.299 355.324L174.554 353.325L161.515 358.182L162.73 361.442C162.795 361.616 162.878 361.793 162.981 361.971C163.518 362.783 164.587 363.107 166.188 362.944L167.933 362.755L168.11 363.231L163.307 364.884Z" fill="black"/>
<path d="M181.61 367.605C182.368 369.157 182.587 370.745 182.269 372.369C181.815 374.757 180.332 376.564 177.823 377.789C175.678 378.836 173.576 378.967 171.516 378.183C169.668 377.484 168.306 376.237 167.43 374.442C166.65 372.845 166.447 371.193 166.819 369.485C167.333 367.144 168.822 365.371 171.287 364.168C173.416 363.129 175.492 363.001 177.513 363.785C179.353 364.506 180.719 365.78 181.61 367.605ZM168.102 374.199C168.399 374.807 168.788 375.314 169.269 375.72C170.974 377.167 173.484 377.081 176.8 375.463C180.991 373.398 182.37 370.86 180.938 367.848C180.73 367.423 180.488 367.042 180.211 366.706C178.563 364.798 175.929 364.727 172.309 366.494C171.214 367.029 170.3 367.607 169.567 368.228C167.514 370.003 167.026 371.993 168.102 374.199Z" fill="black"/>
<path d="M175.908 389.238L172.595 383.973L173.154 383.621L174.236 385.341L186.013 377.93L184.931 376.211L185.489 375.859L189.492 382.22C190.195 383.338 190.528 384.439 190.49 385.522C190.431 386.859 189.865 387.866 188.79 388.542C188.346 388.821 187.85 389.003 187.303 389.087C185.899 389.271 184.604 388.786 183.418 387.633L180.051 394.581L180.565 395.398C180.628 395.498 180.675 395.589 180.705 395.669C180.771 395.868 180.646 396.067 180.33 396.265L178.288 393.02L182.035 385.863L180.75 383.822L175.399 387.189L176.467 388.886L175.908 389.238ZM188.528 381.927L187.175 379.778L181.373 383.429L182.766 385.643C183.172 386.288 183.721 386.732 184.415 386.975C185.438 387.331 186.466 387.185 187.498 386.535C187.956 386.247 188.334 385.879 188.633 385.431C189.338 384.327 189.303 383.159 188.528 381.927Z" fill="black"/>
<path d="M186.354 394.263L189.805 398.911L188.847 399.623L185.395 394.975L186.354 394.263Z" fill="black"/>
<path d="M210.986 409.302L210.494 409.742L209.139 408.229L198.771 417.508L199.686 418.53C199.742 418.593 199.792 418.661 199.836 418.736C199.979 418.971 199.911 419.213 199.634 419.462L195.57 414.921L196.062 414.481L197.417 415.994L206.574 407.799L192.919 412.149L192.563 411.751L197.577 399.802L189.441 407.083L190.356 408.105C190.412 408.168 190.462 408.236 190.506 408.311C190.649 408.547 190.581 408.789 190.304 409.037L186.917 405.253L187.409 404.813L188.764 406.326L199.132 397.047L197.777 395.533L198.269 395.093L200.691 397.799L195.367 410.468L208.277 406.275L210.986 409.302Z" fill="black"/>
<path d="M212.82 431.138L208.713 427.503L209.151 427.009L210.386 428.102L212.225 423.152L208.251 419.635L203.56 422.062L204.492 422.886C204.555 422.942 204.613 423.005 204.665 423.073C204.835 423.291 204.796 423.539 204.549 423.818L201.164 420.823L201.602 420.328L202.8 421.389L216.718 414.244L217.421 414.866L212.117 429.634L212.763 430.206C212.827 430.262 212.884 430.324 212.937 430.393C213.106 430.611 213.067 430.859 212.82 431.138ZM212.504 422.415L214.788 416.232L208.948 419.269L212.504 422.415Z" fill="black"/>
<path d="M223.362 420.069L229.132 424.178C230.538 425.18 231.536 426.39 232.126 427.808C233.078 430.148 232.709 432.504 231.02 434.876C229.714 436.709 228.06 437.776 226.06 438.076C224.035 438.379 222.092 437.868 220.231 436.543L214.523 432.477L214.906 431.939L216.561 433.118L224.633 421.785L222.979 420.606L223.362 420.069ZM228.687 424.672L226.412 423.052L218.339 434.384L220.676 436.049C220.952 436.245 221.235 436.416 221.527 436.562C224.126 437.873 226.648 436.812 229.094 433.379C229.811 432.372 230.326 431.43 230.64 430.552C231.516 428.184 230.865 426.224 228.687 424.672Z" fill="black"/>
<path d="M245.442 439.679L245.001 439.428L245.281 438.215C245.3 438.147 245.319 438.061 245.34 437.956C245.695 436.269 245.342 435.125 244.282 434.523L240.75 432.517L237.615 438.036L242.163 440.619L241.799 441.26L237.251 438.676L233.878 444.615L237.41 446.622C237.661 446.764 237.917 446.861 238.18 446.913C239.043 447.072 240.014 446.631 241.093 445.589L241.991 444.727L242.433 444.977L240.065 448.889L229.887 443.108L230.213 442.534L231.979 443.537L238.851 431.438L237.085 430.435L237.411 429.861L247.589 435.642L245.442 439.679Z" fill="black"/>
<path d="M265.552 447.198C265.416 447.544 265.194 447.875 264.887 448.191C264.064 449.031 263.002 449.439 261.701 449.417C262.328 449.81 262.842 450.259 263.244 450.763C264.088 451.897 264.262 453.094 263.764 454.353C263.447 455.156 262.911 455.8 262.156 456.284C260.701 457.202 258.959 457.26 256.928 456.459L250.221 453.81L250.463 453.196L252.352 453.942L257.462 441L255.573 440.254L255.815 439.64L262.452 442.261C263.491 442.671 264.309 443.203 264.906 443.858C265.809 444.888 266.025 446.001 265.552 447.198ZM261.642 442.651L259.493 441.802L257.302 447.352L259.404 448.182C260.034 448.431 260.644 448.499 261.234 448.386C262.242 448.184 262.948 447.571 263.352 446.547C263.439 446.327 263.508 446.108 263.557 445.891C263.902 444.371 263.264 443.291 261.642 442.651ZM259.601 448.997L257.05 447.99L254.383 454.744L257.052 455.798C257.776 456.084 258.485 456.109 259.179 455.873C260.233 455.507 261 454.718 261.479 453.506C261.684 452.986 261.779 452.468 261.764 451.953C261.755 450.548 261.033 449.563 259.601 448.997Z" fill="black"/>
<path d="M278.8 463.45L273.527 461.942L273.709 461.307L275.295 461.761L274.82 456.501L269.718 455.042L266.532 459.254L267.728 459.596C267.809 459.619 267.888 459.65 267.965 459.69C268.212 459.813 268.284 460.054 268.181 460.412L263.836 459.169L264.018 458.534L265.555 458.974L275.033 446.527L275.936 446.785L277.517 462.397L278.347 462.634C278.428 462.657 278.507 462.689 278.584 462.728C278.83 462.852 278.902 463.092 278.8 463.45ZM274.754 455.717L274.149 449.153L270.189 454.411L274.754 455.717Z" fill="black"/>
<path d="M286.973 464.992L280.853 463.876L280.971 463.227L282.97 463.591L285.464 449.902L283.466 449.538L283.584 448.889L290.978 450.236C292.277 450.473 293.313 450.971 294.086 451.732C295.032 452.678 295.391 453.776 295.164 455.025C295.07 455.541 294.869 456.03 294.562 456.49C293.748 457.649 292.515 458.276 290.864 458.371L293.711 465.548L294.66 465.721C294.777 465.743 294.875 465.769 294.955 465.801C295.146 465.887 295.208 466.114 295.141 466.48L291.369 465.793L288.624 458.195L286.251 457.763L285.118 463.983L287.091 464.342L286.973 464.992ZM290.11 450.749L287.612 450.294L286.383 457.038L288.956 457.507C289.706 457.644 290.404 457.539 291.053 457.192C292.007 456.678 292.593 455.821 292.811 454.622C292.908 454.089 292.893 453.562 292.764 453.039C292.427 451.773 291.542 451.01 290.11 450.749Z" fill="black"/>
<path d="M310.034 455.924C310.003 456.295 309.885 456.676 309.682 457.066C309.135 458.107 308.235 458.803 306.982 459.156C307.696 459.352 308.318 459.634 308.847 460.002C309.981 460.846 310.491 461.942 310.377 463.292C310.304 464.152 309.975 464.922 309.39 465.603C308.261 466.9 306.608 467.456 304.433 467.272L297.247 466.661L297.303 466.004L299.327 466.175L300.505 452.311L298.481 452.139L298.537 451.482L305.646 452.086C306.759 452.18 307.696 452.455 308.456 452.91C309.617 453.637 310.143 454.642 310.034 455.924ZM304.983 452.692L302.681 452.496L302.176 458.442L304.427 458.633C305.102 458.69 305.706 458.58 306.239 458.303C307.147 457.819 307.647 457.029 307.74 455.933C307.76 455.697 307.763 455.468 307.748 455.245C307.642 453.691 306.72 452.839 304.983 452.692ZM304.85 459.357L302.118 459.125L301.503 466.36L304.362 466.603C305.138 466.669 305.824 466.49 306.421 466.065C307.326 465.411 307.833 464.435 307.944 463.136C307.991 462.579 307.933 462.056 307.771 461.567C307.359 460.224 306.385 459.487 304.85 459.357Z" fill="black"/>
<path d="M324.548 457.026L324.04 457.032L323.671 455.842C323.654 455.775 323.627 455.691 323.592 455.589C323.049 453.953 322.168 453.142 320.95 453.156L316.887 453.202L316.959 459.549L322.189 459.49L322.198 460.227L316.967 460.286L317.045 467.115L321.107 467.069C321.395 467.066 321.665 467.021 321.918 466.933C322.744 466.636 323.36 465.766 323.767 464.322L324.109 463.125L324.617 463.119L324.542 467.691L312.837 467.823L312.83 467.163L314.861 467.14L314.704 453.227L312.673 453.25L312.665 452.59L324.37 452.457L324.548 457.026Z" fill="black"/>
<path d="M335.278 466.812L329.094 467.479L329.023 466.823L331.042 466.605L329.55 452.771L327.531 452.989L327.46 452.333L334.932 451.527C336.245 451.385 337.38 451.569 338.337 452.079C339.513 452.718 340.169 453.669 340.305 454.931C340.361 455.453 340.307 455.978 340.143 456.506C339.692 457.849 338.688 458.8 337.131 459.359L341.897 465.434L342.857 465.331C342.974 465.318 343.076 465.315 343.162 465.323C343.37 465.352 343.493 465.551 343.533 465.922L339.721 466.333L334.934 459.826L332.535 460.085L333.213 466.371L335.208 466.156L335.278 466.812ZM334.246 452.265L331.721 452.537L332.456 459.353L335.057 459.072C335.814 458.991 336.454 458.692 336.977 458.176C337.746 457.412 338.065 456.424 337.935 455.212C337.876 454.674 337.712 454.172 337.44 453.708C336.758 452.59 335.693 452.109 334.246 452.265Z" fill="black"/>
<path d="M362.752 457.496C363.003 458.497 362.865 459.448 362.34 460.347C361.56 461.624 360.226 462.498 358.337 462.97C356.728 463.373 355.186 463.313 353.713 462.792C353.799 463.137 353.842 463.379 353.842 463.519C353.834 463.765 353.633 463.938 353.238 464.036L351.963 458.937L352.702 458.753C353.741 461.721 355.521 462.907 358.042 462.312C358.682 462.151 359.236 461.891 359.704 461.529C360.694 460.741 361.045 459.772 360.757 458.623C360.646 458.179 360.437 457.795 360.129 457.471C359.567 456.896 358.464 456.465 356.822 456.178C355.057 455.887 354.016 455.702 353.7 455.624C351.939 455.14 350.885 454.208 350.541 452.829C350.311 451.909 350.438 451.022 350.922 450.168C351.661 448.937 352.917 448.099 354.691 447.655C356.152 447.29 357.546 447.282 358.872 447.631C358.823 447.433 358.8 447.273 358.804 447.15C358.808 446.887 359.008 446.707 359.402 446.608L360.48 450.919L359.741 451.104C359.527 450.18 359.102 449.457 358.466 448.936C357.509 448.181 356.341 447.976 354.962 448.321C354.403 448.46 353.917 448.678 353.502 448.973C352.542 449.667 352.199 450.564 352.474 451.665C352.577 452.075 352.772 452.436 353.059 452.748C353.601 453.311 354.681 453.721 356.298 453.98C358.084 454.283 359.154 454.478 359.507 454.565C361.305 455.057 362.387 456.034 362.752 457.496Z" fill="black"/>
<path d="M372.833 458.364L366.991 460.502L366.764 459.882L368.672 459.184L363.889 446.117L361.982 446.816L361.755 446.196L367.596 444.058L367.823 444.677L365.94 445.367L368.122 451.328L375.442 448.649L373.26 442.688L371.352 443.386L371.125 442.766L376.967 440.628L377.194 441.248L375.31 441.937L380.093 455.003L381.357 454.541C381.436 454.512 381.518 454.491 381.604 454.477C381.876 454.432 382.075 454.584 382.203 454.934L376.362 457.072L376.135 456.452L378.042 455.754L375.695 449.34L368.375 452.019L370.722 458.433L371.986 457.971C372.065 457.942 372.148 457.92 372.233 457.907C372.505 457.862 372.705 458.014 372.833 458.364Z" fill="black"/>
<path d="M385.643 436.089C387.185 435.312 388.77 435.073 390.398 435.371C392.792 435.795 394.617 437.254 395.873 439.749C396.947 441.88 397.104 443.981 396.346 446.049C395.67 447.906 394.44 449.284 392.656 450.182C391.069 450.982 389.419 451.206 387.708 450.856C385.359 450.371 383.569 448.903 382.335 446.454C381.269 444.338 381.115 442.264 381.874 440.233C382.572 438.384 383.828 437.003 385.643 436.089ZM392.405 449.513C393.009 449.209 393.512 448.813 393.911 448.328C395.337 446.605 395.22 444.096 393.56 440.8C391.443 436.636 388.888 435.288 385.894 436.758C385.471 436.971 385.093 437.218 384.761 437.499C382.873 439.17 382.836 441.805 384.648 445.403C385.197 446.491 385.786 447.398 386.416 448.123C388.216 450.154 390.213 450.617 392.405 449.513Z" fill="black"/>
<path d="M400.047 428.874L397.717 430.367L401.553 436.353L403.52 435.093C403.691 434.983 403.857 434.866 404.019 434.742C405.554 433.498 405.727 431.949 404.54 430.096C404.266 429.669 403.953 429.306 403.602 429.009C402.5 428.106 401.316 428.061 400.047 428.874ZM407.719 441.268L402.032 444.912L401.676 444.356L403.386 443.26L395.879 431.546L394.168 432.642L393.812 432.086L400.14 428.031C401.052 427.446 401.936 427.1 402.793 426.994C404.384 426.778 405.631 427.376 406.536 428.787C406.956 429.443 407.176 430.116 407.196 430.806C407.291 432.616 406.169 434.269 403.832 435.767L401.95 436.973L405.225 442.082L406.807 441.068C406.878 441.023 406.954 440.984 407.034 440.953C407.29 440.849 407.518 440.954 407.719 441.268Z" fill="black"/>
<path d="M285.374 216.391C275.689 211.176 270.271 220.184 280.397 225.636L391.338 285.37C400.142 290.111 405.12 280.866 396.315 276.125" stroke="#212024"/>
<path d="M285.374 216.391C288.015 217.813 289.065 220.082 285.814 224.01" stroke="#212024"/>
<path d="M396.544 276.248C393.902 274.826 391.43 275.198 389.941 280.075" stroke="#212024"/>
<path d="M224.299 332.856C214.614 327.641 219.151 318.159 229.277 323.611L340.218 383.345C349.023 388.085 344.045 397.33 335.24 392.59" stroke="#212024"/>
<path d="M224.299 332.855C226.94 334.278 229.412 333.905 230.902 329.029" stroke="#212024"/>
<path d="M335.469 392.713C332.827 391.291 331.777 389.022 335.028 385.093" stroke="#212024"/>
<path d="M373.917 233.564C374.827 234.054 375.544 234.813 375.911 235.674C376.278 236.535 376.264 237.427 375.873 238.154C375.481 238.881 374.744 239.384 373.824 239.551C372.903 239.719 371.875 239.537 370.964 239.047C370.739 238.906 370.529 238.745 370.337 238.568L369.56 237.832C369.247 237.454 369.019 237.036 368.892 236.605L368.715 235.537C368.717 235.136 368.81 234.753 368.989 234.412C369.187 234.054 369.472 233.749 369.827 233.512C370.182 233.276 370.6 233.114 371.058 233.036C371.515 232.957 372.003 232.963 372.494 233.054C372.984 233.145 373.468 233.318 373.917 233.564ZM354.799 219.734C355.647 220.191 356.316 220.897 356.66 221.699C357.004 222.5 356.995 223.332 356.635 224.012C356.407 224.42 356.056 224.753 355.613 224.98C355.17 225.207 354.649 225.322 354.096 225.315L353.395 225.22C352.953 225.136 352.517 224.985 352.107 224.774C351.696 224.547 351.325 224.257 351.016 223.922L350.762 223.572C350.365 223.092 350.105 222.548 350.011 221.999C349.916 221.45 349.991 220.916 350.226 220.455C350.607 219.791 351.304 219.34 352.163 219.199C353.023 219.059 353.976 219.242 354.813 219.707L354.799 219.734ZM340.635 229.595L349.5 225.669C350.399 226.53 351.547 227.149 352.761 227.425L354.379 236.96L366.732 237.37C366.906 237.767 367.129 238.154 367.395 238.522L356.776 247.144L330.844 233.182L332.196 219.57C332.651 219.59 333.096 219.563 333.524 219.489L340.635 229.595ZM332.499 211.812C332.886 212.018 333.237 212.284 333.531 212.593C333.825 212.902 334.057 213.25 334.212 213.615C334.368 213.98 334.444 214.355 334.437 214.719C334.431 215.084 334.34 215.429 334.172 215.736C334.013 216.02 333.79 216.265 333.516 216.462L332.671 216.838C332.194 216.969 331.664 216.984 331.13 216.88C330.595 216.777 330.074 216.558 329.615 216.245C329.155 215.932 328.772 215.535 328.5 215.089C328.229 214.644 328.078 214.166 328.063 213.699C328.047 213.231 328.166 212.79 328.409 212.416C328.652 212.042 329.012 211.748 329.454 211.56C329.897 211.372 330.408 211.296 330.94 211.34C331.473 211.384 332.009 211.547 332.499 211.812ZM353.686 253.171L327.548 239.098L329.157 236.11L355.295 250.183L353.686 253.171Z" fill="#212024"/>
</svg>
