<svg width="38" height="42" viewBox="0 0 38 42" fill="none" xmlns="http://www.w3.org/2000/svg">
<path d="M37.2616 13.6562H31.6543V15.3746H37.2616V13.6562Z" fill="#32509F"/>
<path d="M33.6433 22.8812H27.3125V24.1474H34.2764C34.4443 24.1474 34.6053 24.0807 34.724 23.962C34.8427 23.8432 34.9094 23.6822 34.9094 23.5143V16.0078H33.6433V22.8812Z" fill="#32509F"/>
<path d="M5.60726 13.6562H0V15.3746H5.60726V13.6562Z" fill="#32509F"/>
<path d="M9.85789 22.8812H3.34623V16.0078H2.08008V23.5143C2.08008 23.6822 2.14678 23.8432 2.2655 23.962C2.38423 24.0807 2.54525 24.1474 2.71316 24.1474H9.85789V22.8812Z" fill="#32509F"/>
<path d="M20.4366 1.71835H21.4334V0H15.8262V1.71835H16.823H20.4366Z" fill="#32509F"/>
<path d="M12.4567 18.1778H24.8053C24.984 18.1754 25.1602 18.1362 25.3231 18.0625C25.4859 17.9889 25.6317 17.8824 25.7514 17.7497C25.8734 17.6172 25.9669 17.461 26.0263 17.2909C26.0856 17.1209 26.1095 16.9404 26.0964 16.7608L25.3155 5.42578H11.9465L11.1656 16.7663C11.1525 16.946 11.1764 17.1265 11.2358 17.2966C11.2951 17.4668 11.3886 17.623 11.5106 17.7556C11.6306 17.8874 11.7767 17.993 11.9395 18.0657C12.1023 18.1383 12.2784 18.1765 12.4567 18.1778Z" fill="#32509F"/>
<path d="M19.8065 2.98438H17.4551V4.16009H19.8065V2.98438Z" fill="#32509F"/>
<path d="M20.4392 21.0233V19.4453H16.8216V21.0233C17.9973 21.0781 19.2635 21.0781 20.4392 21.0233ZM25.0931 36.897L24.8974 38.7881C24.8807 38.9424 24.8068 39.0849 24.6902 39.1875C24.5737 39.29 24.4229 39.3451 24.2677 39.342H12.9931C12.8379 39.3451 12.6872 39.29 12.5706 39.1875C12.454 39.0849 12.3801 38.9424 12.3634 38.7881L12.1657 36.8842C9.27768 37.4888 8.18164 38.3532 8.18164 38.7856C8.18164 39.18 9.04896 39.8506 10.9532 40.3911C12.9824 40.9671 15.6922 41.2843 18.5822 41.2843C21.4722 41.2843 24.182 40.9671 26.2113 40.3911C28.1155 39.8506 28.9828 39.1764 28.9828 38.782C28.9828 38.3582 27.9133 37.5017 25.0931 36.897ZM18.6304 27.3421C17.5133 27.3421 16.3979 27.2947 15.2841 27.2001V28.7606H21.7958V27.2153C20.7433 27.2997 19.6881 27.3419 18.6304 27.3421Z" fill="#32509F"/>
<path d="M13.5636 38.0745H23.6957L24.5289 30.0254H12.7305L13.5636 38.0745Z" fill="#32509F"/>
<path d="M26.6803 25.2183V21.502C21.3709 22.6054 15.8914 22.6054 10.582 21.502V25.2183C15.8874 26.3599 21.3749 26.3599 26.6803 25.2183Z" fill="#32509F"/>
</svg>
