<svg width="41" height="33" viewBox="0 0 41 33" fill="none" xmlns="http://www.w3.org/2000/svg">
<path d="M32.6999 32.0583C31.1986 32.3333 29.6538 32.2239 28.2185 31.7408L28.0164 31.6742C18.6844 28.5314 10.3667 23.1106 3.85805 15.9297L2.61692 14.5588C1.34625 13.1575 0.600655 11.3785 0.498941 9.50543C0.397227 7.63233 0.945251 5.77287 2.05568 4.22338L3.62742 2.02589C4.94821 0.179261 7.55811 -0.297865 9.44536 0.962289L14.3972 4.26549C15.143 4.7655 15.6976 5.48953 15.9771 6.32791C16.2566 7.16628 16.2457 8.07333 15.9461 8.91165L14.8616 11.919C14.8389 11.9822 14.838 12.0507 14.8591 12.1141C14.8802 12.1774 14.9221 12.232 14.9785 12.2697L26.0034 19.624C26.0606 19.6613 26.1289 19.6794 26.1981 19.6757C26.2672 19.672 26.3336 19.6467 26.3871 19.6035L28.9115 17.5616L28.9127 17.5599C29.6187 16.993 30.4932 16.6624 31.4039 16.6181C32.3147 16.5737 33.2121 16.8181 33.9605 17.3142L38.9143 20.62C40.803 21.8799 41.2648 24.406 39.9438 26.2512L38.3021 28.5447C37.648 29.4561 36.8165 30.2355 35.8552 30.8384C34.8939 31.4413 33.8217 31.8559 32.6999 32.0583ZM6.83971 3.15325C6.53335 3.20926 6.24764 3.37823 6.05552 3.64683L4.48352 5.8429C3.75269 6.86277 3.39199 8.08662 3.4589 9.31945C3.52581 10.5523 4.01647 11.7232 4.85272 12.6455L6.09386 14.0165C12.2678 20.8286 20.1578 25.9714 29.01 28.9534L29.2122 29.0201C31.6638 29.8458 34.401 28.985 35.8726 26.924L37.5142 24.6306C37.6057 24.5027 37.6706 24.3589 37.705 24.2074C37.7395 24.0559 37.7429 23.8996 37.7151 23.7475C37.6873 23.5954 37.6288 23.4504 37.543 23.3209C37.4571 23.1913 37.3456 23.0798 37.2148 22.9926L32.261 19.6868C32.0431 19.5425 31.7819 19.4715 31.5169 19.4847C31.2518 19.4978 30.9975 19.5944 30.7923 19.7598L28.2679 21.8016C27.714 22.2472 27.0276 22.5072 26.3126 22.5424C25.5976 22.5775 24.8929 22.3858 24.3053 21.9963L13.2805 14.642C12.6949 14.2499 12.2595 13.6815 12.0404 13.0234C11.8213 12.3652 11.8305 11.6532 12.0665 10.9955L13.1513 7.98961C13.238 7.74586 13.241 7.48228 13.1597 7.23864C13.0785 6.995 12.9174 6.78452 12.7008 6.63898L7.7478 3.33746C7.61709 3.25013 7.46958 3.1889 7.31374 3.15729C7.15791 3.12568 6.99681 3.1243 6.83971 3.15325Z" fill="black"/>
</svg>
