<svg width="49" height="29" viewBox="0 0 49 29" fill="none" xmlns="http://www.w3.org/2000/svg">
<path d="M44.0985 28.6271H4.16024C1.86628 28.6271 0 27.1163 0 25.2592V3.3679C0 1.51084 1.86628 0 4.16024 0H44.0985C46.3925 0 48.2588 1.51084 48.2588 3.3679V25.2592C48.2588 27.1163 46.3925 28.6271 44.0985 28.6271ZM4.16024 1.34716C2.78362 1.34716 1.6641 2.25346 1.6641 3.3679V25.2592C1.6641 26.3737 2.78362 27.28 4.16024 27.28H44.0985C45.4752 27.28 46.5947 26.3737 46.5947 25.2592V3.3679C46.5947 2.25346 45.4752 1.34716 44.0985 1.34716H4.16024Z" fill="black"/>
<path d="M24.1293 15.1699C23.6143 15.1695 23.112 15.04 22.6916 14.799L0.833247 4.62631C0.641991 4.53721 0.502263 4.39027 0.444769 4.2178C0.387276 4.04533 0.416722 3.86144 0.526637 3.70654C0.636941 3.55191 0.818439 3.43897 1.03139 3.39245C1.24433 3.34593 1.47138 3.36962 1.6628 3.45833L23.6355 13.6897C23.7784 13.7751 23.9515 13.8212 24.1291 13.8212C24.3068 13.8212 24.4798 13.7751 24.6227 13.6897L24.701 13.6482L46.5959 3.45833C46.7867 3.37525 47.0101 3.35568 47.2184 3.40379C47.4268 3.4519 47.6038 3.56388 47.7118 3.71595C47.8198 3.86802 47.8503 4.0482 47.7969 4.21819C47.7434 4.38818 47.6101 4.53459 47.4254 4.62631L25.5671 14.799C25.1467 15.04 24.6444 15.1695 24.1293 15.1699Z" fill="black"/>
</svg>
