<svg width="189" height="111" viewBox="0 0 189 111" fill="none" xmlns="http://www.w3.org/2000/svg">
<g filter="url(#filter0_d_479_294)">
<path d="M47.4885 66.401C40.2116 67.7417 35.8072 71.5097 34.5147 73.2261C31.47 78.1741 24.0038 88.7424 18.4962 91.4325C12.9886 94.1226 9.13503 93.0752 7.8967 92.2152C5.15497 90.4619 3.11384 85.274 6.55602 83.5926C9.9982 81.9113 12.5697 87.1658 15.1297 86.0782C17.1776 85.2081 23.6046 76.4819 26.5622 72.2276C27.5606 70.7097 28.6394 68.0188 30.6138 65.693C33.8579 61.8717 36.9645 60.1491 41.289 57.8747C47.5023 54.7111 56.8845 51.6142 60.799 50.4613C72.6582 46.0794 102.786 35.1615 128.425 26.545C160.473 15.7743 157.739 18.2483 157.739 18.2483C157.739 18.2483 160.148 31.232 159.713 34.6999C159.277 38.1678 77.5222 65.2417 77.5222 65.2417C77.5222 65.2417 74.0801 66.9219 71.6943 66.6223C66.4562 62.0193 63.9703 61.6602 63.382 62.056C59.1735 63.4063 50.1029 66.1657 47.4885 66.401Z" fill="#141414"/>
</g>
<path fill-rule="evenodd" clip-rule="evenodd" d="M14 77C12.8954 77 12 77.8954 12 79V93C12 94.1046 12.8954 95 14 95H32.9691L15.8906 77H14ZM77.704 95H54.7917L39.5379 79.7694H63.2531L77.704 95ZM84.2728 79.7694L99.5266 95H122.441L107.99 79.7694H84.2728ZM106.677 78.3848H82.8861L81.4992 77H105.363L106.677 78.3848ZM129.01 79.7694L144.264 95H167.177L152.726 79.7694H129.01ZM151.413 78.3848H127.623L126.237 77H150.099L151.413 78.3848ZM61.9394 78.3848L60.6255 77H36.7644L38.1512 78.3848H61.9394ZM170.973 77L188.414 94.4147C188.776 94.0527 189 93.5525 189 93V79C189 77.8954 188.105 77 187 77H170.973Z" fill="#BA0810"/>
<path fill-rule="evenodd" clip-rule="evenodd" d="M54.7917 95H77.7041L63.2531 79.7694H39.538L54.7917 95ZM144.264 95L129.01 79.7694H152.727L167.177 95H144.264ZM127.623 78.3848H151.413L150.099 77H126.237L127.623 78.3848ZM60.6255 77L61.9394 78.3848H38.1513L36.7644 77H60.6255Z" fill="#32509F"/>
<defs>
<filter id="filter0_d_479_294" x="0.744629" y="18.0039" width="163.021" height="83.1523" filterUnits="userSpaceOnUse" color-interpolation-filters="sRGB">
<feFlood flood-opacity="0" result="BackgroundImageFix"/>
<feColorMatrix in="SourceAlpha" type="matrix" values="0 0 0 0 0 0 0 0 0 0 0 0 0 0 0 0 0 0 127 0" result="hardAlpha"/>
<feOffset dy="4"/>
<feGaussianBlur stdDeviation="2"/>
<feComposite in2="hardAlpha" operator="out"/>
<feColorMatrix type="matrix" values="0 0 0 0 0 0 0 0 0 0 0 0 0 0 0 0 0 0 0.25 0"/>
<feBlend mode="normal" in2="BackgroundImageFix" result="effect1_dropShadow_479_294"/>
<feBlend mode="normal" in="SourceGraphic" in2="effect1_dropShadow_479_294" result="shape"/>
</filter>
</defs>
</svg>
