<svg width="86" height="34" viewBox="0 0 86 34" fill="none" xmlns="http://www.w3.org/2000/svg">
<path fill-rule="evenodd" clip-rule="evenodd" d="M42.9996 21.3923C45.4844 24.8046 51.644 30.714 64.4994 30.714C71.3778 30.714 77.6649 27.7578 81.5963 23.983C84.4005 21.2909 85.9992 18.1612 85.9992 15.357C85.9992 6.35472 80.3417 4.68542 80.3417 4.68542C79.8272 4.51496 79.2605 4.62706 78.8505 4.98335C78.4405 5.33809 78.2485 5.88327 78.3453 6.41769C78.3453 6.41769 78.9887 9.68259 76.8618 11.6329C75.9158 12.5006 74.4308 13.0534 72.1779 13.0534C70.8664 13.0534 69.5119 12.5789 68.1267 11.8663C65.7786 10.6578 63.3845 8.75809 61.0502 6.86918C58.5654 4.85742 56.1467 2.85333 53.9307 1.56488C52.223 0.572817 50.6028 0 49.1424 0C46.0848 0 44.1422 1.13335 42.9996 2.18069C41.857 1.13335 39.9144 0 36.8568 0C35.3963 0 33.7762 0.572817 32.0685 1.56488C29.8525 2.85333 27.4337 4.85742 24.949 6.86918C22.6147 8.75809 20.2206 10.6578 17.8725 11.8663C16.4873 12.5789 15.1328 13.0534 13.8213 13.0534C11.5684 13.0534 10.0834 12.5006 9.13741 11.6329C7.01047 9.68259 7.65393 6.41769 7.65393 6.41769C7.75068 5.88327 7.55871 5.33809 7.14868 4.98335C6.73865 4.62706 6.17198 4.51496 5.65752 4.68542C5.65752 4.68542 0 6.35472 0 15.357C0 18.1612 1.59866 21.2909 4.40285 23.983C8.33424 27.7578 14.6214 30.714 21.4998 30.714C34.3551 30.714 40.5148 24.8046 42.9996 21.3923Z" fill="#35343B"/>
<path fill-rule="evenodd" clip-rule="evenodd" d="M42.2001 1.54031C41.4952 23.5515 27.7952 27.7025 11.0576 28.4212C14.1705 29.834 17.7471 30.714 21.5004 30.714C34.3557 30.714 40.5154 24.8046 43.0002 21.3923C45.4849 24.8046 51.6446 30.714 64.5 30.714C71.3784 30.714 77.6655 27.7578 81.5969 23.983C84.4011 21.2909 85.9998 18.1612 85.9998 15.357C85.9998 6.35472 80.3422 4.68542 80.3422 4.68542C79.8278 4.51496 79.2611 4.62706 78.8511 4.98335C78.441 5.33809 78.2491 5.88327 78.3458 6.41769C78.3458 6.41769 78.9893 9.68259 76.8623 11.6329C75.9164 12.5006 74.4313 13.0534 72.1785 13.0534C70.867 13.0534 69.5125 12.5789 68.1273 11.8663C65.7792 10.6578 63.385 8.75809 61.0508 6.86918C58.566 4.85742 56.1473 2.85333 53.9313 1.56488C52.2236 0.572817 50.6034 0 49.143 0C46.0854 0 44.1427 1.13335 43.0002 2.18069C42.7667 1.96723 42.5011 1.7507 42.2001 1.54031Z" fill="#212024"/>
<path fill-rule="evenodd" clip-rule="evenodd" d="M47.6327 12.5646C48.5587 17.5695 51.6992 21.2551 55.927 24.2835C56.615 24.7765 57.5748 24.6183 58.0693 23.9288C58.5623 23.2408 58.4041 22.281 57.7146 21.7865C54.1625 19.2418 51.432 16.2119 50.6519 12.0056C50.4983 11.1717 49.6967 10.6204 48.8628 10.7755C48.0289 10.9291 47.4776 11.7307 47.6327 12.5646ZM35.3471 12.0056C34.567 16.2119 31.8365 19.2418 28.2844 21.7865C27.5949 22.281 27.4367 23.2408 27.9297 23.9288C28.4242 24.6183 29.384 24.7765 30.072 24.2835C34.2998 21.2551 37.4403 17.5695 38.3663 12.5646C38.5214 11.7307 37.9701 10.9291 37.1362 10.7755C36.3023 10.6204 35.5007 11.1717 35.3471 12.0056ZM28.0341 14.3322C23.8278 19.0376 18.8906 21.507 12.6449 20.0066C11.8202 19.8085 10.9909 20.3168 10.7928 21.14C10.5947 21.9646 11.103 22.7939 11.9262 22.992C19.3712 24.7811 25.3098 21.9861 30.3223 16.3808C30.8874 15.7481 30.8337 14.776 30.2025 14.2124C29.5698 13.6473 28.5977 13.701 28.0341 14.3322ZM55.6767 16.3808C60.6892 21.9861 66.6278 24.7811 74.0729 22.992C74.896 22.7939 75.4043 21.9646 75.2062 21.14C75.0081 20.3168 74.1788 19.8085 73.3541 20.0066C67.1085 21.507 62.1712 19.0376 57.9649 14.3322C57.4013 13.701 56.4292 13.6473 55.7965 14.2124C55.1653 14.776 55.1116 15.7481 55.6767 16.3808ZM36.2931 4.71412C34.461 5.43589 32.7334 6.52778 31.1531 8.13873C30.5603 8.74226 30.5696 9.71589 31.1746 10.3102C31.7781 10.903 32.7518 10.8938 33.3461 10.2887C34.5992 9.01254 35.9675 8.14333 37.4203 7.57052C38.2081 7.26031 38.5967 6.36806 38.2849 5.57871C37.9747 4.7909 37.0825 4.40237 36.2931 4.71412ZM48.5787 7.57052C50.0315 8.14333 51.3998 9.01254 52.6529 10.2887C53.2472 10.8938 54.2209 10.903 54.8244 10.3102C55.4295 9.71589 55.4387 8.74226 54.8459 8.13873C53.2657 6.52778 51.538 5.43589 49.7059 4.71412C48.9166 4.40237 48.0243 4.7909 47.7141 5.57871C47.4024 6.36806 47.7909 7.26031 48.5787 7.57052Z" fill="black"/>
<path d="M18.0496 15.8649C18.8978 17.3339 21.8533 17.2153 24.6511 15.6C27.4489 13.9847 29.0294 11.4844 28.1812 10.0154C27.3331 8.54635 24.3775 8.66492 21.5797 10.2802C18.7819 11.8955 17.2015 14.3958 18.0496 15.8649Z" fill="#585858"/>
<path d="M5.17695 20.674C6.65159 20.2789 7.31316 17.9662 6.65461 15.5085C5.99607 13.0508 4.26678 11.3787 2.79214 11.7738C1.3175 12.1689 0.655928 14.4816 1.31448 16.9394C1.97302 19.3971 3.70231 21.0692 5.17695 20.674Z" fill="#585858"/>
<path d="M3.35778 16.5656C4.04841 16.3805 4.35842 15.2981 4.05022 14.1479C3.74202 12.9977 2.93232 12.2152 2.24169 12.4003C1.55107 12.5853 1.24106 13.6678 1.54926 14.818C1.85746 15.9682 2.66716 16.7506 3.35778 16.5656Z" fill="#8C8C8C"/>
<path d="M19.531 13.5362C19.9254 14.2193 21.3002 14.1639 22.6018 13.4125C23.9034 12.661 24.6388 11.4981 24.2444 10.815C23.85 10.1319 22.4752 10.1873 21.1736 10.9388C19.872 11.6902 19.1366 12.8531 19.531 13.5362Z" fill="#8C8C8C"/>
<path fill-rule="evenodd" clip-rule="evenodd" d="M57.9266 30.1512C58.0187 30.2725 58.1416 30.38 58.2798 30.4706C60.7523 32.1215 65.6972 33.8 70.6422 33.8C71.4868 33.8 72.1779 33.112 72.1779 32.2643C72.1779 31.4166 71.4868 30.7286 70.6422 30.7286C69.644 30.7286 68.6458 30.6534 67.6936 30.5183C73.2836 29.7811 78.2746 27.1796 81.5917 23.9977C84.4021 21.3056 85.9992 18.1758 85.9992 15.3716C85.9992 6.36937 80.3478 4.70007 80.3478 4.70007C79.8257 4.52961 79.2575 4.64171 78.8582 4.998C78.4435 5.35274 78.2439 5.89792 78.3514 6.43234C78.3514 6.43234 78.981 9.69724 76.8618 11.6476C75.9096 12.5152 74.4354 13.0681 72.1779 13.0681C71.2718 13.0681 70.335 12.8377 69.3829 12.4569C69.7054 12.4108 70.0279 12.3509 70.335 12.2772C72.5772 11.7366 74.2664 10.4973 75.1418 8.25521C75.4489 7.46586 75.065 6.57362 74.2818 6.26341C73.4832 5.9532 72.5925 6.34173 72.2854 7.13108C71.8093 8.35964 70.8418 8.99389 69.6133 9.29028C68.0622 9.66192 66.1579 9.55595 64.0694 9.26263C63.0558 8.504 62.0576 7.69315 61.0441 6.88383C58.5716 4.87207 56.1452 2.86798 53.9338 1.57953C52.2291 0.587463 50.6013 0.0146484 49.1424 0.0146484C43.4603 0.0146484 41.6328 3.93529 41.6328 3.93529C41.2489 4.69239 41.556 5.61688 42.3085 5.99466C43.0764 6.37398 43.9978 6.06684 44.3664 5.30821C44.3664 5.30821 45.6103 3.08605 49.1424 3.08605C50.1406 3.08605 51.2156 3.55751 52.3827 4.23629C54.4866 5.4541 56.7595 7.36604 59.1244 9.27031C61.6276 11.2974 64.2076 13.3138 66.7262 14.6115C68.5844 15.5697 70.4118 16.1395 72.1779 16.1395C75.4489 16.1395 77.5682 15.172 78.935 13.9112C80.4092 12.569 81.0389 10.8337 81.2999 9.31792C82.1446 10.4835 82.9278 12.377 82.9278 15.3716C82.9278 17.4817 81.5764 19.7576 79.4725 21.7832C76.0325 25.0849 70.5193 27.6572 64.4994 27.6572C55.3466 27.6572 50.0177 24.357 47.146 21.5129C46.5471 20.9171 45.5796 20.9201 44.9806 21.5206C44.3817 22.1226 44.3817 23.0962 44.996 23.6936C47.4531 26.1446 51.5381 28.9611 57.9266 30.1512ZM7.0335 26.1461C5.42102 25.8835 3.77782 25.389 2.11927 24.7026C1.33606 24.3785 0.445353 24.7502 0.122856 25.5334C-0.199641 26.3166 0.168927 27.2165 0.952134 27.5405C4.91424 29.1853 8.79956 29.8349 12.562 29.1699C12.6081 29.1592 12.6695 29.1438 12.731 29.1269C14.4816 29.7811 16.3706 30.2618 18.3209 30.5183C17.3534 30.6534 16.3552 30.7286 15.357 30.7286C14.5124 30.7286 13.8213 31.4166 13.8213 32.2643C13.8213 33.112 14.5124 33.8 15.357 33.8C20.302 33.8 25.2469 32.1215 27.7194 30.4706C27.8576 30.3816 27.9805 30.2741 28.0726 30.1558C40.7882 27.8077 44.4124 19.0481 44.4124 19.0481C44.7503 18.2695 44.3817 17.365 43.5985 17.0317C42.8307 16.697 41.9246 17.0594 41.5867 17.838C41.5867 17.838 37.21 27.6572 21.4998 27.6572C15.4799 27.6572 9.96669 25.0849 6.52672 21.7832C4.42282 19.7576 3.0714 17.4817 3.0714 15.3716C3.0714 12.377 3.85461 10.4835 4.69924 9.31638C4.96031 10.8337 5.58995 12.569 7.06422 13.9112C8.43099 15.172 10.5503 16.1395 13.8213 16.1395C15.5874 16.1395 17.4148 15.5697 19.273 14.6115C21.7916 13.3138 24.3716 11.2974 26.8747 9.27031C29.2397 7.36604 31.5126 5.4541 33.6165 4.23629C34.7836 3.55751 35.8586 3.08605 36.8568 3.08605C37.5786 3.08605 38.2082 3.17512 38.7611 3.32254C39.575 3.54369 40.4196 3.05994 40.65 2.24141C40.865 1.42289 40.3735 0.579787 39.5596 0.358647C38.7764 0.14672 37.8857 0.0146484 36.8568 0.0146484C35.3979 0.0146484 33.77 0.587463 32.0654 1.57953C29.854 2.86798 27.4276 4.87207 24.9551 6.88383C22.6209 8.77274 20.2252 10.6724 17.8755 11.881C16.4934 12.5936 15.1266 13.0681 13.8213 13.0681C11.5638 13.0681 10.0895 12.5152 9.13741 11.6476C7.01815 9.69724 7.64778 6.43234 7.64778 6.43234C7.75528 5.89792 7.55564 5.35274 7.15636 4.998C6.74172 4.64171 6.17351 4.52961 5.65137 4.70007C5.65137 4.70007 0 6.36937 0 15.3716C0 18.1758 1.59713 21.3056 4.40746 23.9977C5.19066 24.7517 6.06601 25.4735 7.0335 26.1461ZM81.7914 28.6647C82.0678 28.5909 82.3442 28.5111 82.6206 28.4251C83.4192 28.1748 84.2331 27.8784 85.0471 27.5405C85.8303 27.2165 86.2142 26.3166 85.8763 25.5334C85.5538 24.7502 84.6631 24.3785 83.8799 24.7026C83.1428 25.0036 82.421 25.2692 81.6992 25.4934C81.4689 25.5672 81.2232 25.6378 80.9928 25.7023C80.1635 25.9265 79.6875 26.7727 79.9178 27.5897C80.1328 28.4067 80.9774 28.8889 81.7914 28.6647ZM47.6374 12.5797C48.5588 17.5846 51.6916 21.2703 55.9302 24.2987C56.6212 24.7916 57.5734 24.6335 58.0648 23.9439C58.5562 23.2559 58.4027 22.2961 57.7116 21.8016C54.1641 19.257 51.4306 16.227 50.6474 12.0208C50.4938 11.1869 49.6952 10.6355 48.866 10.7907C48.0367 10.9442 47.4838 11.7459 47.6374 12.5797ZM35.3518 12.0208C34.5686 16.227 31.8351 19.257 28.2876 21.8016C27.5965 22.2961 27.443 23.2559 27.9344 23.9439C28.4258 24.6335 29.3779 24.7916 30.069 24.2987C34.3075 21.2703 37.4404 17.5846 38.3618 12.5797C38.5153 11.7459 37.9625 10.9442 37.1332 10.7907C36.3039 10.6355 35.5054 11.1869 35.3518 12.0208ZM28.0419 14.3473C23.8341 19.0527 18.8891 21.5221 12.6388 20.0217C11.8249 19.8236 10.9956 20.332 10.796 21.1551C10.5963 21.9798 11.1031 22.809 11.9324 23.0071C19.3652 24.7962 25.3083 22.0013 30.3147 16.396C30.8829 15.7632 30.8369 14.7911 30.2072 14.2275C29.5776 13.6624 28.5947 13.7162 28.0419 14.3473ZM55.6845 16.396C60.6909 22.0013 66.634 24.7962 74.0668 23.0071C74.8961 22.809 75.4029 21.9798 75.2032 21.1551C75.0036 20.332 74.1743 19.8236 73.3604 20.0217C67.1101 21.5221 62.1651 19.0527 57.9573 14.3473C57.4045 13.7162 56.4216 13.6624 55.792 14.2275C55.1623 14.7911 55.1163 15.7632 55.6845 16.396ZM15.2956 8.8956C14.5891 8.53318 14.0363 7.96497 13.7138 7.13108C13.4067 6.34173 12.516 5.9532 11.7174 6.26341C10.9342 6.57362 10.5503 7.46586 10.8574 8.25521C11.487 9.85541 12.5313 10.935 13.8827 11.6291C14.6352 12.0161 15.572 11.7167 15.9559 10.9627C16.3398 10.2086 16.0481 9.2826 15.2956 8.8956ZM36.2886 4.72925C34.4611 5.45102 32.7411 6.54291 31.1593 8.15386C30.5604 8.75739 30.5758 9.73102 31.1747 10.3253C31.7736 10.9181 32.7565 10.9089 33.34 10.3038C34.5993 9.02767 35.9661 8.15846 37.425 7.58565C38.2082 7.27544 38.5921 6.38319 38.285 5.59384C37.9779 4.80603 37.0871 4.4175 36.2886 4.72925ZM48.5742 7.58565C50.0331 8.15846 51.3999 9.02767 52.6591 10.3038C53.2427 10.9089 54.2256 10.9181 54.8245 10.3253C55.4234 9.73102 55.4388 8.75739 54.8398 8.15386C53.2581 6.54291 51.5381 5.45102 49.7106 4.72925C48.912 4.4175 48.0213 4.80603 47.7142 5.59384C47.4071 6.38319 47.791 7.27544 48.5742 7.58565Z" fill="black"/>
</svg>
