<svg width="262" height="49" viewBox="0 0 262 49" fill="none" xmlns="http://www.w3.org/2000/svg">
<path d="M40.4402 0H52.4094L46.6019 47.2393H33.4995L20.9638 26.0631C18.9099 22.7344 17.1393 19.1224 15.1562 14.3772V16.5019C15.1562 20.0431 15.0146 22.5219 14.6605 25.4256L11.9692 47.2393H0L5.80753 0H18.6974L32.1539 22.8052L34.2078 26.6296L36.0492 30.2416L36.9699 32.0122C37.0407 29.0376 37.1823 26.7005 37.5365 23.9384L40.4402 0Z" fill="white"/>
<path d="M82.9238 33.7828H59.2688C59.2688 34.916 59.2688 37.6781 60.8977 39.1654C61.4643 39.732 62.5975 40.3694 64.5097 40.3694C65.5012 40.3694 66.5636 40.1569 67.4843 39.5195C68.405 38.8821 68.8299 38.1031 69.0424 37.3948H81.7907C81.0116 39.732 79.7368 41.7151 78.3203 43.1315C74.2834 47.3101 68.3342 48.16 64.5805 48.16C57.9231 48.16 54.2403 45.6104 52.4697 43.9814C50.4158 41.9984 48.1495 38.4572 48.1495 32.7913C48.1495 26.7005 50.6283 22.3094 53.3196 19.6889C56.0817 16.9976 60.402 14.6605 66.8469 14.6605C72.7961 14.6605 76.5497 16.7852 78.8161 19.0515C82.0739 22.3094 83.0655 26.9838 83.0655 31.0915C83.0655 32.0122 82.9947 32.9329 82.9238 33.7828ZM60.0478 27.1962H71.0963C71.0255 25.7089 70.3881 24.2925 69.4674 23.4426C68.6175 22.6635 67.3427 22.1678 65.7845 22.1678C64.1556 22.1678 62.6683 22.8052 61.7476 23.7259C60.8269 24.6466 60.2603 26.0631 60.0478 27.1962Z" fill="white"/>
<path d="M126.023 15.5812H133.823L120.287 47.2393H111.929L108.813 35.9075C108.105 33.4287 107.751 31.7289 107.397 28.8252C106.476 31.2332 105.414 33.6412 104.493 35.3409L98.048 47.2393H89.4783L79.2089 15.5812H91.0364L94.2235 25.4256C94.9317 27.692 95.4983 29.8167 95.9941 32.7205C97.0564 29.8875 97.3397 29.1793 99.1103 25.9214L104.705 15.5812H112.496L115.541 25.1424C116.462 28.0461 116.887 29.7459 117.312 32.0122C118.162 29.8167 118.799 28.3294 119.862 26.488L126.023 15.5812Z" fill="white"/>
<path d="M165.029 47.4384H138.706C127.964 47.4384 121 39.5888 121 29.0833C121 14.6826 132.509 4.53118 146.26 4.53118H169.927L168.334 13.7382H144.667C136.876 13.7382 130.266 19.9353 130.266 28.021C130.266 33.982 134.22 38.2314 140.358 38.2314H157.474L159.009 29.2604H140.89L142.188 22.001H169.514L165.029 47.4384Z" fill="#FEE302"/>
<path d="M208.268 29.2604H185.486L186.785 22.001H209.566L208.268 29.2604ZM206.792 47.4384H167.78L175.335 4.53118H214.288L212.694 13.7382H182.889L178.581 38.2314H208.445L206.792 47.4384Z" fill="#FEE302"/>
<path d="M245.968 46.258L222.773 18.0467L217.638 47.4384H208.903L215.631 9.4298C216.222 6.06569 218.346 4 221.179 4C222.537 4 223.54 4.41314 224.602 5.71157L247.62 33.5098L252.932 4.11804H261.726L254.998 42.5398C254.407 45.9629 252.106 48.0286 249.391 48.0286C247.974 48.0286 246.971 47.4974 245.968 46.258Z" fill="#FEE302"/>
</svg>
