<svg width="229" height="288" viewBox="0 0 229 288" fill="none" xmlns="http://www.w3.org/2000/svg">
<g filter="url(#filter0_d_749_16)">
<path d="M55.9504 81.8098C47.2576 83.4662 41.9962 88.1213 40.4521 90.2418C36.815 96.3546 27.896 109.411 21.3167 112.735C14.7373 116.058 10.1339 114.764 8.65465 113.701C5.37941 111.535 2.9411 105.126 7.05309 103.049C11.1651 100.972 14.237 107.463 17.295 106.12C19.7415 105.045 27.4191 94.2641 30.9522 89.0081C32.1448 87.1329 33.4336 83.8084 35.7922 80.9351C39.6675 76.2141 43.3786 74.0859 48.5446 71.2761C55.9669 67.3676 67.1748 63.5416 71.851 62.1172C86.0178 56.7037 122.008 43.2154 152.636 32.5702C190.921 19.2637 187.655 22.3202 187.655 22.3202C187.655 22.3202 190.532 38.3608 190.012 42.6451C189.492 46.9295 91.8283 80.3775 91.8283 80.3775C91.8283 80.3775 87.7164 82.4533 84.8664 82.0832C78.609 76.3965 75.6393 75.9528 74.9367 76.4418C69.9093 78.11 59.0736 81.519 55.9504 81.8098Z" fill="black"/>
</g>
<path fill-rule="evenodd" clip-rule="evenodd" d="M15.5586 94.9043C14.454 94.9043 13.5586 95.7997 13.5586 96.9043V115.142C13.5586 116.247 14.454 117.142 15.5586 117.142H38.6078L18.2061 94.9043H15.5586ZM92.0473 117.142H64.6768L46.4547 98.3255H74.7843L92.0473 117.142ZM99.8941 98.3255L118.116 117.142H145.49L128.227 98.3255H99.8941ZM126.657 96.6149H98.2376L96.581 94.9043H125.088L126.657 96.6149ZM153.337 98.3255L171.559 117.142H198.931L181.668 98.3255H153.337ZM180.099 96.6149H151.68L150.023 94.9043H178.529L180.099 96.6149ZM73.2149 96.6149L71.6455 94.9043H43.1416L44.7981 96.6149H73.2149ZM203.465 94.9043L224.424 116.547C224.78 116.186 225 115.69 225 115.142V96.9043C225 95.7997 224.105 94.9043 223 94.9043H203.465Z" fill="#BA0810"/>
<path fill-rule="evenodd" clip-rule="evenodd" d="M64.6768 117.142H92.0473L74.7843 98.3255H46.4547L64.6768 117.142ZM171.559 117.142L153.337 98.3255H181.668L198.931 117.142H171.559ZM151.68 96.6149H180.099L178.529 94.9043H150.023L151.68 96.6149ZM71.6455 94.9043L73.2149 96.6149H44.7982L43.1416 94.9043H71.6455Z" fill="#32509F"/>
<path d="M24.5788 152.516H14.9298V151.258H18.2631V124.742H16.3684C14.5672 124.935 13.2924 126.613 12.5438 129.774L11.9824 133.016H11L11.1754 123.484H28.5086L28.6841 133.016H27.7016L27.1402 129.774C27.1168 129.71 27.1051 129.613 27.1051 129.484C26.4735 126.323 25.2104 124.742 23.3157 124.742H21.2806V151.258H23.6666C23.7835 151.258 23.9005 151.274 24.0174 151.306C24.3917 151.403 24.5788 151.806 24.5788 152.516Z" fill="black"/>
<path d="M50.4226 152.516H42.8438V151.258H45.1245L42.4929 141.871H35.1596L32.5281 151.258H34.2474C34.3643 151.258 34.4813 151.274 34.5982 151.306C34.9725 151.403 35.1596 151.806 35.1596 152.516H28.9141V151.258H31.1246L38.9842 123.484H40.2824L48.3174 151.258H49.5104C49.6273 151.258 49.7443 151.274 49.8612 151.306C50.2355 151.403 50.4226 151.806 50.4226 152.516ZM42.1069 140.468L38.8087 128.758L35.5456 140.468H42.1069Z" fill="black"/>
<path d="M63.5648 152.516H54.9684V151.258H57.7754V140.952L51.179 124.742H49.2492V123.484H57.1789V124.742H54.5123L60.0912 138.823L65.4245 124.742H62.6175V123.484H68.863C68.863 123.645 68.8513 123.806 68.8279 123.968C68.7578 124.484 68.4654 124.742 67.9508 124.742C67.2256 124.774 66.594 125.226 66.056 126.097L60.7578 140.468V151.258H62.6526C62.7695 151.258 62.8865 151.274 63.0034 151.306C63.3777 151.403 63.5648 151.806 63.5648 152.516Z" fill="black"/>
<path d="M84.6368 152.516H69.2685V151.258H72.0755V124.742H69.2685V123.484H78.0403V124.742H75.093V151.258H79.9C80.1573 151.258 80.4263 151.226 80.707 151.161C82.0169 150.742 82.9526 149.048 83.514 146.081L84.1105 142.839H84.8122L84.6368 152.516Z" fill="black"/>
<path d="M96.6211 123C99.007 123 101.112 123.952 102.937 125.855C105.627 128.629 106.972 132.677 106.972 138C106.972 142.548 105.861 146.258 103.639 149.129C101.65 151.71 99.276 153 96.5158 153C94.0597 153 91.8843 151.968 89.9895 149.903C87.3931 147.065 86.0948 143.032 86.0948 137.806C86.0948 133.29 87.1942 129.629 89.3931 126.823C91.4047 124.274 93.8141 123 96.6211 123ZM96.6211 151.645C97.5567 151.645 98.4222 151.403 99.2175 150.919C102.048 149.21 103.463 144.839 103.463 137.806C103.44 128.903 101.124 124.419 96.5158 124.355C95.8608 124.355 95.241 124.452 94.6562 124.645C91.2878 125.871 89.6036 130.323 89.6036 138C89.6036 140.323 89.7673 142.371 90.0948 144.145C91.0539 149.145 93.2293 151.645 96.6211 151.645Z" fill="black"/>
<path d="M117.904 152.516H109.307V151.258H112.114V124.742H109.307V123.484H119.693C121.518 123.484 123.05 124.065 124.289 125.226C125.81 126.677 126.57 128.613 126.57 131.032C126.57 132.032 126.418 133.016 126.114 133.984C125.295 136.435 123.775 138.032 121.553 138.774L127.202 151.258H128.535C128.699 151.258 128.839 151.274 128.956 151.306C129.237 151.403 129.377 151.806 129.377 152.516H124.079L118.465 139.21H115.132V151.258H117.904V152.516ZM118.64 124.742H115.132V137.806H118.746C119.798 137.806 120.722 137.371 121.518 136.5C122.687 135.21 123.272 133.403 123.272 131.081C123.272 130.048 123.12 129.065 122.816 128.129C122.044 125.871 120.652 124.742 118.64 124.742Z" fill="black"/>
<path d="M129.888 141.194H137.888V143.468H129.888V141.194Z" fill="black"/>
<path d="M166.854 123.484V124.742H164.047V151.258H165.942C166.059 151.258 166.176 151.274 166.293 151.306C166.667 151.403 166.854 151.806 166.854 152.516H158.433V151.258H161.24V127.839L153.135 152.758H152.398L144.714 130.452V151.258H146.609C146.726 151.258 146.843 151.274 146.96 151.306C147.334 151.403 147.521 151.806 147.521 152.516H140.504V151.258H143.311V124.742H140.504V123.484H145.521L153.661 147.145L161.24 123.484H166.854Z" fill="black"/>
<path d="M188.418 152.516H180.839V151.258H183.119L180.488 141.871H173.154L170.523 151.258H172.242C172.359 151.258 172.476 151.274 172.593 151.306C172.967 151.403 173.154 151.806 173.154 152.516H166.909V151.258H169.119L176.979 123.484H178.277L186.312 151.258H187.505C187.622 151.258 187.739 151.274 187.856 151.306C188.23 151.403 188.418 151.806 188.418 152.516ZM180.102 140.468L176.804 128.758L173.54 140.468H180.102Z" fill="black"/>
<path d="M188.823 123.484H198.612C200.998 123.484 203.092 124.258 204.893 125.806C207.84 128.387 209.314 132.452 209.314 138C209.314 142.29 208.308 145.774 206.296 148.452C204.261 151.161 201.665 152.516 198.507 152.516H188.823V151.258H191.63V124.742H188.823V123.484ZM198.507 124.742H194.647V151.258H198.612C199.08 151.258 199.536 151.21 199.981 151.113C203.957 150.274 205.946 145.839 205.946 137.806C205.946 135.452 205.77 133.419 205.419 131.71C204.507 127.065 202.203 124.742 198.507 124.742Z" fill="black"/>
<path d="M228 132.194H227.298L226.807 129.919C226.784 129.79 226.749 129.629 226.702 129.435C225.977 126.306 224.772 124.742 223.088 124.742H217.474V136.839H224.702V138.242H217.474V151.258H223.088C223.485 151.258 223.86 151.177 224.211 151.016C225.357 150.468 226.222 148.823 226.807 146.081L227.298 143.806H228L227.825 152.516H211.649V151.258H214.456V124.742H211.649V123.484H227.825L228 132.194Z" fill="black"/>
<g filter="url(#filter1_d_749_16)">
<path d="M72.4219 169.461C71.7031 169.891 70.9492 170.109 70.1602 170.117C69.082 170.117 68.207 169.758 67.5352 169.039C66.9023 168.344 66.5859 167.484 66.5859 166.461C66.5859 165.617 66.8125 164.871 67.2656 164.223C67.9219 163.309 68.8672 162.852 70.1016 162.852C70.4766 162.852 70.8438 162.895 71.2031 162.98C71.75 163.121 72.1367 163.305 72.3633 163.531C72.3633 163.32 72.375 163.168 72.3984 163.074C72.4375 162.965 72.543 162.91 72.7148 162.91L72.75 165.066H72.4688C72.4141 164.895 72.3477 164.727 72.2695 164.562C71.832 163.641 71.125 163.18 70.1484 163.18C69.7188 163.18 69.3281 163.289 68.9766 163.508C68.1719 164.031 67.7695 165.023 67.7695 166.484C67.7695 167.164 67.8594 167.754 68.0391 168.254C68.4062 169.277 69.0977 169.789 70.1133 169.789C71.3086 169.781 72.1055 169.133 72.5039 167.844H72.7852V170.059C72.6914 170.059 72.6172 170.047 72.5625 170.023C72.4688 169.977 72.4219 169.789 72.4219 169.461ZM76.4297 163.273V162.969H79.3008V163.273H78.375V167.293C78.375 167.801 78.4297 168.23 78.5391 168.582C78.7891 169.387 79.3906 169.789 80.3438 169.789C80.4375 169.789 80.5312 169.785 80.625 169.777C81.75 169.66 82.3125 168.844 82.3125 167.328V163.273H81.375V162.969H83.6602V163.273H82.7227V167.258C82.7227 167.695 82.6797 168.086 82.5938 168.43C82.3047 169.555 81.4727 170.117 80.0977 170.117C78.293 170.109 77.3828 169.191 77.3672 167.363V163.273H76.4297ZM91.6641 170H88.4414V169.695H89.5547V163.273H88.9219C88.3203 163.32 87.8945 163.727 87.6445 164.492L87.457 165.277H87.1289L87.1875 162.969H92.9766L93.0352 165.277H92.707L92.5195 164.492C92.5117 164.477 92.5078 164.453 92.5078 164.422C92.2969 163.656 91.875 163.273 91.2422 163.273H90.5625V169.695H91.3594C91.3984 169.695 91.4375 169.699 91.4766 169.707C91.6016 169.73 91.6641 169.828 91.6641 170ZM102.141 168.16C102.141 168.637 101.973 169.047 101.637 169.391C101.145 169.875 100.449 170.117 99.5508 170.117C98.7852 170.117 98.1016 169.918 97.5 169.52C97.5 169.684 97.4922 169.797 97.4766 169.859C97.4453 169.969 97.3359 170.023 97.1484 170.023V167.598H97.5C97.6328 169.043 98.2969 169.773 99.4922 169.789C99.7969 169.789 100.074 169.734 100.324 169.625C100.855 169.383 101.121 168.988 101.121 168.441C101.121 168.23 101.07 168.035 100.969 167.855C100.781 167.535 100.336 167.219 99.6328 166.906C98.875 166.578 98.4297 166.379 98.2969 166.309C97.5625 165.895 97.1953 165.359 97.1953 164.703C97.1953 164.266 97.3516 163.883 97.6641 163.555C98.1328 163.086 98.7891 162.852 99.6328 162.852C100.328 162.852 100.953 163.004 101.508 163.309C101.508 163.215 101.516 163.141 101.531 163.086C101.562 162.969 101.672 162.91 101.859 162.91V164.961H101.508C101.516 164.523 101.406 164.152 101.18 163.848C100.836 163.402 100.336 163.18 99.6797 163.18C99.4141 163.18 99.1719 163.223 98.9531 163.309C98.4453 163.512 98.1914 163.875 98.1914 164.398C98.1914 164.594 98.2383 164.777 98.332 164.949C98.5117 165.262 98.9492 165.566 99.6445 165.863C100.41 166.199 100.867 166.406 101.016 166.484C101.766 166.906 102.141 167.465 102.141 168.16ZM113.66 164.094C113.66 164.414 113.793 164.84 114.059 165.371C114.348 165.293 114.602 165.172 114.82 165.008C115.203 164.719 115.395 164.391 115.395 164.023C115.395 163.906 115.375 163.789 115.336 163.672C115.211 163.32 114.941 163.145 114.527 163.145C114.426 163.145 114.328 163.16 114.234 163.191C113.852 163.316 113.66 163.617 113.66 164.094ZM114.164 169.766C114.742 169.766 115.258 169.578 115.711 169.203C114.711 168.023 113.949 166.941 113.426 165.957C113.309 165.996 113.191 166.055 113.074 166.133C112.637 166.445 112.418 166.945 112.418 167.633C112.418 167.93 112.449 168.203 112.512 168.453C112.738 169.328 113.289 169.766 114.164 169.766ZM117.176 166.262C117.176 167.246 116.953 168.082 116.508 168.77C116.875 169.184 117.152 169.492 117.34 169.695H117.773C117.812 169.695 117.848 169.699 117.879 169.707C118.004 169.723 118.066 169.82 118.066 170H116.414C116.188 169.758 116.016 169.566 115.898 169.426C115.352 169.879 114.648 170.109 113.789 170.117C113.18 170.117 112.66 169.953 112.23 169.625C111.691 169.211 111.422 168.648 111.422 167.938C111.422 167.672 111.461 167.422 111.539 167.188C111.797 166.445 112.383 165.949 113.297 165.699C113.023 165.121 112.883 164.652 112.875 164.293C112.875 164.051 112.926 163.824 113.027 163.613C113.277 163.105 113.77 162.852 114.504 162.852C114.699 162.852 114.883 162.891 115.055 162.969C115.5 163.164 115.723 163.516 115.723 164.023C115.723 164.219 115.672 164.414 115.57 164.609C115.305 165.109 114.848 165.449 114.199 165.629C114.66 166.457 115.355 167.418 116.285 168.512C116.66 167.863 116.848 167.105 116.848 166.238H116.203V165.934H117.891C117.891 165.996 117.883 166.055 117.867 166.109C117.844 166.203 117.742 166.25 117.562 166.25L117.199 166.262H117.164H117.176ZM130.055 170H126.703V169.695H127.641V163.273H126.703V162.969H132.105L132.164 165.078H131.93L131.766 164.527C131.758 164.496 131.746 164.457 131.73 164.41C131.488 163.652 131.086 163.273 130.523 163.273H128.648V166.203H131.062V166.543H128.648V169.695H130.055V170ZM142.465 170H139.934V169.695H140.695L139.816 167.422H137.367L136.488 169.695H137.062C137.102 169.695 137.141 169.699 137.18 169.707C137.305 169.73 137.367 169.828 137.367 170H135.281V169.695H136.02L138.645 162.969H139.078L141.762 169.695H142.16C142.199 169.695 142.238 169.699 142.277 169.707C142.402 169.73 142.465 169.828 142.465 170ZM139.688 167.082L138.586 164.246L137.496 167.082H139.688ZM145.934 162.969H149.203C150 162.969 150.699 163.156 151.301 163.531C152.285 164.156 152.777 165.141 152.777 166.484C152.777 167.523 152.441 168.367 151.77 169.016C151.09 169.672 150.223 170 149.168 170H145.934V169.695H146.871V163.273H145.934V162.969ZM149.168 163.273H147.879V169.695H149.203C149.359 169.695 149.512 169.684 149.66 169.66C150.988 169.457 151.652 168.383 151.652 166.438C151.652 165.867 151.594 165.375 151.477 164.961C151.172 163.836 150.402 163.273 149.168 163.273ZM162.352 165.078H162.117L161.953 164.527C161.945 164.496 161.934 164.457 161.918 164.41C161.676 163.652 161.273 163.273 160.711 163.273H158.836V166.203H161.25V166.543H158.836V169.695H160.711C160.844 169.695 160.969 169.676 161.086 169.637C161.469 169.504 161.758 169.105 161.953 168.441L162.117 167.891H162.352L162.293 170H156.891V169.695H157.828V163.273H156.891V162.969H162.293L162.352 165.078ZM171.633 168.16C171.633 168.637 171.465 169.047 171.129 169.391C170.637 169.875 169.941 170.117 169.043 170.117C168.277 170.117 167.594 169.918 166.992 169.52C166.992 169.684 166.984 169.797 166.969 169.859C166.938 169.969 166.828 170.023 166.641 170.023V167.598H166.992C167.125 169.043 167.789 169.773 168.984 169.789C169.289 169.789 169.566 169.734 169.816 169.625C170.348 169.383 170.613 168.988 170.613 168.441C170.613 168.23 170.562 168.035 170.461 167.855C170.273 167.535 169.828 167.219 169.125 166.906C168.367 166.578 167.922 166.379 167.789 166.309C167.055 165.895 166.688 165.359 166.688 164.703C166.688 164.266 166.844 163.883 167.156 163.555C167.625 163.086 168.281 162.852 169.125 162.852C169.82 162.852 170.445 163.004 171 163.309C171 163.215 171.008 163.141 171.023 163.086C171.055 162.969 171.164 162.91 171.352 162.91V164.961H171C171.008 164.523 170.898 164.152 170.672 163.848C170.328 163.402 169.828 163.18 169.172 163.18C168.906 163.18 168.664 163.223 168.445 163.309C167.938 163.512 167.684 163.875 167.684 164.398C167.684 164.594 167.73 164.777 167.824 164.949C168.004 165.262 168.441 165.566 169.137 165.863C169.902 166.199 170.359 166.406 170.508 166.484C171.258 166.906 171.633 167.465 171.633 168.16Z" fill="black"/>
</g>
<line x1="61" y1="166.5" x2="14" y2="166.5" stroke="black"/>
<line x1="228" y1="166.5" x2="181" y2="166.5" stroke="black"/>
<path d="M13 178.394H29.1611C34.1698 178.394 37.9173 179.225 40.4036 180.888C42.9259 182.507 44.1871 185.264 44.1871 189.159C44.1871 195.155 41.2143 198.743 35.2688 199.925V200.056C42.4755 201.15 46.0789 204.957 46.0789 211.478C46.0789 216.248 44.6015 219.595 41.6467 221.521C38.692 223.403 34.44 224.344 28.8908 224.344H13V223.096H16.5133V179.641H13V178.394ZM27.0531 201.106V223.096H29.5935C31.5753 223.096 32.9626 222.265 33.7554 220.602C34.5481 218.939 34.9445 216.488 34.9445 213.25V209.771C34.9445 206.883 34.458 204.716 33.4851 203.272C32.5122 201.828 30.7826 201.106 28.2963 201.106H27.0531ZM27.0531 179.641V199.859H28.4584C30.3322 199.859 31.6294 199.181 32.3501 197.824C33.1068 196.424 33.4851 194.301 33.4851 191.457V188.372C33.4851 185.133 33.1608 182.879 32.5122 181.61C31.8636 180.297 30.6205 179.641 28.7827 179.641H27.0531Z" fill="black"/>
<path d="M69.2074 223.096L65.2617 208.918H54.5597L50.3979 223.096H54.4516V224.344H46.1819V223.096H48.7223L62.5052 178H66.9373L80.558 223.096H83.0443V224.344H65.3698V223.096H69.2074ZM60.1269 190.275L55.0462 207.473H64.8293L60.1269 190.275Z" fill="black"/>
<path d="M101.115 201.106H98.2507V223.096H101.764V224.344H84.1975V223.096H87.7108V179.641H84.1975V178.394H100.521C105.205 178.394 108.52 178.7 110.466 179.313C112.448 179.882 113.835 180.582 114.628 181.413C116.358 183.12 117.222 185.833 117.222 189.553C117.222 193.273 116.466 195.942 114.952 197.561C113.439 199.137 111.133 200.078 108.034 200.384V200.581C110.953 201.062 112.988 202.113 114.142 203.732C115.295 205.351 115.871 208.064 115.871 211.872V215.351C115.871 217.626 115.961 219.158 116.141 219.946C116.358 220.733 116.79 221.127 117.439 221.127C118.087 221.127 118.592 220.777 118.952 220.077C119.348 219.333 119.709 217.801 120.033 215.482L120.952 215.613C120.555 219.333 119.853 221.827 118.844 223.096C117.871 224.365 115.907 225 112.952 225C109.998 225 107.89 224.169 106.628 222.506C105.403 220.799 104.791 217.626 104.791 212.987V208.196C104.791 205.745 104.521 203.951 103.98 202.813C103.476 201.675 102.521 201.106 101.115 201.106ZM98.2507 179.641V199.859H99.9803C102.034 199.859 103.548 199.093 104.521 197.561C105.529 196.03 106.034 193.535 106.034 190.078V188.175C106.034 184.717 105.547 182.442 104.575 181.348C103.638 180.21 102.124 179.641 100.034 179.641H98.2507Z" fill="black"/>
<path d="M123.212 178.394H139.373C144.382 178.394 148.13 179.225 150.616 180.888C153.138 182.507 154.399 185.264 154.399 189.159C154.399 195.155 151.427 198.743 145.481 199.925V200.056C152.688 201.15 156.291 204.957 156.291 211.478C156.291 216.248 154.814 219.595 151.859 221.521C148.904 223.403 144.652 224.344 139.103 224.344H123.212V223.096H126.726V179.641H123.212V178.394ZM137.265 201.106V223.096H139.806C141.788 223.096 143.175 222.265 143.968 220.602C144.76 218.939 145.157 216.488 145.157 213.25V209.771C145.157 206.883 144.67 204.716 143.697 203.272C142.724 201.828 140.995 201.106 138.509 201.106H137.265ZM137.265 179.641V199.859H138.671C140.544 199.859 141.842 199.181 142.562 197.824C143.319 196.424 143.697 194.301 143.697 191.457V188.372C143.697 185.133 143.373 182.879 142.724 181.61C142.076 180.297 140.833 179.641 138.995 179.641H137.265Z" fill="black"/>
<path d="M158.841 178.394H186.947L187.488 191.391H186.515C185.002 186.971 183.416 183.952 181.759 182.332C180.101 180.669 177.669 179.838 174.462 179.838H172.57V200.122H174.408C176.101 200.122 177.525 199.356 178.678 197.824C179.831 196.249 180.642 194.148 181.11 191.522H181.921V210.953H181.002C180.353 207.67 179.471 205.329 178.353 203.929C177.272 202.528 175.777 201.828 173.867 201.828H172.57V222.899H174.624C177.939 222.899 180.75 221.696 183.056 219.289C185.398 216.882 187.002 213.797 187.866 210.034H188.947L188.515 224.344H158.841V222.899H162.03V179.838H158.841V178.394Z" fill="black"/>
<path d="M209.163 201.106H206.299V223.096H209.812V224.344H192.246V223.096H195.759V179.641H192.246V178.394H208.569C213.253 178.394 216.568 178.7 218.514 179.313C220.496 179.882 221.883 180.582 222.676 181.413C224.406 183.12 225.271 185.833 225.271 189.553C225.271 193.273 224.514 195.942 223 197.561C221.487 199.137 219.181 200.078 216.082 200.384V200.581C219.001 201.062 221.037 202.113 222.19 203.732C223.343 205.351 223.919 208.064 223.919 211.872V215.351C223.919 217.626 224.009 219.158 224.19 219.946C224.406 220.733 224.838 221.127 225.487 221.127C226.135 221.127 226.64 220.777 227 220.077C227.397 219.333 227.757 217.801 228.081 215.482L229 215.613C228.604 219.333 227.901 221.827 226.892 223.096C225.919 224.365 223.955 225 221.001 225C218.046 225 215.938 224.169 214.677 222.506C213.451 220.799 212.839 217.626 212.839 212.987V208.196C212.839 205.745 212.569 203.951 212.028 202.813C211.524 201.675 210.569 201.106 209.163 201.106ZM206.299 179.641V199.859H208.028C210.082 199.859 211.596 199.093 212.569 197.561C213.578 196.03 214.082 193.535 214.082 190.078V188.175C214.082 184.717 213.596 182.442 212.623 181.348C211.686 180.21 210.172 179.641 208.082 179.641H206.299Z" fill="black"/>
<path d="M62.7652 275.631C64.5614 275.631 66.1421 275.044 67.5073 273.871C68.9083 272.698 69.6089 270.938 69.6089 268.591C69.6089 266.201 68.8544 264.375 67.3456 263.115C65.8727 261.855 63.7531 260.768 60.9869 259.856C58.2566 258.9 56.2627 258.074 55.0054 257.379C53.7839 256.683 52.6164 255.771 51.5027 254.641C49.2753 252.381 48.1617 248.883 48.1617 244.146C48.1617 240.278 49.2933 236.953 51.5566 234.172C53.8558 231.391 56.9812 230 60.933 230C62.837 230 64.8129 230.348 66.8606 231.043C68.9443 231.695 70.2375 232.021 70.7405 232.021C71.2434 232.021 71.6925 231.586 72.0877 230.717H72.6804L73.0577 243.885H72.1955C70.4711 240.104 68.6569 237.084 66.7528 234.824C64.8847 232.521 62.837 231.369 60.6097 231.369C58.4182 231.369 56.7118 231.999 55.4904 233.259C54.2689 234.476 53.6582 236.128 53.6582 238.214C53.6582 240.256 54.3767 241.842 55.8137 242.972C57.2866 244.059 59.0829 244.95 61.2024 245.645C63.322 246.34 64.7051 246.818 65.3518 247.079C66.0343 247.34 66.8606 247.709 67.8306 248.187C68.8365 248.622 69.6448 249.1 70.2555 249.621C70.9022 250.099 71.5668 250.73 72.2493 251.512C72.9678 252.251 73.5247 253.076 73.9199 253.989C74.8898 256.075 75.3748 258.552 75.3748 261.42C75.3748 266.114 74.1534 269.895 71.7105 272.763C69.3035 275.588 66.1241 277 62.1724 277C60.1247 277 57.7716 276.674 55.1131 276.022C52.4906 275.37 51.0357 275.044 50.7483 275.044C50.2453 275.044 49.7603 275.696 49.2933 277H48.5389L48 261.485H48.9161C50.4968 265.266 52.5086 268.569 54.9515 271.394C57.4303 274.219 60.0349 275.631 62.7652 275.631Z" fill="black"/>
<path d="M78.6948 230.717H95.5077V231.956H92.3822V252.164H103.106V231.956H99.9264V230.717H116.793V231.956H113.614V275.11H116.793V276.348H99.9264V275.11H103.106V253.859H92.3822V275.11H95.5077V276.348H78.6948V275.11H81.8741V231.956H78.6948V230.717Z" fill="black"/>
<path d="M144.924 256.205V251.381C144.924 243.429 144.6 238.409 143.954 236.323C143.235 233.933 142.211 232.455 140.882 231.89C140.128 231.543 139.212 231.369 138.134 231.369C137.056 231.369 136.122 231.543 135.332 231.89C134.577 232.238 133.949 232.847 133.446 233.716C132.943 234.585 132.53 235.497 132.206 236.454C131.919 237.41 131.685 238.757 131.506 240.495C131.29 243.016 131.182 246.731 131.182 251.642V256.336C131.182 261.638 131.344 265.418 131.667 267.678C132.027 269.895 132.458 271.481 132.961 272.437C134.074 274.566 135.799 275.631 138.134 275.631C140.972 275.631 142.804 274.197 143.63 271.329C144.493 268.417 144.924 263.376 144.924 256.205ZM138.026 277C132.027 277 127.536 275.044 124.554 271.133C121.608 267.178 120.135 261.485 120.135 254.054C120.135 246.579 121.716 240.712 124.878 236.454C128.075 232.151 132.583 230 138.403 230C144.223 230 148.606 232.043 151.552 236.128C154.534 240.169 156.025 245.927 156.025 253.402C156.025 260.877 154.516 266.679 151.498 270.807C148.516 274.936 144.026 277 138.026 277Z" fill="black"/>
<path d="M159.045 230.717H174.888C180.312 230.717 184.354 231.673 187.012 233.585C189.671 235.454 191 238.822 191 243.689C191 249.078 189.383 252.794 186.15 254.836C183.132 256.705 178.911 257.639 173.487 257.639H173.055V275.11H179.791V276.348H159.045V275.11H162.547V231.956H159.045V230.717ZM173.055 231.956V256.401H174.187C176.343 256.401 177.834 255.51 178.66 253.728C179.486 251.946 179.899 249.056 179.899 245.058V241.929C179.899 238.235 179.504 235.65 178.714 234.172C177.959 232.694 176.558 231.956 174.51 231.956H173.055Z" fill="black"/>
<rect x="14" y="286" width="211" height="2" rx="1" fill="#BA0810"/>
<rect x="14" y="282" width="211" height="2" rx="1" fill="#32509F"/>
<defs>
<filter id="filter0_d_749_16" x="0.889648" y="22.0176" width="193.185" height="100.848" filterUnits="userSpaceOnUse" color-interpolation-filters="sRGB">
<feFlood flood-opacity="0" result="BackgroundImageFix"/>
<feColorMatrix in="SourceAlpha" type="matrix" values="0 0 0 0 0 0 0 0 0 0 0 0 0 0 0 0 0 0 127 0" result="hardAlpha"/>
<feOffset dy="4"/>
<feGaussianBlur stdDeviation="2"/>
<feComposite in2="hardAlpha" operator="out"/>
<feColorMatrix type="matrix" values="0 0 0 0 0 0 0 0 0 0 0 0 0 0 0 0 0 0 0.25 0"/>
<feBlend mode="normal" in2="BackgroundImageFix" result="effect1_dropShadow_749_16"/>
<feBlend mode="normal" in="SourceGraphic" in2="effect1_dropShadow_749_16" result="shape"/>
</filter>
<filter id="filter1_d_749_16" x="62.5859" y="162.852" width="113.047" height="15.2656" filterUnits="userSpaceOnUse" color-interpolation-filters="sRGB">
<feFlood flood-opacity="0" result="BackgroundImageFix"/>
<feColorMatrix in="SourceAlpha" type="matrix" values="0 0 0 0 0 0 0 0 0 0 0 0 0 0 0 0 0 0 127 0" result="hardAlpha"/>
<feOffset dy="4"/>
<feGaussianBlur stdDeviation="2"/>
<feComposite in2="hardAlpha" operator="out"/>
<feColorMatrix type="matrix" values="0 0 0 0 0 0 0 0 0 0 0 0 0 0 0 0 0 0 0.25 0"/>
<feBlend mode="normal" in2="BackgroundImageFix" result="effect1_dropShadow_749_16"/>
<feBlend mode="normal" in="SourceGraphic" in2="effect1_dropShadow_749_16" result="shape"/>
</filter>
</defs>
</svg>
