<svg width="474" height="474" viewBox="0 0 474 474" fill="none" xmlns="http://www.w3.org/2000/svg">
<path d="M148.424 169.147C144.251 166.9 139.997 169.802 135.663 177.852L133.945 181.042C131.886 184.866 130.822 188.165 130.752 190.94C130.696 193.688 131.745 195.642 133.899 196.802C136.86 198.396 141.131 196.98 146.71 192.552L147.437 192.943L142.305 201.797L141.861 201.557C141.859 201.174 141.819 200.893 141.743 200.713C141.68 200.505 141.515 200.329 141.246 200.184C141.003 200.054 139.918 199.747 137.99 199.265C136.076 198.756 134.244 198.03 132.494 197.087C128.106 194.725 125.338 191.706 124.191 188.032C123.07 184.373 123.786 180.174 126.337 175.435C128.903 170.67 132.133 167.669 136.029 166.433C139.951 165.211 144.039 165.745 148.293 168.035C149.936 168.92 151.422 169.997 152.751 171.269C154.122 172.528 154.942 173.23 155.212 173.375C155.481 173.52 155.712 173.575 155.904 173.54C156.111 173.478 156.375 173.342 156.696 173.133L157.141 173.372L152.745 182.309L152.018 181.918C152.271 178.546 152.135 175.799 151.611 173.677C151.129 171.541 150.066 170.032 148.424 169.147Z" fill="#BA0810"/>
<path d="M161.197 175.556L182.197 186.863L178.295 195.076L177.568 194.685C177.902 191.357 177.717 188.861 177.015 187.198C176.327 185.509 174.786 184.018 172.389 182.728L170.976 181.967L164.257 194.446L165.63 195.185C166.895 195.867 168.213 195.968 169.581 195.49C170.965 194.984 172.266 194.018 173.486 192.591L174.092 192.918L167.656 204.871L166.969 204.502C167.572 202.222 167.688 200.426 167.317 199.115C166.973 197.819 166.088 196.786 164.661 196.018L163.692 195.496L156.712 208.46L158.246 209.286C160.723 210.62 163.222 211.01 165.742 210.457C168.29 209.918 170.51 208.665 172.402 206.698L173.21 207.133L168.147 215.763L145.975 203.825L146.454 202.937L148.837 204.22L163.101 177.727L160.718 176.444L161.197 175.556Z" fill="#BA0810"/>
<path d="M191.272 209.773L189.132 208.621L181.847 222.15L184.472 223.563L184.059 224.331L170.934 217.264L171.347 216.496L173.972 217.91L188.367 191.175L185.742 189.762L186.155 188.994L198.352 195.561C201.852 197.446 204.227 198.968 205.478 200.127C206.77 201.275 207.575 202.264 207.892 203.094C208.619 204.84 208.366 206.857 207.134 209.145C205.902 211.434 204.452 212.772 202.785 213.159C201.132 213.52 199.098 213.171 196.681 212.112L196.615 212.234C198.637 213.704 199.81 215.169 200.135 216.629C200.46 218.089 199.992 219.99 198.731 222.333L197.579 224.473C196.825 225.873 196.385 226.852 196.259 227.409C196.159 227.98 196.352 228.397 196.836 228.658C197.321 228.918 197.814 228.906 198.315 228.62C198.858 228.322 199.634 227.525 200.645 226.228L201.288 226.679C199.76 228.808 198.408 230.06 197.234 230.434C196.087 230.824 194.409 230.424 192.202 229.235C189.994 228.047 188.694 226.687 188.303 225.157C187.953 223.614 188.546 221.415 190.083 218.562L191.67 215.614C192.482 214.106 192.874 212.893 192.847 211.976C192.847 211.073 192.322 210.339 191.272 209.773ZM196.242 195.415L189.545 207.854L190.837 208.549C192.372 209.376 193.756 209.513 194.991 208.962C196.252 208.426 197.455 207.094 198.6 204.967L199.231 203.796C200.376 201.669 200.766 200.074 200.402 199.009C200.079 197.932 199.136 196.973 197.575 196.133L196.242 195.415Z" fill="#BA0810"/>
<path d="M238.131 216.98L233.077 227.334L232.31 226.92C233.053 222.702 233.315 219.7 233.096 217.915C232.891 216.103 231.926 214.733 230.203 213.805L229.719 213.544L215.411 240.117L218.844 241.965L218.387 242.814L203.647 234.877L204.103 234.029L207.536 235.877L221.844 209.304L221.319 209.021C219.596 208.093 217.893 208.062 216.212 208.928C214.545 209.767 212.211 211.618 209.21 214.483L208.442 214.07L214.304 204.15L238.131 216.98Z" fill="#BA0810"/>
<path d="M241.023 218.537L253.341 225.169L252.928 225.936L250.706 224.74L236.312 251.475L238.533 252.671L238.12 253.438L225.802 246.806L226.216 246.039L228.437 247.235L242.831 220.5L240.61 219.304L241.023 218.537Z" fill="#BA0810"/>
<path d="M255.217 226.179L276.218 237.486L272.099 246.104L271.372 245.712C271.941 242.268 271.849 239.666 271.095 237.906C270.368 236.16 268.712 234.591 266.128 233.2L264.997 232.591L257.93 245.716L259.747 246.694C261.04 247.39 262.37 247.499 263.739 247.02C265.108 246.542 266.396 245.569 267.603 244.1L268.209 244.426L261.773 256.38L261.086 256.011C261.743 253.759 261.913 251.993 261.596 250.711C261.306 249.444 260.501 248.455 259.182 247.744L257.365 246.766L250.732 259.083L255.74 261.78L255.262 262.668L239.996 254.449L240.475 253.56L242.857 254.843L257.122 228.351L254.739 227.068L255.217 226.179Z" fill="#BA0810"/>
<path d="M279.279 239.134L291.596 245.766L291.183 246.534L288.962 245.338L274.567 272.073L276.788 273.269L276.375 274.036L264.058 267.404L264.471 266.637L266.692 267.832L281.087 241.098L278.865 239.902L279.279 239.134Z" fill="#BA0810"/>
<path d="M293.473 246.777L314.473 258.084L310.571 266.298L309.844 265.906C310.178 262.578 309.993 260.083 309.291 258.42C308.603 256.73 307.062 255.24 304.665 253.95L303.252 253.188L296.533 265.667L297.906 266.407C299.171 267.088 300.489 267.189 301.857 266.711C303.241 266.206 304.542 265.239 305.762 263.813L306.368 264.139L299.932 276.093L299.245 275.723C299.848 273.443 299.964 271.647 299.593 270.336C299.249 269.04 298.364 268.008 296.937 267.239L295.968 266.717L288.988 279.681L290.522 280.507C292.999 281.841 295.498 282.231 298.018 281.678C300.566 281.14 302.786 279.887 304.678 277.919L305.486 278.354L300.423 286.984L278.252 275.046L278.73 274.158L281.113 275.441L295.377 248.948L292.994 247.665L293.473 246.777Z" fill="#BA0810"/>
<path d="M339.311 289.065C336.324 294.611 332.683 297.634 328.385 298.133C324.417 298.601 319.916 297.48 314.881 294.769L303.453 288.615L303.866 287.848L306.531 289.283L320.926 262.548L318.26 261.113L318.674 260.346L331.153 267.065C336.322 269.848 339.626 272.999 341.066 276.518C342.519 280.009 341.935 284.192 339.311 289.065ZM314.406 293.523L315.941 294.35C318.66 295.814 321.113 295.902 323.3 294.613C325.528 293.313 327.86 290.401 330.296 285.878L331.557 283.535C334.818 277.478 335.625 273.206 333.976 270.721C333.191 269.534 331.789 268.398 329.77 267.31L328.801 266.788L314.406 293.523Z" fill="#BA0810"/>
<path d="M336.546 306.955C335.389 306.331 334.695 305.524 334.465 304.532C334.276 303.527 334.443 302.541 334.965 301.571C335.501 300.575 336.247 299.9 337.202 299.546C338.183 299.206 339.226 299.333 340.33 299.928C341.434 300.522 342.156 301.276 342.498 302.189C342.84 303.103 342.706 304.125 342.098 305.255C341.489 306.386 340.701 307.108 339.734 307.421C338.793 307.748 337.731 307.593 336.546 306.955Z" fill="#BA0810"/>
<rect x="371.646" y="297.994" width="3.05778" height="9.17333" rx="1" transform="rotate(118.299 371.646 297.994)" fill="#BA0810"/>
<rect x="367.085" y="306.062" width="3.05778" height="9.17333" rx="1" transform="rotate(121.836 367.085 306.062)" fill="#BA0810"/>
<rect x="362.088" y="313.752" width="3.05778" height="9.17333" rx="1" transform="rotate(125.365 362.088 313.752)" fill="#BA0810"/>
<rect x="356.664" y="321.066" width="3.05778" height="9.17333" rx="1" transform="rotate(128.879 356.664 321.066)" fill="#BA0810"/>
<rect x="350.54" y="328.326" width="3.05778" height="9.17333" rx="1" transform="rotate(132.592 350.54 328.326)" fill="#BA0810"/>
<rect x="344.019" y="335.115" width="3.05778" height="9.17333" rx="1" transform="rotate(136.28 344.019 335.115)" fill="#BA0810"/>
<rect x="337.391" y="341.197" width="3.05778" height="9.17333" rx="1" transform="rotate(139.726 337.391 341.197)" fill="#BA0810"/>
<rect x="330.128" y="347.076" width="3.05778" height="9.17333" rx="1" transform="rotate(143.361 330.128 347.076)" fill="#BA0810"/>
<rect x="322.531" y="352.465" width="3.05778" height="9.17333" rx="1" transform="rotate(146.97 322.531 352.465)" fill="#BA0810"/>
<rect x="314.623" y="357.354" width="3.05778" height="9.17333" rx="1" transform="rotate(150.556 314.623 357.354)" fill="#BA0810"/>
<rect x="306.223" y="361.842" width="3.05778" height="9.17333" rx="1" transform="rotate(154.332 306.223 361.842)" fill="#BA0810"/>
<rect x="297.793" y="365.676" width="3.05778" height="9.17333" rx="1" transform="rotate(157.883 297.793 365.676)" fill="#BA0810"/>
<rect x="289.137" y="368.979" width="3.05778" height="9.17333" rx="1" transform="rotate(161.426 289.137 368.979)" fill="#BA0810"/>
<rect x="280.285" y="371.738" width="3.05778" height="9.17333" rx="1" transform="rotate(164.965 280.285 371.738)" fill="#BA0810"/>
<rect x="271.271" y="373.943" width="3.05778" height="9.17333" rx="1" transform="rotate(168.507 271.271 373.943)" fill="#BA0810"/>
<rect x="262.127" y="375.584" width="3.05778" height="9.17333" rx="1" transform="rotate(172.057 262.127 375.584)" fill="#BA0810"/>
<rect x="252.792" y="376.662" width="3.05778" height="9.17333" rx="1" transform="rotate(175.832 252.792 376.662)" fill="#BA0810"/>
<rect x="243.516" y="377.139" width="3.05778" height="9.17333" rx="1" transform="rotate(179.417 243.516 377.139)" fill="#BA0810"/>
<rect x="234.22" y="377.033" width="3.05778" height="9.17333" rx="1" transform="rotate(-176.975 234.22 377.033)" fill="#BA0810"/>
<rect x="224.944" y="376.34" width="3.05778" height="9.17333" rx="1" transform="rotate(-173.342 224.944 376.34)" fill="#BA0810"/>
<rect x="215.772" y="375.064" width="3.05778" height="9.17333" rx="1" transform="rotate(-169.897 215.772 375.064)" fill="#BA0810"/>
<rect x="206.645" y="373.207" width="3.05778" height="9.17333" rx="1" transform="rotate(-166.211 206.645 373.207)" fill="#BA0810"/>
<rect x="197.655" y="370.773" width="3.05778" height="9.17333" rx="1" transform="rotate(-162.499 197.655 370.773)" fill="#BA0810"/>
<rect x="188.863" y="367.783" width="3.05778" height="9.17333" rx="1" transform="rotate(-158.986 188.863 367.783)" fill="#BA0810"/>
<rect x="180.272" y="364.246" width="3.05778" height="9.17333" rx="1" transform="rotate(-155.459 180.272 364.246)" fill="#BA0810"/>
<rect x="171.386" y="359.908" width="3.05778" height="9.17333" rx="1" transform="rotate(-151.48 171.386 359.908)" fill="#BA0810"/>
<rect x="163.316" y="355.305" width="3.05778" height="9.17333" rx="1" transform="rotate(-147.943 163.316 355.305)" fill="#BA0810"/>
<rect x="155.553" y="350.209" width="3.05778" height="9.17333" rx="1" transform="rotate(-144.415 155.553 350.209)" fill="#BA0810"/>
<rect x="148.128" y="344.639" width="3.05778" height="9.17333" rx="1" transform="rotate(-140.902 148.128 344.639)" fill="#BA0810"/>
<rect x="141.049" y="338.602" width="3.05778" height="9.17333" rx="1" transform="rotate(-137.191 141.049 338.602)" fill="#BA0810"/>
<rect x="134.366" y="332.127" width="3.05778" height="9.17333" rx="1" transform="rotate(-133.504 134.366 332.127)" fill="#BA0810"/>
<rect x="128.147" y="325.281" width="3.05778" height="9.17333" rx="1" transform="rotate(-130.06 128.147 325.281)" fill="#BA0810"/>
<rect x="122.345" y="318.031" width="3.05778" height="9.17333" rx="1" transform="rotate(-126.426 122.345 318.031)" fill="#BA0810"/>
<rect x="117.016" y="310.434" width="3.05778" height="9.17333" rx="1" transform="rotate(-122.818 117.016 310.434)" fill="#BA0810"/>
<rect x="112.126" y="302.441" width="3.05778" height="9.17333" rx="1" transform="rotate(-119.023 112.126 302.441)" fill="#BA0810"/>
<rect x="107.797" y="294.236" width="3.05778" height="9.17333" rx="1" transform="rotate(-115.459 107.797 294.236)" fill="#BA0810"/>
<rect x="103.992" y="285.783" width="3.05778" height="9.17333" rx="1" transform="rotate(-111.908 103.992 285.783)" fill="#BA0810"/>
<rect x="100.727" y="277.123" width="3.05778" height="9.17333" rx="1" transform="rotate(-108.366 100.727 277.123)" fill="#BA0810"/>
<rect x="98.0078" y="268.283" width="3.05778" height="9.17333" rx="1" transform="rotate(-104.827 98.0078 268.283)" fill="#BA0810"/>
<rect x="95.8438" y="259.303" width="3.05778" height="9.17333" rx="1" transform="rotate(-101.285 95.8438 259.303)" fill="#BA0810"/>
<rect x="94.207" y="249.979" width="3.05778" height="9.17333" rx="1" transform="rotate(-97.5243 94.207 249.979)" fill="#BA0810"/>
<rect x="93.1875" y="240.775" width="3.05778" height="9.17333" rx="1" transform="rotate(-93.9577 93.1875 240.775)" fill="#BA0810"/>
<rect x="92.7451" y="231.518" width="3.05778" height="9.17333" rx="1" transform="rotate(-90.3717 92.7451 231.518)" fill="#BA0810"/>
<rect x="92.8838" y="222.238" width="3.05778" height="9.17333" rx="1" transform="rotate(-86.7624 92.8838 222.238)" fill="#BA0810"/>
<rect x="93.6104" y="212.955" width="3.05778" height="9.17333" rx="1" transform="rotate(-83.1273 93.6104 212.955)" fill="#BA0810"/>
<rect x="94.9307" y="203.695" width="3.05778" height="9.17333" rx="1" transform="rotate(-79.4649 94.9307 203.695)" fill="#BA0810"/>
<rect x="96.7539" y="194.893" width="3.05778" height="9.17333" rx="1" transform="rotate(-75.9933 96.7539 194.893)" fill="#BA0810"/>
<rect x="99.248" y="185.766" width="3.05778" height="9.17333" rx="1" transform="rotate(-72.2804 99.248 185.766)" fill="#BA0810"/>
<rect x="102.188" y="177.184" width="3.05778" height="9.17333" rx="1" transform="rotate(-68.7662 102.188 177.184)" fill="#BA0810"/>
<rect x="105.673" y="168.736" width="3.05778" height="9.17333" rx="1" transform="rotate(-65.2377 105.673 168.736)" fill="#BA0810"/>
<rect x="110.261" y="159.404" width="3.05778" height="9.17333" rx="1" transform="rotate(-61.2584 110.261 159.404)" fill="#BA0810"/>
<rect x="114.874" y="151.389" width="3.05778" height="9.17333" rx="1" transform="rotate(-57.7221 114.874 151.389)" fill="#BA0810"/>
<rect x="119.898" y="143.781" width="3.05778" height="9.17333" rx="1" transform="rotate(-54.195 119.898 143.781)" fill="#BA0810"/>
<rect x="125.299" y="136.6" width="3.05778" height="9.17333" rx="1" transform="rotate(-50.683 125.299 136.6)" fill="#BA0810"/>
<rect x="131.504" y="129.346" width="3.05778" height="9.17333" rx="1" transform="rotate(-46.9729 131.504 129.346)" fill="#BA0810"/>
<rect x="138.113" y="122.564" width="3.05778" height="9.17333" rx="1" transform="rotate(-43.2883 138.113 122.564)" fill="#BA0810"/>
<rect x="145.091" y="116.268" width="3.05778" height="9.17333" rx="1" transform="rotate(-39.6307 145.091 116.268)" fill="#BA0810"/>
<rect x="151.78" y="110.934" width="3.05778" height="9.17333" rx="1" transform="rotate(-36.2131 151.78 110.934)" fill="#BA0810"/>
<rect x="159.345" y="105.617" width="3.05778" height="9.17333" rx="1" transform="rotate(-32.6067 159.345 105.617)" fill="#BA0810"/>
<rect x="167.903" y="100.406" width="3.05778" height="9.17333" rx="1" transform="rotate(-28.813 167.903 100.406)" fill="#BA0810"/>
<rect x="176.032" y="96.1465" width="3.05778" height="9.17333" rx="1" transform="rotate(-25.2494 176.032 96.1465)" fill="#BA0810"/>
<rect x="184.378" y="92.4141" width="3.05778" height="9.17333" rx="1" transform="rotate(-21.6995 184.378 92.4141)" fill="#BA0810"/>
<rect x="192.914" y="89.207" width="3.05778" height="9.17333" rx="1" transform="rotate(-18.158 192.914 89.207)" fill="#BA0810"/>
<rect x="201.62" y="86.5312" width="3.05778" height="9.17333" rx="1" transform="rotate(-14.6188 201.62 86.5312)" fill="#BA0810"/>
<rect x="210.472" y="84.3965" width="3.05778" height="9.17333" rx="1" transform="rotate(-11.0762 210.472 84.3965)" fill="#BA0810"/>
<rect x="220.41" y="82.6719" width="3.05778" height="9.17333" rx="1" transform="rotate(-7.31496 220.41 82.6719)" fill="#BA0810"/>
<rect x="229.524" y="81.6895" width="3.05778" height="9.17333" rx="1" transform="rotate(-3.74734 229.524 81.6895)" fill="#BA0810"/>
<rect x="238.729" y="81.2715" width="3.05778" height="9.17333" rx="1" transform="rotate(-0.16005 238.729 81.2715)" fill="#BA0810"/>
<rect x="248.004" y="81.4316" width="3.05778" height="9.17333" rx="1" transform="rotate(3.45067 248.004 81.4316)" fill="#BA0810"/>
<rect x="257.335" y="82.1875" width="3.05778" height="9.17333" rx="1" transform="rotate(7.08742 257.335 82.1875)" fill="#BA0810"/>
<rect x="266.706" y="83.5527" width="3.05778" height="9.17333" rx="1" transform="rotate(10.7514 266.706 83.5527)" fill="#BA0810"/>
<rect x="275.051" y="85.293" width="3.05778" height="9.17333" rx="1" transform="rotate(14.2245 275.051 85.293)" fill="#BA0810"/>
<rect x="284.455" y="87.8809" width="3.05778" height="9.17333" rx="1" transform="rotate(17.9387 284.455 87.8809)" fill="#BA0810"/>
<rect x="292.809" y="90.752" width="3.05778" height="9.17333" rx="1" transform="rotate(21.4539 292.809 90.752)" fill="#BA0810"/>
<rect x="301.154" y="94.1973" width="3.05778" height="9.17333" rx="1" transform="rotate(24.9832 301.154 94.1973)" fill="#BA0810"/>
<rect x="310.999" y="99.0684" width="3.05778" height="9.17333" rx="1" transform="rotate(28.9628 310.999 99.0684)" fill="#BA0810"/>
<rect x="318.956" y="103.688" width="3.05778" height="9.17333" rx="1" transform="rotate(32.4987 318.956 103.688)" fill="#BA0810"/>
<rect x="326.435" y="108.658" width="3.05778" height="9.17333" rx="1" transform="rotate(36.025 326.435 108.658)" fill="#BA0810"/>
<rect x="333.456" y="113.955" width="3.05778" height="9.17333" rx="1" transform="rotate(39.5359 333.456 113.955)" fill="#BA0810"/>
<rect x="340.829" y="120.293" width="3.05778" height="9.17333" rx="1" transform="rotate(43.2445 340.829 120.293)" fill="#BA0810"/>
<rect x="347.66" y="126.99" width="3.05778" height="9.17333" rx="1" transform="rotate(46.9276 347.66 126.99)" fill="#BA0810"/>
<rect x="353.96" y="134.02" width="3.05778" height="9.17333" rx="1" transform="rotate(50.5836 353.96 134.02)" fill="#BA0810"/>
<rect x="359.735" y="141.359" width="3.05778" height="9.17333" rx="1" transform="rotate(54.2125 359.735 141.359)" fill="#BA0810"/>
<rect x="364.993" y="148.984" width="3.05778" height="9.17333" rx="1" transform="rotate(57.816 364.993 148.984)" fill="#BA0810"/>
<rect x="369.733" y="156.871" width="3.05778" height="9.17333" rx="1" transform="rotate(61.3971 369.733 156.871)" fill="#BA0810"/>
<rect x="373.958" y="165.004" width="3.05778" height="9.17333" rx="1" transform="rotate(64.9597 373.958 165.004)" fill="#BA0810"/>
<rect x="377.665" y="173.361" width="3.05778" height="9.17333" rx="1" transform="rotate(68.509 377.665 173.361)" fill="#BA0810"/>
<rect x="380.849" y="181.924" width="3.05778" height="9.17333" rx="1" transform="rotate(72.0502 380.849 181.924)" fill="#BA0810"/>
<rect x="383.502" y="190.668" width="3.05778" height="9.17333" rx="1" transform="rotate(75.5894 383.502 190.668)" fill="#BA0810"/>
<rect x="385.785" y="200.434" width="3.05778" height="9.17333" rx="1" transform="rotate(79.3411 385.785 200.434)" fill="#BA0810"/>
<rect x="387.295" y="209.469" width="3.05778" height="9.17333" rx="1" transform="rotate(82.8944 387.295 209.469)" fill="#BA0810"/>
<rect x="388.247" y="218.617" width="3.05778" height="9.17333" rx="1" transform="rotate(86.4631 388.247 218.617)" fill="#BA0810"/>
<rect x="388.629" y="227.854" width="3.05778" height="9.17333" rx="1" transform="rotate(90.0517 388.629 227.854)" fill="#BA0810"/>
<rect x="388.43" y="237.15" width="3.05778" height="9.17333" rx="1" transform="rotate(93.6639 388.43 237.15)" fill="#BA0810"/>
<rect x="387.637" y="246.477" width="3.05778" height="9.17333" rx="1" transform="rotate(97.3022 387.637 246.477)" fill="#BA0810"/>
<rect x="386.238" y="255.801" width="3.05778" height="9.17333" rx="1" transform="rotate(100.968 386.238 255.801)" fill="#BA0810"/>
<rect x="384.395" y="264.422" width="3.05778" height="9.17333" rx="1" transform="rotate(104.442 384.395 264.422)" fill="#BA0810"/>
<rect x="381.797" y="273.674" width="3.05778" height="9.17333" rx="1" transform="rotate(108.158 381.797 273.674)" fill="#BA0810"/>
<rect x="378.804" y="282.217" width="3.05778" height="9.17333" rx="1" transform="rotate(111.674 378.804 282.217)" fill="#BA0810"/>
<rect x="375.238" y="290.684" width="3.05778" height="9.17333" rx="1" transform="rotate(115.204 375.238 290.684)" fill="#BA0810"/>
<rect x="129.001" y="137.254" width="283.84" height="65.9733" transform="rotate(28.2993 129.001 137.254)" stroke="#BA0810" stroke-width="12"/>
<path d="M132.718 145.107C172.536 94.738 244.615 78.9557 303.942 110.899C363.268 142.842 389.772 211.704 369.642 272.673M341.541 320.743C300.774 365.411 232.805 378.206 176.375 347.823C119.945 317.439 93.2103 253.653 108.058 195.028" stroke="#BA0810" stroke-width="2"/>
<path d="M183.221 270.343L182.853 270.145L183.061 269.141C183.075 269.085 183.09 269.014 183.105 268.927C183.365 267.532 183.054 266.597 182.17 266.121L179.226 264.536L176.748 269.137L180.54 271.178L180.252 271.712L176.461 269.67L173.795 274.621L176.74 276.207C176.949 276.319 177.161 276.394 177.378 276.432C178.092 276.547 178.883 276.166 179.751 275.288L180.475 274.562L180.843 274.76L178.967 278.023L170.482 273.455L170.74 272.976L172.212 273.769L177.643 263.683L176.17 262.891L176.428 262.412L184.913 266.98L183.221 270.343Z" fill="#BA0810"/>
<path d="M190.48 280.495C190.077 281.243 189.466 281.745 188.648 282.001C187.465 282.346 186.168 282.138 184.757 281.378C183.555 280.731 182.65 279.84 182.042 278.705C181.903 278.963 181.795 279.134 181.718 279.219C181.576 279.365 181.358 279.358 181.064 279.2L183.115 275.39L183.667 275.687C182.653 278.069 183.079 279.778 184.943 280.813C185.421 281.071 185.903 281.22 186.388 281.259C187.427 281.328 188.178 280.933 188.641 280.074C188.819 279.743 188.904 279.393 188.897 279.025C188.873 278.364 188.441 277.49 187.601 276.405C186.689 275.249 186.158 274.559 186.009 274.336C185.205 273.065 185.081 271.914 185.636 270.884C186.006 270.196 186.575 269.727 187.343 269.476C188.476 269.136 189.705 269.323 191.03 270.037C192.122 270.625 192.975 271.393 193.588 272.34C193.668 272.193 193.743 272.083 193.813 272.01C193.962 271.853 194.183 271.853 194.477 272.012L192.743 275.232L192.191 274.935C192.573 274.255 192.715 273.579 192.617 272.909C192.454 271.919 191.857 271.147 190.826 270.592C190.409 270.367 189.992 270.23 189.576 270.18C188.607 270.069 187.901 270.425 187.458 271.247C187.293 271.554 187.211 271.882 187.213 272.231C187.231 272.874 187.661 273.722 188.502 274.777C189.42 275.952 189.963 276.663 190.13 276.912C190.951 278.208 191.068 279.403 190.48 280.495Z" fill="#BA0810"/>
<path d="M197.611 288.061L192.549 285.336L192.807 284.858L194.556 285.799L199.986 275.714L198.992 275.178C198.008 274.743 196.995 275.021 195.955 276.012L194.997 277.087L194.482 276.809L196.526 273.233L205.618 278.129L203.758 281.804L203.242 281.526L203.612 280.135C203.613 280.104 203.626 280.063 203.653 280.014C203.969 278.634 203.63 277.676 202.636 277.141L201.569 276.566L196.138 286.651L197.39 287.325C197.451 287.358 197.509 287.398 197.564 287.443C197.74 287.585 197.756 287.792 197.611 288.061Z" fill="#BA0810"/>
<path d="M203.662 290.227C203.589 290.362 203.486 290.481 203.351 290.583C202.988 290.846 202.61 290.872 202.218 290.661C202.083 290.588 201.964 290.485 201.862 290.351C201.599 289.987 201.573 289.609 201.784 289.217C201.857 289.082 201.96 288.963 202.094 288.861C202.452 288.579 202.833 288.547 203.238 288.765C203.373 288.838 203.485 288.938 203.575 289.065C203.851 289.435 203.88 289.822 203.662 290.227Z" fill="#BA0810"/>
<path d="M209.881 293.006L214.04 295.246C214.298 295.385 214.507 295.481 214.667 295.536C215.057 295.635 215.435 295.506 215.801 295.149L216.631 294.314L216.981 294.502L215.279 297.575L208.267 293.799L208.465 293.431C208.657 293.075 208.909 292.768 209.223 292.509C209.785 292.053 210.701 291.762 211.97 291.639C213.328 291.499 214.085 291.416 214.241 291.389C215.733 291.117 216.787 290.41 217.401 289.269C217.52 289.048 217.614 288.829 217.683 288.613C218.016 287.495 217.636 286.641 216.544 286.054C216.14 285.835 215.777 285.759 215.457 285.824C215.099 285.901 214.705 286.25 214.275 286.873C214.118 287.105 213.995 287.276 213.904 287.386C213.529 287.817 213.103 287.904 212.624 287.646C212.551 287.607 212.478 287.551 212.405 287.481C212.103 287.16 212.087 286.748 212.358 286.245C212.662 285.68 213.147 285.308 213.813 285.129C214.787 284.878 215.839 285.056 216.968 285.664C217.593 286.001 218.108 286.397 218.512 286.852C219.422 287.896 219.57 288.988 218.955 290.129C218.566 290.853 217.876 291.384 216.887 291.722C216.087 292.003 214.778 292.185 212.961 292.267C212.499 292.303 212.162 292.327 211.949 292.339C210.762 292.428 210.072 292.65 209.881 293.006Z" fill="#BA0810"/>
<path d="M226.556 290.827C227.305 291.23 227.875 291.774 228.265 292.459C229.118 293.963 228.956 295.807 227.78 297.991C227.04 299.365 226.119 300.341 225.016 300.918C223.673 301.62 222.345 301.617 221.033 300.91C220.211 300.467 219.606 299.841 219.219 299.031C218.505 297.507 218.706 295.708 219.822 293.635C220.555 292.273 221.476 291.312 222.584 290.754C223.919 290.096 225.244 290.12 226.556 290.827ZM221.345 300.461C221.542 300.567 221.739 300.641 221.937 300.685C223.28 301.012 224.692 299.802 226.172 297.053C226.885 295.728 227.311 294.644 227.448 293.8C227.627 292.646 227.231 291.808 226.262 291.286C225.968 291.127 225.671 291.031 225.373 290.997C224.1 290.834 222.779 292.022 221.412 294.562C220.85 295.605 220.47 296.516 220.272 297.296C219.883 298.811 220.241 299.867 221.345 300.461Z" fill="#BA0810"/>
<path d="M235.273 295.758L236.249 296.283L231.343 305.393L233.16 306.561C233.209 306.588 233.255 306.62 233.297 306.659C233.492 306.827 233.516 307.046 233.371 307.316L227.003 303.887L227.26 303.408L229.871 304.6L234.162 296.631L230.3 296.926L230.256 296.214L235.273 295.758Z" fill="#BA0810"/>
<path d="M243.973 308.656C243.484 309.564 242.798 310.192 241.915 310.539C240.754 310.99 239.554 310.882 238.314 310.215C237.529 309.792 236.966 309.236 236.625 308.546C235.854 307.039 236.106 305.101 237.381 302.733C238.141 301.322 239.037 300.245 240.07 299.504C241.695 298.337 243.348 298.206 245.029 299.111C245.691 299.468 246.224 299.905 246.626 300.422C247.237 301.226 247.362 301.966 246.998 302.641C246.959 302.714 246.913 302.785 246.861 302.852C246.524 303.272 246.11 303.349 245.619 303.085C245.435 302.986 245.296 302.863 245.2 302.717C245.058 302.482 245.088 302.103 245.291 301.579C245.373 301.338 245.432 301.156 245.466 301.032C245.604 300.394 245.311 299.881 244.587 299.491C243.998 299.174 243.411 299.103 242.826 299.278C241.869 299.586 240.758 300.768 239.492 302.825C240.457 302.68 241.39 302.842 242.292 303.312C243.016 303.702 243.58 304.227 243.984 304.887C244.69 306.075 244.687 307.331 243.973 308.656ZM237.856 305.6C237.585 306.103 237.405 306.599 237.315 307.089C237.122 308.299 237.529 309.175 238.535 309.717C238.707 309.809 238.883 309.88 239.062 309.929C240.323 310.291 241.446 309.558 242.43 307.73C242.727 307.178 242.915 306.654 242.992 306.157C243.144 305.052 242.747 304.245 241.803 303.737C241.508 303.578 241.196 303.481 240.867 303.446C239.685 303.348 238.681 304.066 237.856 305.6Z" fill="#BA0810"/>
<path d="M189.356 136.004L178.972 141.462L178.476 140.518L181.381 138.991L170.923 119.096L168.019 120.622L167.523 119.678L184.26 110.881L187.876 117.321L187.15 117.702L185.745 116.263C185.67 116.179 185.57 116.077 185.445 115.957C183.461 114.004 181.597 113.485 179.855 114.401L174.046 117.454L178.816 126.531L186.295 122.6L186.849 123.653L179.37 127.584L184.503 137.35L188.86 135.06L189.356 136.004Z" fill="#BA0810"/>
<path d="M202.283 130.833L192.919 134.477L192.532 133.484L195.59 132.293L187.437 111.347L184.38 112.538L183.993 111.544L193.357 107.899L193.744 108.893L190.725 110.068L198.877 131.014L200.903 130.226C201.03 130.176 201.162 130.139 201.3 130.115C201.737 130.033 202.065 130.272 202.283 130.833Z" fill="#BA0810"/>
<path d="M212.432 104.003L212.179 102.967L220.347 100.974L220.6 102.01L217.412 102.788L222.945 125.461L221.209 126.306L200.746 110.443L205.248 128.892L207.599 128.319C207.732 128.286 207.868 128.267 208.007 128.261C208.452 128.237 208.745 128.517 208.888 129.102L200.719 131.095L200.466 130.059L203.654 129.281L198.326 107.445L195.138 108.223L194.885 107.187L200.424 105.836L220.174 121.028L215.819 103.177L212.432 104.003Z" fill="#BA0810"/>
<path d="M218.792 101.865L230.211 101.127C232.995 100.946 235.479 101.443 237.665 102.617C241.244 104.578 243.186 107.905 243.489 112.598C243.724 116.227 242.741 119.25 240.541 121.667C238.316 124.112 235.361 125.454 231.677 125.693L220.381 126.423L220.312 125.359L223.586 125.147L222.135 102.718L218.861 102.929L218.792 101.865ZM230.157 102.199L225.655 102.49L227.106 124.92L231.731 124.62C232.277 124.585 232.806 124.51 233.319 124.394C237.912 123.385 239.989 119.483 239.549 112.688C239.421 110.697 239.105 108.991 238.602 107.571C237.284 103.711 234.469 101.92 230.157 102.199Z" fill="#BA0810"/>
<path d="M262.398 128.456L252.49 126.78L252.668 125.728L255.903 126.276L257.36 117.662L252.049 102.828L249.824 102.452L250.002 101.4L259.142 102.946L258.964 103.998L255.891 103.478L260.33 116.334L268.468 105.605L265.232 105.058L265.41 104.006L272.609 105.224C272.586 105.359 272.55 105.491 272.5 105.622C272.346 106.039 271.973 106.198 271.38 106.098C270.539 105.983 269.747 106.238 269.004 106.861L260.866 117.839L259.34 126.857L261.524 127.226C261.659 127.249 261.791 127.286 261.922 127.335C262.339 127.489 262.498 127.863 262.398 128.456Z" fill="#BA0810"/>
<path d="M284.227 109.277C286.862 110.19 288.923 111.759 290.409 113.982C292.61 117.234 292.971 120.991 291.493 125.254C290.23 128.896 287.973 131.442 284.721 132.89C281.809 134.196 278.828 134.32 275.78 133.263C273.067 132.322 270.951 130.662 269.432 128.283C267.352 125.015 267.038 121.289 268.489 117.104C269.744 113.487 271.975 110.976 275.182 109.57C278.112 108.299 281.127 108.202 284.227 109.277ZM276.272 132.218C277.305 132.576 278.328 132.714 279.341 132.631C282.942 132.346 285.719 129.387 287.672 123.755C290.118 116.616 288.806 112.138 283.734 110.321C283.011 110.071 282.3 109.911 281.6 109.842C277.539 109.533 274.443 112.454 272.311 118.602C271.666 120.462 271.278 122.166 271.147 123.712C270.818 128.084 272.526 130.919 276.272 132.218Z" fill="#BA0810"/>
<path d="M292.881 114.161L293.396 113.226L302.198 118.074L301.683 119.008L298.845 117.445L292.059 129.768C291.201 131.325 290.643 132.735 290.385 133.997C289.793 136.886 290.958 139.136 293.88 140.745C294.168 140.903 294.462 141.049 294.762 141.184C298.409 142.724 301.512 141.171 304.071 136.524L310.917 124.093L308.043 122.51L308.557 121.576L315.563 125.434L315.049 126.368L312.174 124.786L305.447 137.001C304.709 138.342 303.917 139.467 303.073 140.376C300.288 143.337 296.787 143.657 292.572 141.335C287.052 138.264 285.811 133.913 288.85 128.282L295.755 115.743L292.881 114.161Z" fill="#BA0810"/>
<path d="M306.54 150.627L298.666 144.383L299.329 143.548L301.9 145.587L315.865 127.975L313.294 125.936L313.957 125.101L323.47 132.644C325.141 133.969 326.238 135.468 326.762 137.139C327.39 139.208 327.067 141.045 325.793 142.652C325.266 143.316 324.609 143.859 323.821 144.281C321.78 145.315 319.546 145.271 317.12 144.15L315.719 156.545L316.94 157.513C317.09 157.632 317.211 157.745 317.301 157.851C317.507 158.119 317.423 158.489 317.049 158.96L312.196 155.112L314.062 142.197L311.009 139.776L304.664 147.778L307.203 149.791L306.54 150.627ZM321.843 132.715L318.629 130.167L311.748 138.844L315.059 141.469C316.023 142.233 317.098 142.615 318.286 142.614C320.036 142.607 321.523 141.832 322.747 140.289C323.29 139.603 323.669 138.839 323.883 137.997C324.366 135.937 323.685 134.176 321.843 132.715Z" fill="#BA0810"/>
<path d="M334.53 171.32C333.234 172.371 331.749 172.818 330.074 172.663C327.672 172.393 325.481 171.036 323.5 168.594C321.812 166.513 320.847 164.215 320.604 161.701C320.158 162.063 319.833 162.292 319.628 162.387C319.262 162.543 318.872 162.366 318.459 161.857L325.054 156.509L325.829 157.465C322.192 161.012 321.67 164.427 324.263 167.711C324.935 168.54 325.695 169.173 326.543 169.612C328.373 170.522 330.031 170.374 331.517 169.169C332.091 168.704 332.51 168.135 332.775 167.463C333.232 166.247 333.11 164.339 332.41 161.739C331.631 158.955 331.191 157.305 331.09 156.789C330.596 153.88 331.242 151.702 333.026 150.256C334.215 149.291 335.6 148.872 337.181 148.998C339.489 149.239 341.573 150.507 343.433 152.8C344.965 154.69 345.929 156.725 346.324 158.905C346.578 158.698 346.797 158.556 346.981 158.478C347.368 158.304 347.768 158.473 348.182 158.982L342.607 163.503L341.832 162.548C343.038 161.604 343.806 160.489 344.135 159.201C344.588 157.285 344.091 155.435 342.644 153.651C342.058 152.929 341.408 152.365 340.692 151.96C339.02 151.027 337.473 151.138 336.05 152.292C335.519 152.722 335.123 153.255 334.863 153.888C334.409 155.066 334.545 156.927 335.271 159.471C336.046 162.293 336.49 163.992 336.605 164.568C337.112 167.537 336.42 169.788 334.53 171.32Z" fill="#BA0810"/>
<path d="M335.825 186.909L330.071 177.208L330.988 176.664L332.976 180.015L352.308 168.55L351.179 166.645C349.963 164.918 347.98 164.361 345.229 164.975L342.531 165.813L341.945 164.825L348.999 160.88L359.335 178.307L352.49 182.605L351.904 181.617L353.933 179.651C353.966 179.6 354.03 179.546 354.124 179.49C356.052 177.488 356.451 175.535 355.321 173.63L354.108 171.584L334.775 183.049L336.198 185.448C336.268 185.566 336.326 185.69 336.372 185.822C336.525 186.24 336.342 186.603 335.825 186.909Z" fill="#BA0810"/>
<path d="M341.847 201.55L338.027 192.255L339.013 191.85L340.261 194.885L348.341 191.564L358.119 179.209L357.261 177.122L358.248 176.717L361.771 185.291L360.785 185.696L359.6 182.813L351.039 193.382L364.449 194.611L363.202 191.576L364.188 191.171L366.963 197.923C366.837 197.975 366.705 198.015 366.568 198.041C366.132 198.132 365.8 197.899 365.571 197.343C365.224 196.569 364.589 196.032 363.667 195.73L350.046 194.633L341.586 198.11L342.428 200.158C342.48 200.285 342.519 200.416 342.546 200.553C342.636 200.989 342.403 201.321 341.847 201.55Z" fill="#BA0810"/>
<path d="M346.562 219.687L342.032 202.303L343.064 202.034L343.892 205.209L365.642 199.541L364.815 196.366L365.847 196.097L368.432 206.02L367.4 206.289L366.532 202.955L344.781 208.622L346.198 214.06C346.274 214.351 346.38 214.648 346.515 214.952C347.245 216.344 348.91 217.041 351.51 217.041L354.345 217.023L354.552 217.817L346.562 219.687Z" fill="#BA0810"/>
<path d="M365.062 233.966L364.968 233.151L366.818 232.36C366.923 232.32 367.054 232.264 367.211 232.191C369.749 231.045 370.905 229.495 370.68 227.539L369.929 221.019L359.743 222.193L360.709 230.586L359.528 230.722L358.561 222.329L347.6 223.591L348.351 230.111C348.404 230.572 348.522 230.999 348.705 231.391C349.32 232.669 350.821 233.514 353.209 233.928L355.189 234.277L355.283 235.092L347.925 235.733L345.762 216.949L346.821 216.827L347.197 220.087L369.526 217.515L369.15 214.255L370.209 214.133L372.373 232.917L365.062 233.966Z" fill="#BA0810"/>
<path d="M137.692 214.995C129.404 257.822 149.298 302.855 189.732 324.626C230.167 346.397 278.713 338.215 309.904 307.719M166.685 161.148C197.876 130.652 246.422 122.47 286.857 144.241C327.291 166.012 347.185 211.045 338.897 253.872" stroke="#BA0810" stroke-width="2"/>
<path d="M114.876 244.617L114.392 237.651L115.051 237.605L115.218 240.012L129.099 239.049L129.004 237.681C128.812 236.388 127.87 235.528 126.178 235.103L124.453 234.815L124.403 234.106L129.402 233.886L130.27 246.399L125.289 246.872L125.24 246.163L126.909 245.64C126.942 245.621 126.992 245.609 127.059 245.604C128.682 245.033 129.447 244.064 129.352 242.696L129.25 241.227L115.369 242.19L115.489 243.913C115.494 243.997 115.492 244.082 115.481 244.168C115.449 244.441 115.247 244.591 114.876 244.617Z" fill="#BA0810"/>
<path d="M117.66 261.734L116.734 256.328L117.384 256.217L117.663 257.843L122.197 255.135L121.301 249.904L116.124 248.859L116.334 250.085C116.348 250.169 116.354 250.253 116.352 250.34C116.348 250.615 116.162 250.784 115.795 250.847L115.032 246.393L115.683 246.281L115.953 247.858L131.278 251.003L131.436 251.929L118.053 260.121L118.199 260.971C118.213 261.055 118.219 261.14 118.217 261.226C118.212 261.502 118.027 261.671 117.66 261.734ZM122.875 254.735L128.529 251.345L122.074 250.055L122.875 254.735Z" fill="#BA0810"/>
<path d="M119.891 268.719L118.259 262.717L118.896 262.543L119.429 264.504L124.648 263.085L131.603 256.247L131.237 254.899L131.874 254.726L133.38 260.263L132.743 260.437L132.236 258.574L126.166 264.409L134.308 266.194L133.775 264.234L134.412 264.061L135.598 268.422C135.516 268.445 135.432 268.459 135.346 268.464C135.071 268.486 134.885 268.318 134.788 267.958C134.634 267.457 134.285 267.078 133.742 266.822L125.459 265.101L119.995 266.586L120.355 267.909C120.377 267.991 120.391 268.075 120.397 268.161C120.419 268.436 120.251 268.622 119.891 268.719Z" fill="#BA0810"/>
<path d="M124.73 282.023L120.848 271.602L121.467 271.371L122.175 273.275L135.214 268.418L134.505 266.515L135.124 266.284L137.34 272.233L136.721 272.463L135.977 270.464L122.938 275.321L124.152 278.581C124.217 278.755 124.301 278.932 124.403 279.11C124.94 279.922 126.009 280.246 127.611 280.083L129.355 279.894L129.533 280.37L124.73 282.023Z" fill="#BA0810"/>
<path d="M141.979 281.839C142.737 283.39 142.956 284.978 142.638 286.603C142.184 288.991 140.701 290.797 138.192 292.023C136.047 293.07 133.945 293.201 131.885 292.417C130.037 291.718 128.675 290.471 127.799 288.676C127.019 287.079 126.816 285.426 127.188 283.719C127.702 281.377 129.191 279.605 131.656 278.402C133.785 277.362 135.861 277.234 137.882 278.018C139.722 278.74 141.088 280.013 141.979 281.839ZM128.471 288.432C128.768 289.041 129.157 289.548 129.638 289.954C131.343 291.401 133.853 291.315 137.169 289.696C141.36 287.632 142.739 285.094 141.307 282.082C141.099 281.656 140.857 281.275 140.58 280.94C138.932 279.031 136.298 278.961 132.678 280.728C131.583 281.263 130.669 281.841 129.936 282.462C127.883 284.237 127.395 286.227 128.471 288.432Z" fill="#BA0810"/>
<path d="M134.38 299.621L131.067 294.356L131.626 294.005L132.707 295.724L144.484 288.313L143.402 286.594L143.961 286.243L147.964 292.604C148.667 293.721 148.999 294.822 148.961 295.906C148.903 297.243 148.336 298.249 147.262 298.925C146.817 299.205 146.322 299.387 145.775 299.471C144.371 299.655 143.075 299.17 141.889 298.016L138.522 304.965L139.036 305.781C139.099 305.882 139.146 305.972 139.177 306.053C139.242 306.252 139.117 306.45 138.802 306.649L136.76 303.404L140.506 296.246L139.221 294.205L133.87 297.572L134.939 299.27L134.38 299.621ZM146.999 292.311L145.647 290.162L139.845 293.813L141.237 296.026C141.643 296.671 142.193 297.115 142.886 297.359C143.91 297.715 144.937 297.568 145.969 296.919C146.427 296.63 146.806 296.262 147.104 295.815C147.809 294.711 147.774 293.543 146.999 292.311Z" fill="#BA0810"/>
<path d="M142.785 301.468L146.236 306.116L145.278 306.828L141.826 302.18L142.785 301.468Z" fill="#BA0810"/>
<path d="M166.195 314.763L165.703 315.204L164.348 313.69L153.98 322.969L154.895 323.991C154.951 324.054 155.001 324.123 155.045 324.197C155.188 324.433 155.12 324.675 154.843 324.923L150.779 320.382L151.271 319.942L152.626 321.456L161.783 313.26L148.128 317.61L147.772 317.213L152.786 305.263L144.65 312.544L145.565 313.566C145.621 313.629 145.671 313.698 145.715 313.772C145.858 314.008 145.791 314.25 145.513 314.498L142.126 310.714L142.618 310.274L143.973 311.788L154.341 302.508L152.986 300.995L153.478 300.555L155.9 303.26L150.576 315.93L163.486 311.736L166.195 314.763Z" fill="#BA0810"/>
<path d="M164.652 332.894L160.545 329.26L160.982 328.765L162.218 329.859L164.056 324.908L160.082 321.391L155.392 323.818L156.324 324.643C156.387 324.699 156.445 324.761 156.497 324.83C156.666 325.047 156.627 325.296 156.38 325.574L152.996 322.579L153.433 322.085L154.631 323.145L168.549 316L169.253 316.623L163.948 331.39L164.595 331.962C164.658 332.018 164.716 332.081 164.768 332.15C164.937 332.367 164.898 332.615 164.652 332.894ZM164.335 324.172L166.62 317.988L160.779 321.025L164.335 324.172Z" fill="#BA0810"/>
<path d="M172.339 319.297L178.109 323.407C179.515 324.409 180.513 325.618 181.103 327.036C182.055 329.377 181.686 331.733 179.997 334.104C178.691 335.938 177.037 337.004 175.037 337.304C173.012 337.608 171.069 337.097 169.208 335.771L163.5 331.705L163.883 331.167L165.538 332.346L173.61 321.013L171.956 319.835L172.339 319.297ZM177.664 323.9L175.389 322.28L167.316 333.613L169.653 335.277C169.929 335.474 170.212 335.645 170.504 335.79C173.103 337.101 175.625 336.04 178.071 332.607C178.787 331.601 179.303 330.658 179.616 329.78C180.493 327.412 179.842 325.452 177.664 323.9Z" fill="#BA0810"/>
<path d="M190.916 336.447L190.474 336.196L190.754 334.983C190.773 334.915 190.793 334.829 190.814 334.724C191.168 333.037 190.816 331.893 189.756 331.291L186.223 329.285L183.088 334.804L187.636 337.387L187.273 338.028L182.725 335.444L179.352 341.383L182.884 343.39C183.134 343.532 183.391 343.629 183.653 343.681C184.517 343.84 185.487 343.399 186.566 342.357L187.465 341.495L187.906 341.745L185.539 345.657L175.361 339.876L175.687 339.302L177.453 340.305L184.325 328.206L182.558 327.203L182.884 326.629L193.062 332.41L190.916 336.447Z" fill="#BA0810"/>
<path d="M206.4 341.487C206.264 341.833 206.042 342.164 205.735 342.48C204.912 343.32 203.85 343.728 202.549 343.706C203.176 344.099 203.69 344.548 204.092 345.052C204.936 346.186 205.11 347.383 204.612 348.643C204.295 349.446 203.759 350.089 203.004 350.574C201.549 351.492 199.807 351.55 197.776 350.748L191.068 348.1L191.311 347.486L193.2 348.232L198.31 335.29L196.421 334.544L196.663 333.93L203.3 336.55C204.339 336.96 205.157 337.493 205.754 338.147C206.657 339.177 206.873 340.29 206.4 341.487ZM202.49 336.94L200.341 336.092L198.15 341.642L200.252 342.471C200.882 342.72 201.492 342.788 202.082 342.675C203.09 342.473 203.796 341.86 204.2 340.837C204.287 340.616 204.356 340.397 204.405 340.18C204.75 338.661 204.112 337.581 202.49 336.94ZM200.449 343.286L197.898 342.279L195.231 349.033L197.9 350.087C198.624 350.373 199.333 350.398 200.027 350.163C201.081 349.796 201.848 349.007 202.326 347.795C202.532 347.275 202.627 346.758 202.612 346.242C202.602 344.837 201.881 343.852 200.449 343.286Z" fill="#BA0810"/>
<path d="M216.327 356.425L211.054 354.916L211.236 354.282L212.823 354.736L212.347 349.476L207.245 348.016L204.059 352.228L205.255 352.57C205.336 352.594 205.415 352.625 205.492 352.665C205.739 352.788 205.811 353.029 205.708 353.387L201.363 352.143L201.545 351.509L203.082 351.949L212.56 339.501L213.463 339.76L215.044 355.371L215.874 355.609C215.955 355.632 216.034 355.663 216.111 355.703C216.357 355.826 216.429 356.067 216.327 356.425ZM212.281 348.691L211.676 342.127L207.716 347.385L212.281 348.691Z" fill="#BA0810"/>
<path d="M220.841 356.928L214.721 355.812L214.839 355.163L216.837 355.527L219.332 341.838L217.333 341.474L217.452 340.825L224.845 342.172C226.144 342.409 227.181 342.907 227.954 343.668C228.9 344.614 229.259 345.712 229.031 346.961C228.937 347.477 228.737 347.965 228.429 348.426C227.616 349.585 226.383 350.212 224.731 350.307L227.578 357.484L228.528 357.657C228.644 357.678 228.743 357.705 228.823 357.737C229.014 357.823 229.076 358.05 229.009 358.416L225.237 357.729L222.492 350.131L220.119 349.699L218.985 355.918L220.959 356.278L220.841 356.928ZM223.978 342.685L221.48 342.23L220.251 348.974L222.824 349.443C223.573 349.58 224.272 349.475 224.92 349.128C225.874 348.614 226.46 347.757 226.679 346.558C226.776 346.025 226.76 345.498 226.632 344.975C226.295 343.709 225.41 342.946 223.978 342.685Z" fill="#BA0810"/>
<path d="M240.154 347.196C240.123 347.567 240.005 347.948 239.802 348.338C239.255 349.379 238.355 350.076 237.102 350.428C237.816 350.624 238.437 350.906 238.967 351.274C240.101 352.118 240.611 353.215 240.497 354.564C240.423 355.424 240.095 356.195 239.51 356.875C238.381 358.173 236.728 358.729 234.552 358.544L227.367 357.933L227.423 357.276L229.447 357.448L230.625 343.583L228.601 343.412L228.657 342.754L235.766 343.358C236.879 343.452 237.816 343.727 238.575 344.182C239.737 344.91 240.263 345.914 240.154 347.196ZM235.103 343.964L232.801 343.768L232.296 349.714L234.547 349.905C235.222 349.962 235.826 349.852 236.359 349.575C237.267 349.091 237.767 348.301 237.86 347.205C237.88 346.969 237.882 346.74 237.867 346.518C237.762 344.963 236.84 344.111 235.103 343.964ZM234.97 350.629L232.238 350.397L231.623 357.632L234.482 357.875C235.258 357.941 235.944 357.762 236.541 357.337C237.446 356.683 237.953 355.707 238.063 354.408C238.111 353.852 238.053 353.329 237.891 352.839C237.478 351.496 236.505 350.759 234.97 350.629Z" fill="#BA0810"/>
<path d="M251.11 348.005L250.603 348.01L250.234 346.821C250.216 346.754 250.19 346.669 250.155 346.568C249.611 344.932 248.73 344.121 247.512 344.135L243.45 344.181L243.521 350.528L248.751 350.469L248.76 351.205L243.53 351.264L243.607 358.094L247.669 358.048C247.957 358.045 248.227 358 248.48 357.912C249.306 357.615 249.923 356.745 250.33 355.301L250.672 354.104L251.179 354.098L251.104 358.67L239.4 358.802L239.392 358.142L241.423 358.119L241.266 344.206L239.235 344.229L239.227 343.568L250.932 343.436L251.11 348.005Z" fill="#BA0810"/>
<path d="M258.124 357.843L251.939 358.51L251.868 357.854L253.888 357.636L252.396 343.802L250.376 344.02L250.305 343.363L257.778 342.557C259.09 342.416 260.225 342.6 261.183 343.11C262.358 343.749 263.014 344.7 263.15 345.962C263.207 346.484 263.153 347.009 262.988 347.537C262.537 348.88 261.533 349.831 259.976 350.39L264.743 356.465L265.702 356.362C265.82 356.349 265.922 356.346 266.008 356.354C266.215 356.383 266.339 356.582 266.379 356.953L262.567 357.364L257.779 350.857L255.381 351.116L256.059 357.402L258.053 357.187L258.124 357.843ZM257.091 343.296L254.567 343.568L255.302 350.384L257.902 350.103C258.659 350.022 259.3 349.723 259.823 349.207C260.592 348.443 260.911 347.455 260.78 346.243C260.722 345.705 260.557 345.203 260.286 344.739C259.603 343.62 258.538 343.139 257.091 343.296Z" fill="#BA0810"/>
<path d="M280.183 349.26C280.434 350.261 280.296 351.212 279.771 352.111C278.991 353.388 277.657 354.262 275.768 354.735C274.159 355.137 272.617 355.078 271.144 354.556C271.23 354.901 271.273 355.143 271.273 355.283C271.265 355.529 271.064 355.702 270.669 355.8L269.394 350.701L270.133 350.517C271.172 353.485 272.952 354.671 275.473 354.076C276.113 353.915 276.667 353.655 277.135 353.293C278.125 352.505 278.476 351.536 278.188 350.387C278.077 349.943 277.868 349.559 277.56 349.235C276.998 348.66 275.895 348.229 274.253 347.942C272.488 347.651 271.447 347.466 271.131 347.388C269.37 346.904 268.316 345.972 267.972 344.593C267.742 343.673 267.869 342.786 268.353 341.932C269.092 340.701 270.348 339.863 272.122 339.419C273.583 339.054 274.977 339.046 276.303 339.395C276.254 339.198 276.231 339.037 276.235 338.914C276.239 338.651 276.439 338.471 276.833 338.372L277.911 342.683L277.172 342.868C276.958 341.944 276.533 341.221 275.897 340.7C274.94 339.945 273.772 339.74 272.393 340.085C271.834 340.224 271.348 340.442 270.933 340.737C269.973 341.431 269.63 342.328 269.905 343.429C270.008 343.839 270.203 344.2 270.49 344.512C271.032 345.075 272.112 345.485 273.729 345.744C275.515 346.047 276.585 346.242 276.938 346.329C278.736 346.821 279.818 347.798 280.183 349.26Z" fill="#BA0810"/>
<path d="M287.018 350.916L281.176 353.054L280.949 352.434L282.856 351.736L278.074 338.67L276.166 339.368L275.94 338.748L281.781 336.61L282.008 337.23L280.124 337.919L282.306 343.88L289.626 341.201L287.444 335.24L285.537 335.938L285.31 335.318L291.152 333.18L291.379 333.8L289.495 334.489L294.278 347.556L295.541 347.093C295.621 347.064 295.703 347.043 295.788 347.03C296.06 346.984 296.26 347.137 296.388 347.486L290.546 349.624L290.319 349.004L292.227 348.306L289.879 341.892L282.559 344.572L284.907 350.986L286.171 350.523C286.25 350.494 286.333 350.473 286.418 350.46C286.69 350.414 286.89 350.566 287.018 350.916Z" fill="#BA0810"/>
<path d="M295.589 330.206C297.131 329.429 298.716 329.19 300.345 329.488C302.738 329.912 304.563 331.371 305.82 333.866C306.893 335.997 307.051 338.098 306.293 340.167C305.617 342.023 304.387 343.401 302.603 344.299C301.016 345.099 299.366 345.323 297.654 344.973C295.306 344.488 293.515 343.021 292.282 340.571C291.215 338.455 291.062 336.381 291.82 334.35C292.519 332.501 293.775 331.12 295.589 330.206ZM302.351 343.63C302.956 343.326 303.458 342.93 303.858 342.445C305.284 340.722 305.166 338.213 303.506 334.917C301.389 330.753 298.834 329.405 295.841 330.875C295.418 331.088 295.04 331.335 294.708 331.616C292.82 333.288 292.783 335.922 294.595 339.52C295.143 340.608 295.733 341.515 296.363 342.24C298.163 344.271 300.159 344.734 302.351 343.63Z" fill="#BA0810"/>
<path d="M306.186 324.938L303.856 326.431L307.692 332.417L309.658 331.156C309.829 331.047 309.996 330.93 310.158 330.806C311.692 329.562 311.866 328.013 310.678 326.16C310.404 325.733 310.092 325.37 309.74 325.073C308.639 324.17 307.454 324.125 306.186 324.938ZM313.857 337.332L308.171 340.976L307.815 340.42L309.525 339.324L302.017 327.609L300.307 328.705L299.951 328.15L306.279 324.094C307.191 323.51 308.075 323.164 308.931 323.058C310.522 322.842 311.77 323.44 312.674 324.851C313.094 325.506 313.315 326.18 313.335 326.87C313.429 328.68 312.308 330.333 309.97 331.831L308.089 333.037L311.363 338.146L312.945 337.132C313.017 337.087 313.092 337.048 313.173 337.017C313.428 336.913 313.656 337.018 313.857 337.332Z" fill="#BA0810"/>
<path d="M218.153 165.418C210.75 161.431 206.608 168.317 214.348 172.485L299.156 218.148C305.887 221.772 309.692 214.705 302.962 211.081" stroke="#BA0810"/>
<path d="M218.153 165.418C220.173 166.505 220.975 168.24 218.49 171.243" stroke="#BA0810"/>
<path d="M303.137 211.176C301.117 210.089 299.228 210.373 298.089 214.101" stroke="#BA0810"/>
<path d="M171.464 254.449C164.06 250.462 167.529 243.214 175.269 247.382L260.078 293.045C266.808 296.669 263.003 303.736 256.272 300.112" stroke="#BA0810"/>
<path d="M171.464 254.449C173.483 255.536 175.373 255.252 176.512 251.524" stroke="#BA0810"/>
<path d="M256.447 300.205C254.428 299.118 253.625 297.383 256.111 294.38" stroke="#BA0810"/>
<path d="M285.839 178.546C286.535 178.92 287.084 179.5 287.364 180.158C287.645 180.816 287.634 181.498 287.335 182.054C287.036 182.61 286.472 182.994 285.769 183.122C285.065 183.25 284.279 183.112 283.583 182.737C283.411 182.629 283.25 182.506 283.103 182.371L282.509 181.808C282.27 181.519 282.096 181.2 281.999 180.87L281.863 180.054C281.865 179.747 281.936 179.454 282.072 179.193C282.224 178.92 282.442 178.686 282.713 178.506C282.984 178.325 283.304 178.202 283.654 178.141C284.004 178.081 284.377 178.086 284.752 178.155C285.127 178.225 285.496 178.357 285.839 178.546ZM271.225 167.973C271.873 168.322 272.385 168.862 272.648 169.475C272.911 170.088 272.904 170.724 272.629 171.243C272.454 171.555 272.186 171.81 271.847 171.983C271.509 172.157 271.111 172.245 270.688 172.239L270.152 172.167C269.814 172.103 269.481 171.987 269.167 171.826C268.853 171.652 268.57 171.431 268.334 171.174L268.139 170.907C267.835 170.54 267.637 170.124 267.565 169.704C267.493 169.285 267.55 168.877 267.73 168.524C268.021 168.017 268.553 167.672 269.21 167.564C269.867 167.457 270.596 167.597 271.236 167.952L271.225 167.973ZM260.397 175.511L267.174 172.51C267.861 173.168 268.739 173.641 269.667 173.852L270.904 181.141L280.347 181.454C280.481 181.758 280.651 182.054 280.854 182.336L272.736 188.927L252.913 178.253L253.947 167.848C254.294 167.863 254.634 167.842 254.961 167.786L260.397 175.511ZM254.178 161.917C254.474 162.075 254.742 162.278 254.967 162.514C255.192 162.751 255.369 163.016 255.488 163.295C255.607 163.574 255.665 163.861 255.66 164.14C255.655 164.418 255.586 164.682 255.457 164.917C255.335 165.134 255.165 165.322 254.955 165.471L254.31 165.759C253.945 165.86 253.54 165.871 253.131 165.792C252.723 165.712 252.324 165.545 251.973 165.306C251.622 165.067 251.329 164.763 251.121 164.423C250.914 164.082 250.799 163.717 250.787 163.359C250.774 163.002 250.865 162.665 251.051 162.379C251.237 162.093 251.512 161.868 251.851 161.724C252.189 161.58 252.58 161.523 252.986 161.556C253.393 161.59 253.803 161.714 254.178 161.917ZM270.374 193.534L250.393 182.776L251.623 180.492L271.604 191.25L270.374 193.534Z" fill="#BA0810"/>
</svg>
