<svg width="458" height="458" viewBox="0 0 458 458" fill="none" xmlns="http://www.w3.org/2000/svg">
<path d="M85.0041 205.547C78.8041 205.548 75.7042 211.528 75.7044 223.488L75.7045 228.228C75.7047 233.908 76.5247 238.368 78.1648 241.608C79.8049 244.808 82.2249 246.407 85.4249 246.407C89.8249 246.407 93.8648 242.127 97.5446 233.567L98.6246 233.567L98.2049 246.947L97.5449 246.947C97.3049 246.507 97.0849 246.207 96.8849 246.047C96.6849 245.847 96.3849 245.747 95.9849 245.747C95.6249 245.747 94.1849 246.067 91.6649 246.707C89.1449 247.307 86.5849 247.607 83.9849 247.607C77.4649 247.608 72.4049 245.848 68.8048 242.328C65.2447 238.808 63.4646 233.528 63.4645 226.488C63.4644 219.408 65.3243 213.948 69.0442 210.108C72.8041 206.268 77.8441 204.348 84.1641 204.347C86.6041 204.347 88.9841 204.667 91.3041 205.307C93.6641 205.907 95.0441 206.207 95.4441 206.207C95.8441 206.207 96.1441 206.127 96.3441 205.967C96.5441 205.767 96.7641 205.447 97.0041 205.007L97.6641 205.007L98.1443 218.027L97.0643 218.027C95.2643 213.987 93.4042 210.907 91.4842 208.787C89.6041 206.627 87.4441 205.547 85.0041 205.547Z" fill="#BA0810"/>
<path d="M103.69 205.007L134.89 205.006L135.49 216.886L134.41 216.886C132.73 212.847 130.97 210.087 129.13 208.607C127.29 207.087 124.59 206.327 121.03 206.327L118.93 206.327L118.93 224.867L120.97 224.867C122.85 224.867 124.43 224.167 125.71 222.767C126.99 221.327 127.89 219.407 128.41 217.007L129.31 217.007L129.31 234.767L128.29 234.767C127.57 231.767 126.59 229.627 125.35 228.347C124.15 227.067 122.49 226.427 120.37 226.427L118.93 226.427L118.931 245.687L121.211 245.687C124.891 245.687 128.011 244.587 130.571 242.387C133.171 240.186 134.951 237.366 135.91 233.926L137.11 233.926L136.631 247.006L103.691 247.007L103.691 245.687L107.231 245.687L107.23 206.327L103.69 206.327L103.69 205.007Z" fill="#BA0810"/>
<path d="M159.552 225.766L156.372 225.766L156.372 245.866L160.272 245.866L160.272 247.006L140.772 247.006L140.772 245.866L144.672 245.866L144.671 206.146L140.771 206.146L140.771 205.006L158.891 205.006C164.091 205.006 167.771 205.286 169.931 205.846C172.131 206.366 173.671 207.006 174.551 207.766C176.471 209.326 177.431 211.806 177.431 215.206C177.432 218.606 176.592 221.046 174.912 222.526C173.232 223.966 170.672 224.826 167.232 225.106L167.232 225.286C170.472 225.726 172.732 226.686 174.012 228.166C175.292 229.646 175.932 232.126 175.932 235.606L175.932 238.786C175.932 240.866 176.032 242.266 176.232 242.986C176.472 243.706 176.952 244.066 177.672 244.066C178.392 244.066 178.952 243.746 179.352 243.106C179.792 242.426 180.192 241.026 180.552 238.906L181.572 239.026C181.132 242.426 180.352 244.706 179.232 245.866C178.152 247.026 175.972 247.606 172.692 247.606C169.412 247.606 167.072 246.846 165.672 245.326C164.312 243.766 163.632 240.866 163.632 236.626L163.632 232.246C163.632 230.006 163.332 228.366 162.732 227.326C162.172 226.286 161.112 225.766 159.552 225.766ZM156.371 206.146L156.372 224.626L158.292 224.626C160.572 224.626 162.252 223.926 163.332 222.526C164.452 221.126 165.012 218.846 165.011 215.686L165.011 213.946C165.011 210.786 164.471 208.706 163.391 207.706C162.351 206.666 160.671 206.146 158.351 206.146L156.371 206.146Z" fill="#BA0810"/>
<path d="M217.992 205.005L218.593 220.065L217.453 220.065C215.692 214.745 214.132 211.125 212.772 209.205C211.412 207.245 209.452 206.265 206.892 206.265L206.172 206.265L206.173 245.745L211.273 245.745L211.273 247.005L189.373 247.005L189.373 245.745L194.473 245.745L194.472 206.265L193.692 206.265C191.132 206.265 189.152 207.285 187.752 209.325C186.352 211.325 184.812 214.905 183.133 220.066L181.993 220.066L182.592 205.006L217.992 205.005Z" fill="#BA0810"/>
<path d="M222.289 205.005L240.589 205.004L240.589 206.144L237.289 206.144L237.29 245.864L240.59 245.864L240.59 247.004L222.29 247.005L222.29 245.865L225.59 245.865L225.589 206.145L222.289 206.145L222.289 205.005Z" fill="#BA0810"/>
<path d="M243.377 205.004L274.577 205.004L275.178 217.484L274.098 217.484C272.618 213.164 270.897 210.224 268.937 208.664C267.017 207.104 264.137 206.324 260.297 206.324L258.617 206.324L258.618 225.824L261.318 225.824C263.238 225.824 264.838 225.124 266.118 223.724C267.398 222.324 268.278 220.404 268.758 217.964L269.658 217.964L269.658 235.724L268.638 235.724C267.998 232.724 267.098 230.584 265.938 229.304C264.818 228.024 263.278 227.384 261.318 227.384L258.618 227.384L258.618 245.684L266.058 245.684L266.058 247.004L243.378 247.004L243.378 245.684L246.918 245.684L246.917 206.324L243.377 206.324L243.377 205.004Z" fill="#BA0810"/>
<path d="M279.125 205.004L297.425 205.003L297.425 206.143L294.125 206.143L294.126 245.863L297.426 245.863L297.426 247.003L279.126 247.004L279.126 245.864L282.426 245.864L282.425 206.144L279.125 206.144L279.125 205.004Z" fill="#BA0810"/>
<path d="M300.213 205.003L331.413 205.003L332.014 216.883L330.934 216.883C329.253 212.843 327.493 210.083 325.653 208.603C323.813 207.083 321.113 206.323 317.553 206.323L315.453 206.323L315.454 224.863L317.494 224.863C319.374 224.863 320.954 224.163 322.234 222.763C323.514 221.323 324.414 219.403 324.934 217.003L325.834 217.003L325.834 234.763L324.814 234.763C324.094 231.763 323.114 229.623 321.874 228.343C320.674 227.063 319.014 226.423 316.894 226.423L315.454 226.423L315.454 245.683L317.734 245.683C321.414 245.683 324.534 244.583 327.094 242.383C329.694 240.183 331.474 237.363 332.434 233.923L333.634 233.923L333.154 247.003L300.214 247.003L300.214 245.683L303.754 245.683L303.753 206.323L300.213 206.323L300.213 205.003Z" fill="#BA0810"/>
<path d="M379.235 225.282C379.235 233.522 376.915 239.262 372.275 242.502C367.995 245.502 362.116 247.002 354.636 247.002L337.656 247.003L337.656 245.863L341.616 245.862L341.615 206.142L337.655 206.143L337.655 205.003L356.195 205.002C363.875 205.002 369.635 206.582 373.475 209.742C377.315 212.862 379.235 218.042 379.235 225.282ZM353.316 245.862L355.596 245.862C359.636 245.862 362.515 244.442 364.235 241.602C365.995 238.722 366.875 233.922 366.875 227.202L366.875 223.722C366.875 214.722 365.155 209.302 361.715 207.462C360.075 206.582 357.755 206.142 354.755 206.142L353.315 206.142L353.316 245.862Z" fill="#BA0810"/>
<path d="M387.146 247.602C385.426 247.602 384.126 247.102 383.246 246.102C382.406 245.062 381.986 243.822 381.986 242.382C381.986 240.902 382.426 239.662 383.306 238.662C384.226 237.662 385.506 237.162 387.146 237.162C388.786 237.162 390.086 237.581 391.046 238.421C392.006 239.261 392.486 240.521 392.486 242.201C392.486 243.881 392.026 245.201 391.106 246.161C390.226 247.121 388.906 247.602 387.146 247.602Z" fill="#BA0810"/>
<rect x="422.014" y="215.512" width="4" height="12" rx="1" transform="rotate(89.9989 422.014 215.512)" fill="#BA0810"/>
<rect x="416.004" y="209.502" width="4" height="12" rx="1" transform="rotate(89.9989 416.004 209.502)" fill="#BA0810"/>
<rect x="421.764" y="227.633" width="4" height="12" rx="1" transform="rotate(93.5359 421.764 227.633)" fill="#BA0810"/>
<rect x="420.777" y="239.59" width="4" height="12" rx="1" transform="rotate(97.0644 420.777 239.59)" fill="#BA0810"/>
<rect x="419.068" y="251.381" width="4" height="12" rx="1" transform="rotate(100.579 419.068 251.381)" fill="#BA0810"/>
<rect x="416.516" y="263.539" width="4" height="12" rx="1" transform="rotate(104.291 416.516 263.539)" fill="#BA0810"/>
<rect x="413.216" y="275.402" width="4" height="12" rx="1" transform="rotate(107.979 413.216 275.402)" fill="#BA0810"/>
<rect x="409.354" y="286.52" width="4" height="12" rx="1" transform="rotate(111.425 409.354 286.52)" fill="#BA0810"/>
<rect x="404.634" y="297.793" width="4" height="12" rx="1" transform="rotate(115.061 404.634 297.793)" fill="#BA0810"/>
<rect x="399.226" y="308.711" width="4" height="12" rx="1" transform="rotate(118.67 399.226 308.711)" fill="#BA0810"/>
<rect x="393.15" y="319.248" width="4" height="12" rx="1" transform="rotate(122.256 393.15 319.248)" fill="#BA0810"/>
<rect x="386.258" y="329.625" width="4" height="12" rx="1" transform="rotate(126.032 386.258 329.625)" fill="#BA0810"/>
<rect x="378.927" y="339.27" width="4" height="12" rx="1" transform="rotate(129.583 378.927 339.27)" fill="#BA0810"/>
<rect x="371.005" y="348.443" width="4" height="12" rx="1" transform="rotate(133.125 371.005 348.443)" fill="#BA0810"/>
<rect x="362.521" y="357.111" width="4" height="12" rx="1" transform="rotate(136.664 362.521 357.111)" fill="#BA0810"/>
<rect x="353.506" y="365.242" width="4" height="12" rx="1" transform="rotate(140.206 353.506 365.242)" fill="#BA0810"/>
<rect x="343.992" y="372.801" width="4" height="12" rx="1" transform="rotate(143.757 343.992 372.801)" fill="#BA0810"/>
<rect x="333.908" y="379.832" width="4" height="12" rx="1" transform="rotate(147.532 333.908 379.832)" fill="#BA0810"/>
<rect x="323.52" y="386.135" width="4" height="12" rx="1" transform="rotate(151.116 323.52 386.135)" fill="#BA0810"/>
<rect x="312.747" y="391.777" width="4" height="12" rx="1" transform="rotate(154.724 312.747 391.777)" fill="#BA0810"/>
<rect x="301.634" y="396.732" width="4" height="12" rx="1" transform="rotate(158.358 301.634 396.732)" fill="#BA0810"/>
<rect x="290.279" y="400.951" width="4" height="12" rx="1" transform="rotate(161.802 290.279 400.951)" fill="#BA0810"/>
<rect x="278.613" y="404.471" width="4" height="12" rx="1" transform="rotate(165.489 278.613 404.471)" fill="#BA0810"/>
<rect x="266.752" y="407.246" width="4" height="12" rx="1" transform="rotate(169.2 266.752 407.246)" fill="#BA0810"/>
<rect x="254.771" y="409.254" width="4" height="12" rx="1" transform="rotate(172.713 254.771 409.254)" fill="#BA0810"/>
<rect x="242.683" y="410.508" width="4" height="12" rx="1" transform="rotate(176.241 242.683 410.508)" fill="#BA0810"/>
<rect x="229.754" y="411.021" width="4" height="12" rx="1" transform="rotate(-179.78 229.754 411.021)" fill="#BA0810"/>
<rect x="217.606" y="410.723" width="4" height="12" rx="1" transform="rotate(-176.243 217.606 410.723)" fill="#BA0810"/>
<rect x="205.503" y="409.67" width="4" height="12" rx="1" transform="rotate(-172.715 205.503 409.67)" fill="#BA0810"/>
<rect x="193.498" y="407.859" width="4" height="12" rx="1" transform="rotate(-169.202 193.498 407.859)" fill="#BA0810"/>
<rect x="181.6" y="405.297" width="4" height="12" rx="1" transform="rotate(-165.491 181.6 405.297)" fill="#BA0810"/>
<rect x="169.887" y="401.984" width="4" height="12" rx="1" transform="rotate(-161.805 169.887 401.984)" fill="#BA0810"/>
<rect x="158.479" y="397.955" width="4" height="12" rx="1" transform="rotate(-158.36 158.479 397.955)" fill="#BA0810"/>
<rect x="147.299" y="393.201" width="4" height="12" rx="1" transform="rotate(-154.726 147.299 393.201)" fill="#BA0810"/>
<rect x="136.449" y="387.758" width="4" height="12" rx="1" transform="rotate(-151.119 136.449 387.758)" fill="#BA0810"/>
<rect x="125.86" y="381.584" width="4" height="12" rx="1" transform="rotate(-147.324 125.86 381.584)" fill="#BA0810"/>
<rect x="115.785" y="374.818" width="4" height="12" rx="1" transform="rotate(-143.759 115.785 374.818)" fill="#BA0810"/>
<rect x="106.163" y="367.443" width="4" height="12" rx="1" transform="rotate(-140.208 106.163 367.443)" fill="#BA0810"/>
<rect x="97.0283" y="359.492" width="4" height="12" rx="1" transform="rotate(-136.667 97.0283 359.492)" fill="#BA0810"/>
<rect x="88.416" y="350.998" width="4" height="12" rx="1" transform="rotate(-133.127 88.416 350.998)" fill="#BA0810"/>
<rect x="80.3535" y="341.996" width="4" height="12" rx="1" transform="rotate(-129.585 80.3535 341.996)" fill="#BA0810"/>
<rect x="72.6865" y="332.271" width="4" height="12" rx="1" transform="rotate(-125.825 72.6865 332.271)" fill="#BA0810"/>
<rect x="65.8037" y="322.303" width="4" height="12" rx="1" transform="rotate(-122.258 65.8037 322.303)" fill="#BA0810"/>
<rect x="59.5537" y="311.916" width="4" height="12" rx="1" transform="rotate(-118.672 59.5537 311.916)" fill="#BA0810"/>
<rect x="53.957" y="301.141" width="4" height="12" rx="1" transform="rotate(-115.063 53.957 301.141)" fill="#BA0810"/>
<rect x="49.0371" y="289.998" width="4" height="12" rx="1" transform="rotate(-111.428 49.0371 289.998)" fill="#BA0810"/>
<rect x="44.8154" y="278.516" width="4" height="12" rx="1" transform="rotate(-107.765 44.8154 278.516)" fill="#BA0810"/>
<rect x="41.4551" y="267.244" width="4" height="12" rx="1" transform="rotate(-104.294 41.4551 267.244)" fill="#BA0810"/>
<rect x="38.6689" y="255.186" width="4" height="12" rx="1" transform="rotate(-100.581 38.6689 255.186)" fill="#BA0810"/>
<rect x="36.7305" y="243.477" width="4" height="12" rx="1" transform="rotate(-97.0666 36.7305 243.477)" fill="#BA0810"/>
<rect x="35.5078" y="231.588" width="4" height="12" rx="1" transform="rotate(-93.5381 35.5078 231.588)" fill="#BA0810"/>
<rect x="35.0039" y="217.996" width="4" height="12" rx="1" transform="rotate(-89.5588 35.0039 217.996)" fill="#BA0810"/>
<rect x="35.3457" y="205.9" width="4" height="12" rx="1" transform="rotate(-86.0225 35.3457 205.9)" fill="#BA0810"/>
<rect x="36.415" y="194.021" width="4" height="12" rx="1" transform="rotate(-82.4954 36.415 194.021)" fill="#BA0810"/>
<rect x="38.1807" y="182.4" width="4" height="12" rx="1" transform="rotate(-78.9834 38.1807 182.4)" fill="#BA0810"/>
<rect x="40.8301" y="170.199" width="4" height="12" rx="1" transform="rotate(-75.2733 40.8301 170.199)" fill="#BA0810"/>
<rect x="44.2363" y="158.289" width="4" height="12" rx="1" transform="rotate(-71.5887 44.2363 158.289)" fill="#BA0810"/>
<rect x="48.3682" y="146.709" width="4" height="12" rx="1" transform="rotate(-67.9311 48.3682 146.709)" fill="#BA0810"/>
<rect x="52.7637" y="136.416" width="4" height="12" rx="1" transform="rotate(-64.5135 52.7637 136.416)" fill="#BA0810"/>
<rect x="58.1797" y="125.602" width="4" height="12" rx="1" transform="rotate(-60.9071 58.1797 125.602)" fill="#BA0810"/>
<rect x="64.8057" y="114.291" width="4" height="12" rx="1" transform="rotate(-57.1134 64.8057 114.291)" fill="#BA0810"/>
<rect x="71.5283" y="104.346" width="4" height="12" rx="1" transform="rotate(-53.5498 71.5283 104.346)" fill="#BA0810"/>
<rect x="78.8242" y="94.8691" width="4" height="12" rx="1" transform="rotate(-49.9999 78.8242 94.8691)" fill="#BA0810"/>
<rect x="86.668" y="85.8809" width="4" height="12" rx="1" transform="rotate(-46.4584 86.668 85.8809)" fill="#BA0810"/>
<rect x="95.0352" y="77.4023" width="4" height="12" rx="1" transform="rotate(-42.9192 95.0352 77.4023)" fill="#BA0810"/>
<rect x="103.905" y="69.4512" width="4" height="12" rx="1" transform="rotate(-39.3766 103.905 69.4512)" fill="#BA0810"/>
<rect x="114.283" y="61.3008" width="4" height="12" rx="1" transform="rotate(-35.6154 114.283 61.3008)" fill="#BA0810"/>
<rect x="124.173" y="54.5156" width="4" height="12" rx="1" transform="rotate(-32.0477 124.173 54.5156)" fill="#BA0810"/>
<rect x="134.514" y="48.3281" width="4" height="12" rx="1" transform="rotate(-28.4605 134.514 48.3281)" fill="#BA0810"/>
<rect x="145.297" y="42.7617" width="4" height="12" rx="1" transform="rotate(-24.8497 145.297 42.7617)" fill="#BA0810"/>
<rect x="156.513" y="37.8438" width="4" height="12" rx="1" transform="rotate(-21.213 156.513 37.8438)" fill="#BA0810"/>
<rect x="168.154" y="33.6055" width="4" height="12" rx="1" transform="rotate(-17.549 168.154 33.6055)" fill="#BA0810"/>
<rect x="178.844" y="30.4336" width="4" height="12" rx="1" transform="rotate(-14.0759 178.844 30.4336)" fill="#BA0810"/>
<rect x="191.28" y="27.582" width="4" height="12" rx="1" transform="rotate(-10.3617 191.28 27.582)" fill="#BA0810"/>
<rect x="202.682" y="25.707" width="4" height="12" rx="1" transform="rotate(-6.84647 202.682 25.707)" fill="#BA0810"/>
<rect x="214.432" y="24.5" width="4" height="12" rx="1" transform="rotate(-3.3172 214.432 24.5)" fill="#BA0810"/>
<rect x="228.792" y="24.0059" width="4" height="12" rx="1" transform="rotate(0.662388 228.792 24.0059)" fill="#BA0810"/>
<rect x="240.82" y="24.3906" width="4" height="12" rx="1" transform="rotate(4.1983 240.82 24.3906)" fill="#BA0810"/>
<rect x="252.518" y="25.4766" width="4" height="12" rx="1" transform="rotate(7.72456 252.518 25.4766)" fill="#BA0810"/>
<rect x="263.89" y="27.2246" width="4" height="12" rx="1" transform="rotate(11.2355 263.89 27.2246)" fill="#BA0810"/>
<rect x="276.312" y="29.9512" width="4" height="12" rx="1" transform="rotate(14.9441 276.312 29.9512)" fill="#BA0810"/>
<rect x="288.334" y="33.4297" width="4" height="12" rx="1" transform="rotate(18.6272 288.334 33.4297)" fill="#BA0810"/>
<rect x="299.95" y="37.6191" width="4" height="12" rx="1" transform="rotate(22.2832 299.95 37.6191)" fill="#BA0810"/>
<rect x="311.153" y="42.4902" width="4" height="12" rx="1" transform="rotate(25.9121 311.153 42.4902)" fill="#BA0810"/>
<rect x="321.937" y="48.0117" width="4" height="12" rx="1" transform="rotate(29.5156 321.937 48.0117)" fill="#BA0810"/>
<rect x="332.289" y="54.1562" width="4" height="12" rx="1" transform="rotate(33.0967 332.289 54.1562)" fill="#BA0810"/>
<rect x="342.199" y="60.9023" width="4" height="12" rx="1" transform="rotate(36.6593 342.199 60.9023)" fill="#BA0810"/>
<rect x="351.651" y="68.2305" width="4" height="12" rx="1" transform="rotate(40.2086 351.651 68.2305)" fill="#BA0810"/>
<rect x="360.628" y="76.1172" width="4" height="12" rx="1" transform="rotate(43.7498 360.628 76.1172)" fill="#BA0810"/>
<rect x="369.108" y="84.5449" width="4" height="12" rx="1" transform="rotate(47.289 369.108 84.5449)" fill="#BA0810"/>
<rect x="377.794" y="94.377" width="4" height="12" rx="1" transform="rotate(51.0407 377.794 94.377)" fill="#BA0810"/>
<rect x="385.137" y="103.846" width="4" height="12" rx="1" transform="rotate(54.594 385.137 103.846)" fill="#BA0810"/>
<rect x="391.906" y="113.793" width="4" height="12" rx="1" transform="rotate(58.1627 391.906 113.793)" fill="#BA0810"/>
<rect x="398.075" y="124.193" width="4" height="12" rx="1" transform="rotate(61.7513 398.075 124.193)" fill="#BA0810"/>
<rect x="403.61" y="135.023" width="4" height="12" rx="1" transform="rotate(65.3635 403.61 135.023)" fill="#BA0810"/>
<rect x="408.481" y="146.26" width="4" height="12" rx="1" transform="rotate(69.0018 408.481 146.26)" fill="#BA0810"/>
<rect x="412.654" y="157.867" width="4" height="12" rx="1" transform="rotate(72.6674 412.654 157.867)" fill="#BA0810"/>
<rect x="415.876" y="168.939" width="4" height="12" rx="1" transform="rotate(76.1419 415.876 168.939)" fill="#BA0810"/>
<rect x="418.622" y="181.205" width="4" height="12" rx="1" transform="rotate(79.8575 418.622 181.205)" fill="#BA0810"/>
<rect x="420.473" y="192.902" width="4" height="12" rx="1" transform="rotate(83.3738 420.473 192.902)" fill="#BA0810"/>
<rect x="421.617" y="204.865" width="4" height="12" rx="1" transform="rotate(86.9037 421.617 204.865)" fill="#BA0810"/>
<rect x="42.5031" y="180.51" width="372" height="87" stroke="#BA0810" stroke-width="15"/>
<path d="M52.0028 187.596C66.6263 104.888 139.859 42.0081 228 42.0063C316.141 42.0046 389.376 104.882 404.003 187.589M401.448 260.383C382.195 337.114 311.845 394.005 228.007 394.006C144.168 394.008 73.8165 337.12 54.5601 260.389" stroke="#BA0810" stroke-width="2"/>
<path d="M187.841 300.521L187.295 300.521L186.912 299.236C186.893 299.163 186.866 299.072 186.83 298.963C186.265 297.195 185.326 296.31 184.013 296.31L179.638 296.311L179.638 303.146L185.271 303.146L185.271 303.939L179.638 303.939L179.639 311.295L184.014 311.295C184.323 311.295 184.615 311.249 184.889 311.158C185.782 310.848 186.456 309.918 186.912 308.369L187.295 307.084L187.842 307.084L187.705 312.006L175.099 312.006L175.099 311.295L177.287 311.295L177.287 296.311L175.099 296.311L175.099 295.6L187.705 295.599L187.841 300.521Z" fill="#BA0810"/>
<path d="M202.498 307.712C202.498 308.824 202.106 309.781 201.322 310.584C200.174 311.714 198.551 312.279 196.455 312.279C194.668 312.279 193.073 311.814 191.67 310.885C191.67 311.267 191.652 311.532 191.615 311.677C191.542 311.933 191.287 312.06 190.849 312.06L190.849 306.4L191.67 306.4C191.98 309.773 193.529 311.477 196.318 311.513C197.029 311.513 197.676 311.386 198.26 311.13C199.499 310.565 200.119 309.645 200.119 308.369C200.119 307.877 200 307.421 199.763 307.002C199.326 306.254 198.287 305.516 196.646 304.787C194.878 304.021 193.839 303.556 193.529 303.392C191.815 302.426 190.959 301.177 190.959 299.646C190.959 298.625 191.323 297.732 192.052 296.967C193.146 295.873 194.677 295.326 196.646 295.326C198.268 295.326 199.727 295.681 201.021 296.392C201.021 296.173 201.039 296 201.076 295.873C201.149 295.599 201.404 295.462 201.841 295.462L201.841 300.248L201.021 300.248C201.039 299.227 200.784 298.361 200.255 297.65C199.453 296.611 198.287 296.091 196.755 296.091C196.136 296.091 195.571 296.192 195.06 296.392C193.875 296.866 193.283 297.714 193.283 298.935C193.283 299.391 193.392 299.819 193.611 300.22C194.03 300.95 195.051 301.66 196.674 302.353C198.46 303.137 199.526 303.62 199.873 303.802C201.623 304.787 202.498 306.09 202.498 307.712Z" fill="#BA0810"/>
<path d="M215.404 312.005L207.885 312.005L207.885 311.294L210.482 311.294L210.482 296.31L209.005 296.31C207.602 296.419 206.608 297.367 206.025 299.154L205.588 300.986L204.822 300.986L204.959 295.599L218.466 295.599L218.603 300.986L217.838 300.986L217.4 299.154C217.382 299.117 217.373 299.062 217.373 298.989C216.88 297.203 215.896 296.31 214.419 296.31L212.834 296.31L212.834 311.294L214.693 311.294C214.784 311.294 214.876 311.303 214.967 311.322C215.258 311.376 215.404 311.604 215.404 312.005Z" fill="#BA0810"/>
<path d="M223.717 310.747C223.717 310.948 223.671 311.148 223.58 311.349C223.325 311.877 222.905 312.142 222.322 312.142C222.122 312.142 221.921 312.096 221.721 312.005C221.192 311.75 220.928 311.331 220.928 310.747C220.928 310.547 220.973 310.346 221.064 310.146C221.301 309.599 221.721 309.325 222.322 309.325C222.523 309.325 222.714 309.371 222.896 309.462C223.443 309.717 223.717 310.146 223.717 310.747Z" fill="#BA0810"/>
<path d="M232.603 310.091L238.783 310.091C239.166 310.091 239.467 310.072 239.685 310.036C240.196 309.908 240.551 309.525 240.752 308.887L241.189 307.411L241.709 307.411L241.654 312.005L231.236 312.005L231.236 311.458C231.236 310.929 231.336 310.419 231.537 309.927C231.902 309.052 232.776 308.149 234.162 307.22C235.638 306.217 236.459 305.652 236.623 305.524C238.172 304.285 238.947 302.817 238.947 301.122C238.947 300.794 238.92 300.484 238.865 300.192C238.555 298.697 237.589 297.95 235.966 297.95C235.365 297.95 234.9 298.087 234.572 298.36C234.207 298.67 233.97 299.317 233.861 300.302C233.825 300.666 233.788 300.94 233.752 301.122C233.588 301.851 233.15 302.216 232.439 302.216C232.33 302.216 232.211 302.198 232.084 302.161C231.537 301.979 231.263 301.514 231.263 300.767C231.263 299.928 231.591 299.199 232.248 298.579C233.214 297.686 234.535 297.239 236.212 297.239C237.142 297.239 237.981 297.376 238.728 297.649C240.423 298.287 241.271 299.454 241.271 301.149C241.271 302.225 240.806 303.264 239.877 304.266C239.129 305.087 237.735 306.108 235.693 307.329C235.183 307.657 234.809 307.894 234.572 308.04C233.26 308.878 232.603 309.562 232.603 310.091Z" fill="#BA0810"/>
<path d="M250.459 297.239C251.571 297.239 252.564 297.512 253.439 298.059C255.353 299.262 256.31 301.486 256.31 304.731C256.31 306.773 255.855 308.468 254.943 309.817C253.831 311.458 252.3 312.278 250.349 312.278C249.128 312.278 248.043 311.932 247.096 311.239C245.327 309.926 244.443 307.73 244.443 304.649C244.443 302.626 244.908 300.949 245.838 299.618C246.968 298.032 248.508 297.239 250.459 297.239ZM250.431 311.567C250.723 311.567 250.997 311.53 251.252 311.458C253.002 311.002 253.877 308.732 253.877 304.649C253.877 302.68 253.694 301.167 253.33 300.11C252.819 298.67 251.844 297.95 250.404 297.95C249.966 297.95 249.565 298.023 249.201 298.169C247.633 298.77 246.849 300.958 246.849 304.731C246.849 306.281 246.977 307.566 247.232 308.587C247.724 310.574 248.791 311.567 250.431 311.567Z" fill="#BA0810"/>
<path d="M263.556 297.512L265.005 297.512L265.006 311.047L267.822 311.266C267.895 311.266 267.968 311.275 268.041 311.293C268.369 311.366 268.533 311.603 268.533 312.004L259.072 312.004L259.072 311.293L262.818 311.047L262.818 299.207L258.552 301.942L258.06 301.149L263.556 297.512Z" fill="#BA0810"/>
<path d="M281.576 306.973C281.576 308.322 281.175 309.47 280.373 310.418C279.316 311.658 277.866 312.277 276.025 312.277C274.859 312.277 273.865 311.986 273.045 311.402C271.222 310.145 270.31 307.757 270.31 304.238C270.31 302.142 270.675 300.347 271.404 298.852C272.552 296.5 274.375 295.324 276.873 295.324C277.857 295.324 278.741 295.497 279.525 295.844C280.728 296.391 281.33 297.165 281.33 298.168C281.33 298.277 281.321 298.387 281.302 298.496C281.175 299.189 280.746 299.535 280.017 299.535C279.744 299.535 279.507 299.48 279.306 299.371C278.996 299.189 278.796 298.733 278.705 298.004C278.65 297.676 278.604 297.43 278.568 297.266C278.331 296.445 277.675 296.035 276.599 296.035C275.724 296.035 275.004 296.318 274.439 296.883C273.528 297.831 272.981 299.882 272.799 303.035C273.819 302.27 274.995 301.878 276.326 301.859C277.401 301.859 278.377 302.115 279.252 302.625C280.801 303.555 281.576 305.004 281.576 306.973ZM272.635 307.246C272.635 307.994 272.735 308.677 272.935 309.297C273.464 310.81 274.476 311.566 275.971 311.566C276.226 311.566 276.472 311.539 276.709 311.484C278.386 311.12 279.224 309.579 279.224 306.863C279.224 306.043 279.115 305.323 278.896 304.703C278.386 303.336 277.429 302.652 276.025 302.652C275.588 302.652 275.168 302.734 274.767 302.899C273.345 303.518 272.634 304.968 272.635 307.246Z" fill="#BA0810"/>
<path d="M106.601 143.593L100.046 153.321L99.1617 152.725L100.995 150.004L82.3554 137.444L80.5218 140.165L79.6375 139.569L90.2034 123.888L96.4406 127.844L95.9822 128.524L94.0626 127.923C93.9566 127.885 93.8203 127.842 93.6537 127.796C90.9804 127.017 89.0937 127.443 87.9936 129.076L84.3265 134.518L92.8301 140.248L97.5515 133.241L98.5379 133.906L93.8165 140.913L102.966 147.078L105.717 142.997L106.601 143.593Z" fill="#BA0810"/>
<path d="M118.47 128.652L111.953 136.301L111.141 135.609L113.269 133.112L96.1612 118.534L94.0331 121.032L93.2214 120.34L99.7388 112.691L100.55 113.383L98.449 115.849L115.557 130.427L116.967 128.772C117.056 128.668 117.155 128.573 117.264 128.487C117.61 128.207 118.013 128.262 118.47 128.652Z" fill="#BA0810"/>
<path d="M116.746 97.636L116.032 96.8437L122.28 91.2161L122.993 92.0084L120.555 94.2045L136.175 111.544L135.048 113.112L109.511 108.846L122.221 122.956L124.019 121.336C124.12 121.245 124.231 121.163 124.351 121.092C124.731 120.86 125.122 120.968 125.525 121.415L119.278 127.042L118.564 126.25L121.002 124.054L105.958 107.354L103.52 109.55L102.807 108.758L107.042 104.942L131.635 108.955L119.336 95.3026L116.746 97.636Z" fill="#BA0810"/>
<path d="M126.196 88.3585L135.901 82.2942C138.266 80.8161 140.689 80.0757 143.17 80.073C147.251 80.1022 150.538 82.1111 153.03 86.0995C154.957 89.1835 155.525 92.311 154.734 95.4818C153.934 98.6903 151.968 101.273 148.838 103.229L139.238 109.228L138.673 108.324L141.455 106.585L129.544 87.524L126.761 89.2629L126.196 88.3585ZM136.361 83.2637L132.535 85.6547L144.447 104.716L148.377 102.259C148.841 101.97 149.271 101.652 149.668 101.307C153.234 98.241 153.212 93.8209 149.604 88.047C148.546 86.3542 147.459 85.0021 146.344 83.9904C143.353 81.2164 140.025 80.9742 136.361 83.2637Z" fill="#BA0810"/>
<path d="M185.176 86.5522L175.658 89.774L175.316 88.7638L178.424 87.7119L175.623 79.4367L163.914 68.8939L161.777 69.6172L161.435 68.6071L170.215 65.6352L170.557 66.6453L167.605 67.6447L177.608 76.8594L179.687 63.5551L176.579 64.6071L176.237 63.597L183.153 61.2563C183.196 61.3858 183.227 61.5197 183.245 61.658C183.308 62.0987 183.054 62.4154 182.484 62.6083C181.69 62.906 181.114 63.5053 180.755 64.4062L178.794 77.9304L181.726 86.5941L183.824 85.884C183.954 85.8402 184.087 85.8093 184.226 85.7914C184.666 85.7288 184.983 85.9824 185.176 86.5522Z" fill="#BA0810"/>
<path d="M200.572 57.4886C203.325 57.0438 205.883 57.4477 208.246 58.7002C211.725 60.5202 213.825 63.6571 214.544 68.1111C215.159 71.9172 214.378 75.2287 212.202 78.0454C210.256 80.5755 207.691 82.0979 204.506 82.6125C201.671 83.0703 199.021 82.6121 196.556 81.2377C193.176 79.3463 191.132 76.214 190.426 71.841C189.815 68.0619 190.589 64.7932 192.747 62.0348C194.724 59.5273 197.332 58.0119 200.572 57.4886ZM204.444 81.4591C205.524 81.2847 206.49 80.9209 207.342 80.3677C210.377 78.4094 211.419 74.4879 210.469 68.6033C209.238 61.1573 205.96 57.8369 200.633 58.642C199.877 58.7641 199.175 58.9606 198.527 59.2316C194.805 60.8853 193.463 64.9244 194.501 71.3489C194.815 73.2925 195.281 74.976 195.899 76.3997C197.681 80.4049 200.53 82.0914 204.444 81.4591Z" fill="#BA0810"/>
<path d="M217.121 56.6322L217.132 55.5659L227.18 55.6609L227.17 56.7272L223.93 56.6966L223.797 70.7643C223.78 72.5416 223.957 74.0472 224.328 75.2813C225.177 78.1058 227.269 79.5339 230.605 79.5654C230.933 79.5685 231.261 79.5579 231.589 79.5337C235.53 79.1608 237.526 76.3221 237.576 71.0176L237.71 56.8268L234.429 56.7958L234.439 55.7295L242.437 55.8051L242.427 56.8714L239.146 56.8404L239.014 70.7851C239 72.3163 238.836 73.682 238.524 74.8822C237.475 78.81 234.545 80.7511 229.732 80.7056C223.417 80.6186 220.262 77.3757 220.267 70.9771L220.403 56.6632L217.121 56.6322Z" fill="#BA0810"/>
<path d="M252.658 82.3272L242.765 80.5628L242.952 79.5129L246.182 80.0891L250.129 57.9617L246.899 57.3856L247.086 56.3357L259.038 58.4674C261.138 58.8419 262.814 59.6409 264.068 60.8644C265.602 62.3878 266.189 64.159 265.829 66.1779C265.68 67.0124 265.358 67.8022 264.864 68.5474C263.557 70.4252 261.57 71.4456 258.902 71.6087L263.545 83.1857L265.08 83.4594C265.268 83.493 265.427 83.5353 265.557 83.5862C265.866 83.7246 265.967 84.0899 265.861 84.6821L259.764 83.5946L255.284 71.3383L251.448 70.6542L249.655 80.7084L252.845 81.2773L252.658 82.3272ZM257.639 59.3012L253.601 58.581L251.657 69.4832L255.816 70.225C257.027 70.441 258.155 70.2672 259.2 69.7037C260.738 68.867 261.68 67.4795 262.026 65.5414C262.179 64.6799 262.151 63.8277 261.94 62.9846C261.388 60.9419 259.954 59.7141 257.639 59.3012Z" fill="#BA0810"/>
<path d="M295.521 89.101C294.879 90.6402 293.783 91.7385 292.235 92.3957C289.992 93.2964 287.42 93.1411 284.518 91.9295C282.045 90.8971 280.106 89.3319 278.7 87.2338C278.479 87.7637 278.301 88.1191 278.166 88.2999C277.918 88.611 277.491 88.6401 276.885 88.3873L280.156 80.5525L281.292 81.0265C279.772 85.8737 280.931 89.1285 284.771 90.7908C285.755 91.2016 286.725 91.399 287.68 91.3828C289.722 91.317 291.112 90.4009 291.849 88.6346C292.134 87.9533 292.233 87.254 292.147 86.5367C291.974 85.2493 290.962 83.6269 289.113 81.6695C287.107 79.5878 285.938 78.3439 285.604 77.9377C283.79 75.6101 283.326 73.3865 284.211 71.2669C284.801 69.8539 285.822 68.8282 287.273 68.1898C289.419 67.3079 291.855 67.4358 294.58 68.5736C296.826 69.5112 298.639 70.846 300.02 72.5781C300.146 72.2753 300.271 72.0461 300.396 71.8906C300.655 71.5542 301.087 71.5124 301.692 71.7653L298.927 78.3889L297.792 77.9148C298.407 76.5123 298.554 75.1663 298.233 73.8767C297.723 71.9749 296.409 70.5815 294.289 69.6966C293.431 69.3384 292.591 69.1506 291.769 69.1332C289.855 69.1045 288.545 69.9354 287.839 71.626C287.575 72.2568 287.479 72.913 287.55 73.5946C287.709 74.8462 288.711 76.4202 290.557 78.3167C292.577 80.4341 293.774 81.7191 294.148 82.1716C296.001 84.5455 296.459 86.8553 295.521 89.101Z" fill="#BA0810"/>
<path d="M308.965 104.251L299.299 98.4372L299.849 97.5234L303.188 99.5319L314.774 80.2714L312.876 79.1298C310.987 78.1851 308.977 78.6353 306.846 80.4806L304.867 82.4971L303.883 81.9051L308.224 75.0869L325.586 85.531L321.597 92.5607L320.613 91.9687L321.467 89.2756C321.472 89.2146 321.503 89.1373 321.559 89.0436C322.308 86.3668 321.733 84.4575 319.835 83.3159L317.797 82.0896L306.211 101.35L308.601 102.788C308.718 102.858 308.828 102.94 308.931 103.034C309.264 103.33 309.275 103.736 308.965 104.251Z" fill="#BA0810"/>
<path d="M326 117.171L318.23 110.798L318.906 109.974L321.443 112.055L326.983 105.3L329.735 89.7858L327.991 88.3553L328.667 87.5307L335.834 93.4091L335.158 94.2336L332.748 92.2568L330.221 105.621L342.61 100.346L340.073 98.2653L340.75 97.4407L346.395 102.071C346.308 102.176 346.211 102.273 346.103 102.362C345.762 102.648 345.359 102.6 344.894 102.219C344.221 101.702 343.407 101.53 342.453 101.702L329.939 107.194L324.139 114.266L325.851 115.67C325.957 115.757 326.054 115.854 326.142 115.962C326.429 116.303 326.381 116.706 326 117.171Z" fill="#BA0810"/>
<path d="M342.823 134.24L330.592 121.081L331.374 120.355L333.607 122.759L350.071 107.457L347.837 105.053L348.618 104.327L355.599 111.838L354.818 112.564L352.472 110.041L336.009 125.342L339.834 129.458C340.039 129.679 340.273 129.89 340.537 130.093C341.839 130.973 343.635 130.797 345.925 129.565L348.412 128.205L348.971 128.806L342.823 134.24Z" fill="#BA0810"/>
<path d="M369.372 141.78L368.903 141.107L370.157 139.534C370.231 139.449 370.319 139.337 370.423 139.199C372.114 136.987 372.397 135.073 371.272 133.458L367.52 128.074L359.107 133.936L363.938 140.868L362.962 141.548L358.131 134.616L349.079 140.924L352.831 146.308C353.097 146.69 353.403 147.01 353.75 147.268C354.897 148.101 356.62 148.134 358.917 147.366L360.827 146.735L361.296 147.408L355.122 151.461L344.311 135.948L345.186 135.338L347.062 138.03L365.503 125.18L363.627 122.488L364.502 121.878L375.312 137.391L369.372 141.78Z" fill="#BA0810"/>
<path d="M101.077 265.008C118.091 319.476 168.933 359.006 229.007 359.005C289.081 359.004 339.921 319.472 356.933 265.003M101.075 185.008C118.087 130.539 168.927 91.0065 229.001 91.0053C289.075 91.0041 339.917 130.535 356.931 185.003" stroke="#BA0810" stroke-width="2"/>
<path d="M92.7125 309.659L88.9846 303.755L89.5428 303.403L90.8306 305.442L102.596 298.014L101.864 296.854C101.082 295.806 99.8449 295.496 98.1531 295.924L96.4978 296.489L96.1182 295.888L100.415 293.324L107.112 303.93L102.951 306.708L102.571 306.107L103.792 304.855C103.812 304.823 103.851 304.788 103.908 304.752C105.066 303.48 105.28 302.264 104.548 301.105L103.761 299.86L91.9964 307.289L92.9183 308.749C92.9634 308.82 93.0015 308.896 93.0323 308.977C93.134 309.233 93.0274 309.461 92.7125 309.659Z" fill="#BA0810"/>
<path d="M105.254 326.533L101.875 322.212L102.396 321.806L103.412 323.106L106.12 318.572L102.851 314.391L97.7976 315.925L98.5639 316.905C98.6161 316.972 98.6615 317.044 98.7003 317.121C98.8271 317.366 98.7439 317.603 98.4505 317.832L95.6667 314.272L96.1868 313.865L97.172 315.125L112.157 310.629L112.735 311.369L104.835 324.926L105.367 325.606C105.419 325.673 105.465 325.745 105.503 325.822C105.63 326.067 105.547 326.304 105.254 326.533ZM106.528 317.898L109.898 312.233L103.603 314.158L106.528 317.898Z" fill="#BA0810"/>
<path d="M112.842 334.574L108.559 330.062L109.038 329.607L110.437 331.081L114.359 327.357L117.241 318.039L116.28 317.026L116.759 316.572L120.709 320.734L120.231 321.188L118.902 319.789L116.323 327.803L124.339 325.515L122.94 324.042L123.419 323.588L126.531 326.866C126.469 326.924 126.402 326.976 126.329 327.022C126.098 327.172 125.854 327.111 125.597 326.841C125.224 326.472 124.737 326.304 124.138 326.336L116.029 328.748L111.923 332.646L112.867 333.64C112.925 333.702 112.977 333.769 113.023 333.842C113.173 334.073 113.112 334.317 112.842 334.574Z" fill="#BA0810"/>
<path d="M125.926 346.621L117.567 339.285L118.003 338.789L119.529 340.129L128.707 329.671L127.181 328.331L127.616 327.835L132.387 332.022L131.951 332.518L130.348 331.111L121.17 341.569L123.785 343.864C123.925 343.987 124.082 344.102 124.257 344.211C125.115 344.671 126.21 344.449 127.543 343.547L128.989 342.553L129.371 342.888L125.926 346.621Z" fill="#BA0810"/>
<path d="M143.33 340.34C144.733 341.347 145.679 342.641 146.169 344.222C146.901 346.54 146.453 348.833 144.824 351.102C143.431 353.041 141.643 354.153 139.458 354.439C137.5 354.699 135.709 354.247 134.087 353.082C132.643 352.046 131.68 350.688 131.198 349.008C130.541 346.702 131.012 344.435 132.611 342.208C133.993 340.283 135.76 339.186 137.912 338.918C139.874 338.681 141.68 339.155 143.33 340.34ZM134.563 352.549C135.113 352.944 135.696 353.206 136.311 353.336C138.498 353.802 140.668 352.536 142.82 349.539C145.532 345.734 145.543 342.845 142.854 340.873C142.469 340.596 142.075 340.376 141.672 340.212C139.317 339.312 136.964 340.499 134.614 343.771C133.904 344.761 133.373 345.704 133.022 346.598C132.056 349.134 132.569 351.118 134.563 352.549Z" fill="#BA0810"/>
<path d="M148.566 362.089L143.152 359.023L143.478 358.449L145.245 359.45L152.101 347.342L150.333 346.341L150.659 345.767L157.199 349.47C158.348 350.12 159.162 350.932 159.643 351.904C160.225 353.109 160.203 354.264 159.578 355.369C159.319 355.825 158.969 356.22 158.527 356.554C157.378 357.381 156.008 357.568 154.416 357.115L154.746 364.829L155.586 365.305C155.689 365.363 155.773 365.421 155.838 365.477C155.99 365.621 155.974 365.855 155.791 366.179L152.454 364.29L152.359 356.213L150.26 355.024L147.145 360.526L148.891 361.514L148.566 362.089ZM156.211 349.669L154.001 348.418L150.623 354.383L152.899 355.672C153.562 356.047 154.256 356.178 154.982 356.064C156.052 355.892 156.888 355.275 157.488 354.215C157.755 353.743 157.914 353.24 157.964 352.704C158.062 351.398 157.477 350.386 156.211 349.669Z" fill="#BA0810"/>
<path d="M160.145 361.562L165.388 364.018L164.882 365.098L159.639 362.643L160.145 361.562Z" fill="#BA0810"/>
<path d="M188.964 363.127L188.739 363.748L186.829 363.057L182.099 376.143L183.389 376.609C183.468 376.638 183.545 376.674 183.619 376.719C183.856 376.859 183.912 377.104 183.785 377.454L178.054 375.383L178.279 374.762L180.189 375.452L184.366 363.895L174.406 374.199L173.904 374.018L172.653 361.119L168.942 371.387L170.232 371.853C170.311 371.882 170.388 371.919 170.462 371.963C170.699 372.103 170.755 372.348 170.628 372.699L165.852 370.972L166.077 370.352L167.987 371.042L172.717 357.956L170.806 357.266L171.031 356.645L174.446 357.879L175.765 371.558L185.143 361.746L188.964 363.127Z" fill="#BA0810"/>
<path d="M200.931 381.482L195.592 380.229L195.743 379.586L197.349 379.963L196.621 374.733L191.455 373.52L188.475 377.881L189.686 378.165C189.769 378.184 189.849 378.212 189.928 378.248C190.18 378.359 190.263 378.596 190.178 378.959L185.778 377.926L185.929 377.283L187.486 377.649L196.353 364.759L197.268 364.974L199.599 380.491L200.439 380.688C200.522 380.708 200.602 380.735 200.681 380.771C200.933 380.882 201.016 381.119 200.931 381.482ZM196.517 373.952L195.597 367.425L191.895 372.867L196.517 373.952Z" fill="#BA0810"/>
<path d="M204.965 366.738L211.994 367.621C213.707 367.836 215.159 368.428 216.351 369.397C218.298 371.007 219.091 373.256 218.728 376.144C218.447 378.378 217.497 380.101 215.877 381.314C214.239 382.541 212.286 383.012 210.019 382.727L203.065 381.853L203.148 381.198L205.163 381.452L206.898 367.646L204.883 367.393L204.965 366.738ZM211.836 368.267L209.065 367.918L207.33 381.724L210.176 382.082C210.512 382.124 210.843 382.14 211.168 382.13C214.078 382.052 215.796 379.922 216.322 375.74C216.476 374.514 216.483 373.44 216.343 372.518C215.992 370.017 214.489 368.6 211.836 368.267Z" fill="#BA0810"/>
<path d="M233.702 373.536L233.195 373.524L232.866 372.323C232.851 372.255 232.827 372.17 232.796 372.067C232.308 370.414 231.455 369.574 230.237 369.546L226.176 369.454L226.032 375.8L231.261 375.918L231.245 376.655L226.015 376.536L225.861 383.365L229.923 383.457C230.21 383.463 230.482 383.427 230.738 383.348C231.573 383.079 232.219 382.23 232.675 380.801L233.057 379.616L233.565 379.628L233.334 384.194L221.632 383.929L221.647 383.269L223.678 383.315L223.993 369.405L221.962 369.359L221.977 368.699L233.679 368.964L233.702 373.536Z" fill="#BA0810"/>
<path d="M254.974 370.621C255.018 370.991 254.98 371.388 254.859 371.811C254.533 372.941 253.791 373.804 252.635 374.401C253.373 374.45 254.039 374.601 254.632 374.855C255.913 375.453 256.633 376.425 256.792 377.769C256.894 378.627 256.727 379.448 256.291 380.232C255.446 381.73 253.939 382.607 251.771 382.864L244.61 383.712L244.532 383.057L246.549 382.818L244.913 369L242.896 369.239L242.818 368.584L249.903 367.744C251.013 367.613 251.985 367.694 252.821 367.987C254.105 368.466 254.823 369.344 254.974 370.621ZM249.376 368.472L247.081 368.743L247.783 374.669L250.027 374.403C250.699 374.323 251.269 374.094 251.735 373.715C252.527 373.059 252.858 372.184 252.729 371.092C252.701 370.856 252.657 370.631 252.598 370.417C252.181 368.915 251.107 368.267 249.376 368.472ZM250.587 375.027L247.864 375.35L248.718 382.561L251.567 382.224C252.34 382.132 252.976 381.818 253.475 381.282C254.23 380.459 254.531 379.401 254.378 378.107C254.312 377.552 254.15 377.051 253.893 376.604C253.218 375.372 252.116 374.846 250.587 375.027Z" fill="#BA0810"/>
<path d="M274.343 378.652L268.985 379.824L268.844 379.179L270.456 378.826L267.544 374.421L262.36 375.554L261.552 380.773L262.767 380.507C262.85 380.489 262.934 380.479 263.02 380.478C263.296 380.47 263.473 380.647 263.553 381.011L259.138 381.977L258.997 381.332L260.559 380.99L263.003 365.537L263.92 365.337L272.714 378.333L273.557 378.148C273.64 378.13 273.724 378.12 273.811 378.119C274.086 378.11 274.263 378.288 274.343 378.652ZM267.114 373.761L263.47 368.268L262.475 374.775L267.114 373.761Z" fill="#BA0810"/>
<path d="M282.269 376.133L276.352 378.052L276.149 377.425L278.081 376.798L273.787 363.563L271.855 364.189L271.651 363.562L278.8 361.242C280.056 360.835 281.205 360.783 282.246 361.085C283.528 361.471 284.364 362.267 284.756 363.474C284.918 363.974 284.973 364.499 284.92 365.05C284.754 366.456 283.966 367.593 282.556 368.459L288.466 373.429L289.384 373.131C289.496 373.094 289.596 373.071 289.681 373.061C289.89 373.047 290.052 373.217 290.167 373.571L286.52 374.754L280.501 369.366L278.207 370.11L280.158 376.124L282.066 375.505L282.269 376.133ZM278.279 362.105L275.864 362.889L277.98 369.41L280.467 368.603C281.192 368.368 281.757 367.944 282.164 367.332C282.76 366.427 282.87 365.394 282.494 364.235C282.327 363.72 282.063 363.263 281.702 362.864C280.805 361.909 279.664 361.656 278.279 362.105Z" fill="#BA0810"/>
<path d="M298.277 357.217C298.425 357.558 298.502 357.949 298.508 358.389C298.52 359.565 298.058 360.605 297.121 361.509C297.843 361.344 298.524 361.297 299.165 361.37C300.563 361.575 301.532 362.299 302.071 363.542C302.415 364.334 302.49 365.168 302.299 366.044C301.919 367.722 300.728 368.995 298.724 369.864L292.109 372.733L291.846 372.127L293.71 371.319L288.174 358.554L286.31 359.362L286.047 358.756L292.593 355.917C293.618 355.473 294.573 355.271 295.458 355.312C296.825 355.401 297.765 356.036 298.277 357.217ZM292.297 356.766L290.177 357.685L292.551 363.159L294.624 362.26C295.245 361.991 295.725 361.607 296.063 361.11C296.633 360.254 296.699 359.322 296.261 358.312C296.167 358.095 296.06 357.892 295.941 357.703C295.111 356.384 293.896 356.072 292.297 356.766ZM295.34 362.697L292.824 363.788L295.713 370.45L298.345 369.309C299.06 368.999 299.579 368.515 299.903 367.858C300.389 366.854 300.374 365.754 299.855 364.558C299.633 364.045 299.334 363.612 298.959 363.258C297.959 362.271 296.753 362.084 295.34 362.697Z" fill="#BA0810"/>
<path d="M311.578 351.305L311.134 351.55L310.245 350.678C310.197 350.627 310.134 350.565 310.055 350.493C308.801 349.31 307.641 349.014 306.575 349.604L303.02 351.57L306.092 357.124L310.669 354.593L311.026 355.237L306.449 357.769L309.754 363.746L313.309 361.779C313.561 361.64 313.778 361.472 313.959 361.275C314.545 360.622 314.676 359.563 314.35 358.099L314.083 356.883L314.527 356.637L316.628 360.698L306.386 366.363L306.066 365.786L307.844 364.802L301.109 352.627L299.332 353.61L299.012 353.032L309.255 347.367L311.578 351.305Z" fill="#BA0810"/>
<path d="M325.665 354.835L320.536 358.355L320.162 357.81L321.837 356.661L313.965 345.188L312.29 346.337L311.916 345.793L318.113 341.541C319.202 340.794 320.289 340.418 321.373 340.413C322.711 340.418 323.74 340.945 324.458 341.991C324.755 342.424 324.956 342.912 325.062 343.455C325.301 344.851 324.868 346.164 323.762 347.395L330.839 350.484L331.635 349.938C331.733 349.871 331.821 349.821 331.901 349.787C332.097 349.714 332.3 349.831 332.511 350.138L329.35 352.307L322.049 348.848L320.06 350.213L323.637 355.426L325.291 354.291L325.665 354.835ZM317.859 342.516L315.765 343.953L319.644 349.605L321.8 348.126C322.428 347.695 322.85 347.128 323.066 346.426C323.381 345.389 323.194 344.368 322.504 343.363C322.198 342.916 321.815 342.553 321.356 342.272C320.225 341.611 319.059 341.693 317.859 342.516Z" fill="#BA0810"/>
<path d="M345.437 333.607C346.133 334.37 346.462 335.272 346.426 336.313C346.345 337.807 345.585 339.21 344.146 340.521C342.92 341.638 341.534 342.317 339.989 342.556C340.229 342.819 340.381 343.012 340.448 343.135C340.557 343.356 340.462 343.603 340.162 343.876L336.622 339.992L337.185 339.479C339.506 341.599 341.636 341.8 343.573 340.081C344.061 339.636 344.425 339.144 344.666 338.604C345.164 337.441 345.013 336.421 344.215 335.545C343.907 335.208 343.541 334.969 343.116 334.829C342.348 334.59 341.173 334.733 339.591 335.259C337.899 335.839 336.895 336.17 336.58 336.251C334.799 336.66 333.43 336.339 332.473 335.288C331.834 334.587 331.526 333.746 331.547 332.764C331.614 331.329 332.323 329.996 333.674 328.765C334.788 327.75 336.011 327.082 337.344 326.761C337.207 326.611 337.111 326.48 337.057 326.37C336.936 326.137 337.025 325.883 337.326 325.61L340.318 328.894L339.755 329.407C339.129 328.695 338.413 328.26 337.605 328.103C336.405 327.891 335.279 328.265 334.228 329.222C333.803 329.61 333.478 330.032 333.253 330.489C332.736 331.555 332.859 332.508 333.623 333.346C333.908 333.659 334.251 333.884 334.652 334.023C335.396 334.261 336.541 334.111 338.088 333.571C339.804 332.992 340.839 332.657 341.19 332.565C343.007 332.146 344.423 332.494 345.437 333.607Z" fill="#BA0810"/>
<path d="M354.725 329.592L350.596 334.244L350.102 333.806L351.45 332.287L341.045 323.05L339.696 324.569L339.203 324.13L343.332 319.478L343.826 319.917L342.494 321.417L347.242 325.631L352.416 319.801L347.669 315.587L346.321 317.106L345.827 316.668L349.957 312.016L350.451 312.454L349.119 313.954L359.524 323.191L360.418 322.185C360.474 322.122 360.537 322.064 360.605 322.012C360.823 321.843 361.071 321.882 361.35 322.13L357.22 326.782L356.726 326.343L358.075 324.824L352.967 320.29L347.792 326.12L352.9 330.654L353.793 329.647C353.85 329.584 353.912 329.526 353.981 329.474C354.199 329.306 354.447 329.345 354.725 329.592Z" fill="#BA0810"/>
<path d="M355.443 303.907C356.433 302.492 357.715 301.53 359.29 301.02C361.599 300.259 363.897 300.679 366.186 302.28C368.142 303.648 369.277 305.422 369.59 307.603C369.875 309.558 369.445 311.354 368.3 312.991C367.282 314.448 365.936 315.427 364.262 315.93C361.965 316.616 359.693 316.174 357.445 314.602C355.503 313.244 354.385 311.491 354.09 309.343C353.828 307.384 354.279 305.572 355.443 303.907ZM367.761 312.521C368.149 311.966 368.404 311.38 368.526 310.763C368.965 308.571 367.672 306.417 364.648 304.302C360.809 301.639 357.921 301.664 355.982 304.377C355.711 304.766 355.495 305.162 355.336 305.567C354.466 307.934 355.682 310.271 358.984 312.58C359.982 313.278 360.931 313.797 361.83 314.136C364.378 315.071 366.355 314.533 367.761 312.521Z" fill="#BA0810"/>
<path d="M364.706 290.724L363.362 293.144L369.578 296.595L370.712 294.553C370.81 294.376 370.902 294.194 370.985 294.008C371.746 292.185 371.165 290.739 369.241 289.671C368.797 289.424 368.35 289.253 367.899 289.158C366.502 288.885 365.437 289.407 364.706 290.724ZM377.336 298L374.057 303.904L373.48 303.584L374.466 301.808L362.302 295.053L361.316 296.829L360.739 296.508L364.388 289.938C364.914 288.991 365.528 288.267 366.232 287.767C367.531 286.823 368.913 286.758 370.378 287.572C371.058 287.95 371.571 288.438 371.917 289.036C372.857 290.585 372.654 292.573 371.306 295L370.221 296.953L375.527 299.899L376.439 298.256C376.48 298.182 376.528 298.113 376.584 298.047C376.76 297.835 377.011 297.819 377.336 298Z" fill="#BA0810"/>
<path d="M163.003 158.008C152.003 158.008 151.503 168.508 163.003 168.508L289.003 168.505C299.003 168.505 299.003 158.005 289.003 158.005" stroke="#BA0810"/>
<path d="M163.003 158.008C166.003 158.008 168.003 159.508 167.003 164.508" stroke="#BA0810"/>
<path d="M289.263 158.006C286.263 158.006 284.263 159.506 285.263 164.506" stroke="#BA0810"/>
<path d="M164.443 289.508C153.443 289.508 152.943 279.008 164.443 279.008L290.443 279.005C300.443 279.005 300.443 289.505 290.444 289.505" stroke="#BA0810"/>
<path d="M164.443 289.508C167.443 289.508 169.443 288.008 168.443 283.008" stroke="#BA0810"/>
<path d="M290.703 289.506C287.703 289.506 285.703 288.006 286.703 283.006" stroke="#BA0810"/>
<path d="M249.105 131.15C250.139 131.15 251.13 131.478 251.861 132.062C252.592 132.646 253.003 133.438 253.003 134.264C253.003 135.089 252.592 135.881 251.861 136.465C251.13 137.049 250.139 137.377 249.105 137.377C248.84 137.36 248.578 137.318 248.325 137.253L247.292 136.972C246.838 136.789 246.439 136.529 246.123 136.21L245.46 135.353C245.271 134.999 245.172 134.618 245.168 134.233C245.173 133.824 245.278 133.42 245.479 133.043C245.68 132.667 245.971 132.326 246.337 132.04C246.702 131.754 247.135 131.528 247.61 131.375C248.085 131.222 248.593 131.146 249.105 131.15ZM225.715 128.037C226.678 128.037 227.602 128.341 228.285 128.884C228.968 129.427 229.355 130.163 229.36 130.932C229.353 131.4 229.201 131.859 228.919 132.269C228.637 132.679 228.233 133.028 227.742 133.283L227.08 133.532C226.651 133.668 226.196 133.742 225.735 133.75C225.265 133.745 224.801 133.666 224.37 133.517L223.98 133.33C223.403 133.095 222.916 132.74 222.573 132.301C222.229 131.862 222.042 131.357 222.031 130.839C222.052 130.074 222.451 129.346 223.141 128.815C223.831 128.284 224.757 127.993 225.715 128.006L225.715 128.037ZM217.919 143.434L223.863 135.774C225.063 136.106 226.367 136.106 227.567 135.774L233.512 143.402L244.583 137.907C244.925 138.174 245.304 138.409 245.713 138.607L240.451 151.233L210.999 151.234L205.737 138.608C206.146 138.41 206.525 138.175 206.867 137.907L217.919 143.434ZM202.325 131.634C202.764 131.631 203.198 131.699 203.604 131.832C204.01 131.965 204.378 132.161 204.688 132.409C204.998 132.656 205.243 132.951 205.41 133.274C205.577 133.598 205.661 133.945 205.659 134.296C205.653 134.621 205.573 134.942 205.425 135.245L204.859 135.977C204.502 136.319 204.042 136.583 203.522 136.745C203.003 136.907 202.44 136.962 201.887 136.904C201.334 136.847 200.808 136.678 200.358 136.415C199.908 136.152 199.549 135.802 199.313 135.398C199.078 134.994 198.973 134.549 199.01 134.105C199.047 133.66 199.224 133.23 199.525 132.855C199.825 132.479 200.239 132.171 200.729 131.957C201.218 131.744 201.768 131.632 202.325 131.634ZM240.588 158.005L210.902 158.006L210.902 154.612L240.587 154.611L240.588 158.005Z" fill="#BA0810"/>
</svg>
