<svg width="14" height="19" viewBox="0 0 14 19" fill="none" xmlns="http://www.w3.org/2000/svg">
<path d="M12.4388 3.54838C12.9242 2.16295 13.0698 0.834091 12.2446 0L6.99 8.14286L6.37108 9.1183C6.37108 9.1183 5.36385 10.8152 5.01192 11.6064C4.65999 12.3976 4.30806 13.2746 4.01683 13.8966C3.76125 14.4425 3.63628 14.5421 3.49467 14.3863C3.47622 14.3614 3.45734 14.3368 3.43805 14.3127L3.43404 14.3069C3.39237 14.2444 3.33378 14.1796 3.26506 14.1174C2.92377 13.7748 2.49914 13.5714 2.03875 13.5714C0.912806 13.5714 0 14.7866 0 16.2857C0 17.7848 0.912806 19 2.03875 19C2.96049 19 3.73898 18.1855 3.9912 17.0677L3.99105 17.0695C3.99105 17.0695 4.47795 15.3103 5.18182 14.0379C5.88568 12.7656 6.99 12.2143 6.99 12.2143L8.15499 10.8571C8.15499 10.8571 11.9533 4.93381 12.4388 3.54838ZM2.03875 17.6429C1.47663 17.6429 1.0209 17.0341 1.0209 16.2857C1.0209 15.5373 1.47663 14.9286 2.03875 14.9286C2.6009 14.9286 3.05659 15.5373 3.05659 16.2857C3.05659 17.0341 2.6009 17.6429 2.03875 17.6429ZM6.99999 10.8571C6.67784 10.8571 6.41666 10.5534 6.41666 10.1786C6.41666 9.80383 6.67784 9.5 6.99999 9.5C7.32217 9.5 7.58332 9.80383 7.58332 10.1786C7.58332 10.5534 7.32217 10.8571 6.99999 10.8571Z" fill="black"/>
<path d="M5.06742 10.0588C5.2768 9.66247 5.49019 9.26935 5.70753 8.87956L5.71253 8.87059L5.71778 8.86184L6.31145 7.86999L6.31278 7.86775L6.31414 7.86551L6.41699 7.69655L1.73171 0C0.940173 0.848114 1.07985 2.19931 1.54546 3.60803C1.89353 4.66111 4.01719 8.29226 5.06742 10.0588Z" fill="black"/>
<path d="M11.9712 13.6271C11.5151 13.6271 11.0945 13.8284 10.7565 14.1675C10.6884 14.229 10.6304 14.2932 10.5891 14.355L10.5851 14.3608C10.566 14.3847 10.5474 14.409 10.5291 14.4337C10.3888 14.5879 10.265 14.4892 10.0119 13.9489C9.72339 13.3332 9.3748 12.4652 9.0262 11.6821C8.96229 11.5385 8.87648 11.3647 8.77909 11.1768C8.74384 11.2319 8.70855 11.287 8.6732 11.3421L8.64836 11.3809L8.619 11.4151L7.58301 12.6211C7.95977 12.9088 8.47011 13.3883 8.85799 14.0888C9.55514 15.3482 10.0374 17.0895 10.0374 17.0895L10.0373 17.0877C10.2871 18.1941 11.0582 19.0003 11.9712 19.0003C13.0864 19.0003 13.9997 17.7975 13.9997 16.3137C13.9997 14.8299 13.0864 13.6271 11.9712 13.6271ZM11.9712 17.657C11.4143 17.657 10.963 17.0545 10.963 16.3137C10.963 15.5729 11.4143 14.9704 11.9712 14.9704C12.5279 14.9704 12.9794 15.5729 12.9794 16.3137C12.9794 17.0545 12.5279 17.657 11.9712 17.657Z" fill="black"/>
</svg>
