<svg width="80" height="52" viewBox="0 0 80 52" fill="none" xmlns="http://www.w3.org/2000/svg">
<path d="M55.118 16.7888C59.1844 15.8816 62.8429 13.7794 65.7766 10.8039C68.2346 8.31098 70.0503 5.34341 71.0653 2.06207C71.2997 1.34169 70.8977 0.945248 70.7368 0.786671C70.576 0.628092 70.0946 0.312067 69.4569 0.476291L27.2508 17.2254L26.9325 17.3874C25.4193 17.9571 21.3575 19.5031 19.5338 21.3527C20.4184 22.2249 21.3019 22.9374 22.1061 23.7303C22.3473 23.9681 22.5875 24.0463 22.8287 24.2842L55.118 16.7888ZM22.2701 35.6279C26.6115 39.7498 31.346 42.9905 36.4747 45.5096C42.2445 48.3437 47.9271 50.1403 53.5225 50.8993C55.7618 51.3626 57.9988 51.5065 60.3152 51.5699C61.0344 51.6447 61.7537 51.7195 62.3925 51.715C64.3894 51.7807 66.3852 51.6867 68.5406 51.5916C69.4989 51.5849 70.5364 51.4977 71.4143 51.4116C73.5697 51.3165 75.5599 50.424 77.0664 48.896C78.7314 47.2073 79.5946 45.045 79.4983 42.7298C79.3059 38.0994 75.4469 34.4533 70.8165 34.6457C70.3374 34.6491 69.779 34.7329 69.3803 34.8156L68.3439 35.0625C67.5465 35.2279 66.6698 35.4736 65.7931 35.7194C64.358 36.049 63.0033 36.4578 61.4878 36.7081C60.7697 36.7931 60.2113 36.8769 59.4931 36.9618C57.8179 37.2132 56.1427 37.4647 54.4652 37.3967C50.1554 37.7466 45.5193 37.1405 40.24 35.9001C35.6798 34.7345 31.0336 32.691 26.7023 30.0065C25.9808 29.6123 25.3386 29.1377 24.6964 28.6631C24.2954 28.4264 23.9738 28.1092 23.5728 27.8725L23.3316 27.6346C22.4481 26.9222 21.4853 26.2901 20.5214 25.4983C18.5936 23.9148 16.6636 22.0119 15.1334 20.186L14.8921 19.9481C14.4901 19.5517 14.0891 19.3149 13.5296 19.239C13.0516 19.4021 12.5736 19.5652 12.1771 19.9673L12.0978 20.0477C11.4635 20.6911 11.3106 21.6505 11.7954 22.4456C13.09 24.8322 14.6224 26.9775 16.557 29.5193C17.5231 30.6304 18.4893 31.7416 19.2946 32.6942L22.2701 35.6279ZM5.19744 26.7247L11.2629 26.2027L9.80862 23.8172L0.148032 24.1251C1.1187 25.8751 3.04309 26.9795 5.19744 26.7247Z" fill="#BA0810" fill-opacity="0.8"/>
</svg>
