<svg width="80" height="52" viewBox="0 0 80 52" fill="none" xmlns="http://www.w3.org/2000/svg">
<path d="M24.88 16.7888C20.8137 15.8816 17.1551 13.7794 14.2214 10.8039C11.7635 8.31098 9.94772 5.34341 8.93278 2.06207C8.6983 1.34169 9.10039 0.945248 9.26123 0.786671C9.42207 0.628092 9.90345 0.312067 10.5411 0.476291L52.7472 17.2254L53.0655 17.3874C54.5788 17.9571 58.6406 19.5031 60.4642 21.3527C59.5796 22.2249 58.6962 22.9374 57.892 23.7303C57.6507 23.9681 57.4106 24.0463 57.1693 24.2842L24.88 16.7888ZM57.728 35.6279C53.3865 39.7498 48.652 42.9905 43.5233 45.5096C37.7535 48.3437 32.0709 50.1403 26.4755 50.8993C24.2362 51.3626 21.9992 51.5065 19.6829 51.5699C18.9636 51.6447 18.2444 51.7195 17.6056 51.715C15.6087 51.7807 13.6129 51.6867 11.4574 51.5916C10.4992 51.5849 9.46162 51.4977 8.5838 51.4116C6.42831 51.3165 4.43818 50.424 2.9317 48.896C1.26663 47.2073 0.403488 45.045 0.499717 42.7298C0.692177 38.0994 4.55113 34.4533 9.18151 34.6457C9.66063 34.6491 10.219 34.7329 10.6177 34.8156L11.6541 35.0625C12.4516 35.2279 13.3282 35.4736 14.2049 35.7194C15.64 36.049 16.9947 36.4578 18.5103 36.7081C19.2284 36.7931 19.7868 36.8769 20.5049 36.9618C22.1801 37.2132 23.8554 37.4647 25.5329 37.3967C29.8427 37.7466 34.4787 37.1405 39.7581 35.9001C44.3182 34.7345 48.9644 32.691 53.2957 30.0065C54.0172 29.6123 54.6594 29.1377 55.3016 28.6631C55.7026 28.4264 56.0243 28.1092 56.4252 27.8725L56.6665 27.6346C57.55 26.9222 58.5127 26.2901 59.4766 25.4983C61.4044 23.9148 63.3344 22.0119 64.8646 20.186L65.1059 19.9481C65.508 19.5517 65.909 19.3149 66.4685 19.239C66.9465 19.4021 67.4245 19.5652 67.8209 19.9673L67.9002 20.0477C68.5345 20.6911 68.6875 21.6505 68.2027 22.4456C66.9081 24.8322 65.3756 26.9775 63.4411 29.5193C62.4749 30.6304 61.5088 31.7416 60.7035 32.6942L57.728 35.6279ZM74.8006 26.7247L68.7351 26.2027L70.1894 23.8172L79.85 24.1251C78.8794 25.8751 76.955 26.9795 74.8006 26.7247Z" fill="#BA0810" fill-opacity="0.8"/>
</svg>
